<?xml version="1.0" encoding="UTF-8" standalone="no"?><svg xmlns="http://www.w3.org/2000/svg" xmlns:xlink="http://www.w3.org/1999/xlink" contentStyleType="text/css" height="418px" preserveAspectRatio="none" style="width:915px;height:418px;background:#FFFFFF;" version="1.1" viewBox="0 0 915 418" width="915px" zoomAndPan="magnify"><defs/><g><rect fill="none" height="29.1201" id="_title" style="stroke:none;stroke-width:1.0;" width="112" x="400" y="15"/><text fill="#000000" font-family="sans-serif" font-size="14" font-weight="bold" lengthAdjust="spacing" textLength="102" x="405" y="36.0439">Spring设计模式</text><rect fill="#708090" height="39.1201" rx="12.5" ry="12.5" style="stroke:#181818;stroke-width:1.5;" width="117" x="640" y="208.9805"/><text fill="#000000" font-family="sans-serif" font-size="14" lengthAdjust="spacing" textLength="97" x="650" y="235.0244">Spring设计模式</text><rect fill="#483D8B" height="39.1201" rx="12.5" ry="12.5" style="stroke:#181818;stroke-width:1.5;" width="96" x="807" y="208.9805"/><text fill="#000000" font-family="sans-serif" font-size="14" lengthAdjust="spacing" textLength="76" x="817" y="235.0244">传统GoF 23</text><path d="M757,228.5405 L767,228.5405 C782,228.5405 782,228.5405 797,228.5405 L807,228.5405 " fill="none" style="stroke:#181818;stroke-width:1.0;"/><rect fill="#483D8B" height="39.1201" rx="12.5" ry="12.5" style="stroke:#181818;stroke-width:1.5;" width="145" x="445" y="208.9805"/><text fill="#000000" font-family="sans-serif" font-size="14" lengthAdjust="spacing" textLength="125" x="455" y="235.0244">Spring专属设计模式</text><rect fill="#4682B4" height="39.1201" rx="12.5" ry="12.5" style="stroke:#181818;stroke-width:1.5;" width="76" x="319" y="89.6802"/><text fill="#000000" font-family="sans-serif" font-size="14" lengthAdjust="spacing" textLength="56" x="329" y="115.7241">前缀模式</text><rect fill="#B0E0E6" height="39.1201" rx="12.5" ry="12.5" style="stroke:#181818;stroke-width:1.5;" width="92" x="177" y="60.1201"/><text fill="#000000" font-family="sans-serif" font-size="14" lengthAdjust="spacing" textLength="72" x="187" y="86.1641">Enable模式</text><path d="M319,109.2402 L309,109.2402 C294,109.2402 294,79.6802 279,79.6802 L269,79.6802 " fill="none" style="stroke:#181818;stroke-width:1.0;"/><rect fill="#B0E0E6" height="39.1201" rx="12.5" ry="12.5" style="stroke:#181818;stroke-width:1.5;" width="129" x="140" y="119.2402"/><text fill="#000000" font-family="sans-serif" font-size="14" lengthAdjust="spacing" textLength="109" x="150" y="145.2842">Configurable模式</text><path d="M319,109.2402 L309,109.2402 C294,109.2402 294,138.8003 279,138.8003 L269,138.8003 " fill="none" style="stroke:#181818;stroke-width:1.0;"/><path d="M445,228.5405 L435,228.5405 C420,228.5405 420,109.2402 405,109.2402 L395,109.2402 " fill="none" style="stroke:#181818;stroke-width:1.0;"/><rect fill="#6495ED" height="39.1201" rx="12.5" ry="12.5" style="stroke:#181818;stroke-width:1.5;" width="76" x="319" y="268.1006"/><text fill="#000000" font-family="sans-serif" font-size="14" lengthAdjust="spacing" textLength="56" x="329" y="294.1445">后缀模式</text><rect fill="#B0E0E6" height="39.1201" rx="12.5" ry="12.5" style="stroke:#181818;stroke-width:1.5;" width="76" x="193" y="180.4805"/><text fill="#000000" font-family="sans-serif" font-size="14" lengthAdjust="spacing" textLength="56" x="203" y="206.5244">处理模式</text><text fill="#000000" font-family="sans-serif" font-size="14" lengthAdjust="spacing" textLength="64" x="76" y="185.4043">Processor</text><path d="M193,200.0405 L183,200.0405 C168,200.0405 168,178.9204 153,178.9204 L143,178.9204 " fill="none" style="stroke:#181818;stroke-width:1.0;"/><text fill="#000000" font-family="sans-serif" font-size="14" lengthAdjust="spacing" textLength="56" x="84" y="206.5244">Resolver</text><path d="M193,200.0405 L183,200.0405 C168,200.0405 168,200.0405 153,200.0405 L143,200.0405 " fill="none" style="stroke:#181818;stroke-width:1.0;"/><text fill="#000000" font-family="sans-serif" font-size="14" lengthAdjust="spacing" textLength="49" x="91" y="227.6445">Handler</text><path d="M193,200.0405 L183,200.0405 C168,200.0405 168,221.1606 153,221.1606 L143,221.1606 " fill="none" style="stroke:#181818;stroke-width:1.0;"/><path d="M319,287.6606 L309,287.6606 C294,287.6606 294,200.0405 279,200.0405 L269,200.0405 " fill="none" style="stroke:#181818;stroke-width:1.0;"/><rect fill="#B0E0E6" height="39.1201" rx="12.5" ry="12.5" style="stroke:#181818;stroke-width:1.5;" width="76" x="193" y="239.6006"/><text fill="#000000" font-family="sans-serif" font-size="14" lengthAdjust="spacing" textLength="56" x="203" y="265.6445">意识模式</text><text fill="#000000" font-family="sans-serif" font-size="14" lengthAdjust="spacing" textLength="39" x="101" y="265.6445">Aware</text><path d="M193,259.1606 L183,259.1606 C168,259.1606 168,259.1606 153,259.1606 L143,259.1606 " fill="none" style="stroke:#181818;stroke-width:1.0;"/><path d="M319,287.6606 L309,287.6606 C294,287.6606 294,259.1606 279,259.1606 L269,259.1606 " fill="none" style="stroke:#181818;stroke-width:1.0;"/><rect fill="#B0E0E6" height="39.1201" rx="12.5" ry="12.5" style="stroke:#181818;stroke-width:1.5;" width="90" x="179" y="298.7207"/><text fill="#000000" font-family="sans-serif" font-size="14" lengthAdjust="spacing" textLength="70" x="189" y="324.7646">配置器模式</text><text fill="#000000" font-family="sans-serif" font-size="14" lengthAdjust="spacing" textLength="67" x="59" y="324.7646">Configuror</text><path d="M179,318.2808 L169,318.2808 C154,318.2808 154,318.2808 139,318.2808 L129,318.2808 " fill="none" style="stroke:#181818;stroke-width:1.0;"/><path d="M319,287.6606 L309,287.6606 C294,287.6606 294,318.2808 279,318.2808 L269,318.2808 " fill="none" style="stroke:#181818;stroke-width:1.0;"/><rect fill="#B0E0E6" height="39.1201" rx="12.5" ry="12.5" style="stroke:#181818;stroke-width:1.5;" width="90" x="179" y="357.8408"/><text fill="#000000" font-family="sans-serif" font-size="14" lengthAdjust="spacing" textLength="70" x="189" y="383.8848">选择器模式</text><text fill="#000000" font-family="sans-serif" font-size="14" lengthAdjust="spacing" textLength="116" x="10" y="383.8848">context.annotation</text><path d="M179,377.4009 L169,377.4009 C154,377.4009 154,377.4009 139,377.4009 L129,377.4009 " fill="none" style="stroke:#181818;stroke-width:1.0;"/><path d="M319,287.6606 L309,287.6606 C294,287.6606 294,377.4009 279,377.4009 L269,377.4009 " fill="none" style="stroke:#181818;stroke-width:1.0;"/><path d="M445,228.5405 L435,228.5405 C420,228.5405 420,287.6606 405,287.6606 L395,287.6606 " fill="none" style="stroke:#181818;stroke-width:1.0;"/><path d="M640,228.5405 L630,228.5405 C615,228.5405 615,228.5405 600,228.5405 L590,228.5405 " fill="none" style="stroke:#181818;stroke-width:1.0;"/><!--MD5=[dcccf815ffff1d003f1dd6d611308089]
@startmindmap Spring Design Pattern
<style>
mindmapDiagram {
    :depth(0) {
        BackGroundColor red
    }
    node {
        BackgroundColor PowDerBlue
    }
    :depth(1) {
        BackGroundColor DarkSlateBlue
    }
    :depth(2) {
        BackGroundColor RoyalBlue
    }
}
</style>

title  Spring设计模式
+[#SlateGray] Spring设计模式
++ 传统GoF 23
- - Spring专属设计模式
- - -[#SteelBlue]  前缀模式
- - - - Enable模式
- - - - Configurable模式
- - -[#CornflowerBlue] 后缀模式
- - - - 处理模式
- - - - -_ Processor
- - - - -_ Resolver
- - - - -_ Handler
- - - - 意识模式
- - - - -_ Aware
- - - - 配置器模式
- - - - -_ Configuror
- - - - 选择器模式
- - - - -_ context.annotation

@endmindmap

PlantUML version 1.2022.7(Tue Aug 23 01:01:30 CST 2022)
(GPL source distribution)
Java Runtime: OpenJDK Runtime Environment
JVM: OpenJDK 64-Bit Server VM
Default Encoding: GBK
Language: en
Country: US
--></g></svg>