<?xml version="1.0" encoding="UTF-8" standalone="no"?><svg xmlns="http://www.w3.org/2000/svg" xmlns:xlink="http://www.w3.org/1999/xlink" contentStyleType="text/css" height="1686.4583px" preserveAspectRatio="none" style="width:648px;height:1686px;background:#00000000;" version="1.1" viewBox="0 0 648 1686" width="648.9583px" zoomAndPan="magnify"><defs><linearGradient id="g183f45y3i0nr70" x1="50%" x2="50%" y1="0%" y2="100%"><stop offset="0%" stop-color="#666666"/><stop offset="100%" stop-color="#555555"/></linearGradient></defs><g><polygon fill="url(#g183f45y3i0nr70)" points="238.5417,20.8333,238.5417,21.0523,249.0885,20.4017,259.6354,21.0347,270.1823,21.2497,280.7292,20.0902,291.276,20.7524,301.8229,20.3891,312.3698,20.4339,322.9167,20.7623,333.4635,20.1132,344.0104,21.41,354.5573,20.1768,365.1042,20.6273,375.651,21.2833,386.1979,20.744,396.7448,20.9044,407.2917,20.8333,407.2874,20.8231,407.9046,21.1347,408.502,21.3982,409.1373,21.7535,409.7379,22.0249,410.2379,22.0537,410.4558,22.144,410.5637,22.6768,410.8748,23.2938,411.1954,23.9148,410.9829,24.3149,411.4583,25,411.6939,25,411.3554,33.6072,411.6437,42.2144,411.2865,50.8215,411.4345,59.4287,411.4583,68.0359,411.6962,68.1344,411.1986,68.6187,411.004,69.2284,410.8347,69.8487,410.6155,70.4482,410.2379,70.9822,410.2374,70.9809,409.6869,71.3184,408.9834,71.2867,408.508,71.8056,407.9538,72.1343,407.2917,72.2026,407.2917,72.6656,396.7448,72.8411,386.1979,71.6993,375.651,71.5232,365.1042,71.5553,354.5573,72.1412,344.0104,71.9978,333.4635,72.9124,322.9167,72.0206,312.3698,71.8452,301.8229,72.4403,291.276,71.5079,280.7292,71.6618,270.1823,72.8785,259.6354,72.6564,249.0885,72.9676,238.5417,72.2026,238.4989,72.0993,237.9948,72.0609,237.4416,71.9038,236.7111,71.3188,236.1719,71.1955,235.5954,70.9822,235.6358,70.9989,235.5604,70.4795,235.1059,69.8031,235.0115,69.2759,234.4414,68.5516,234.375,68.0359,234.1398,68.0359,234.5499,59.4287,234.1261,50.8215,234.5517,42.2144,234.4467,33.6072,234.375,25,234.2891,24.9644,234.5056,24.3637,235.0103,23.8824,235.0112,23.1925,235.5412,22.7216,235.5954,22.0537,235.5219,21.8764,236.2667,22.0077,236.8383,21.7209,237.3957,21.4001,237.9587,21.0926,238.5417,20.8333" style="stroke:#4D4D4D;stroke-width:1.0416666666666667;"/><text fill="#FFFFFF" font-family="&quot;Segoe Print&quot;" font-size="20.8333" font-weight="bold" lengthAdjust="spacing" textLength="154.1667" x="245.8333" y="56.1666">Spring 设计模式</text><polygon fill="#708090" points="14.5833,854.7811,14.5833,855,25,854.3495,35.4167,854.9824,45.8333,855.1974,56.25,854.038,66.6667,854.7001,77.0833,854.3368,87.5,854.7811,87.449,854.6581,88.0802,855.0033,88.5866,855.0475,89.3413,855.6909,89.7733,855.5552,90.4463,856.0015,90.3828,855.9752,90.8289,856.6481,90.9069,857.1686,91.2004,857.7783,91.4123,858.3543,91.6667,858.9478,91.7287,858.9478,91.7497,866.9454,91.87,874.943,91.8997,882.9407,91.9025,890.9383,91.6667,898.936,91.7483,898.9698,91.5713,899.5868,91.4038,900.2078,90.7031,900.6079,90.908,901.3831,90.4463,901.8822,90.4069,901.7871,89.928,902.2976,89.202,902.2116,88.6694,902.5925,88.1878,903.0964,87.5,903.1026,87.5,903.0519,77.0833,903.2123,66.6667,903.4554,56.25,903.5362,45.8333,903.0986,35.4167,903.4018,25,902.5064,14.5833,903.1026,14.6211,903.1938,14.0669,903.0344,13.4639,902.7571,12.897,902.567,12.1621,901.9713,11.6371,901.8822,11.4278,901.7956,11.1936,901.2104,11.13,900.6959,10.8418,900.0884,10.8793,899.6158,10.4167,898.936,10.356,898.936,10.2976,890.9383,10.4959,882.9407,10.1851,874.943,10.2364,866.9454,10.4167,858.9478,10.6248,859.034,10.8005,858.4164,11.1404,857.8668,11.0457,857.1372,11.4954,856.6331,11.6371,856.0015,11.7155,856.1909,12.1635,855.6059,12.8028,855.4826,13.4216,855.3097,14.0807,855.2342,14.5833,854.7811" style="stroke:#FFFFFF;stroke-width:1.0416666666666667;"/><text fill="#FFFFFF" font-family="&quot;Segoe Print&quot;" font-size="12.5" lengthAdjust="spacing" textLength="50" x="26.0417" y="884.731">设计模式</text><polygon fill="#483D8B" points="147.9167,854.7811,147.9167,855,157.8704,854.3495,167.8241,854.9824,177.7778,855.1974,187.7315,854.038,197.6852,854.7001,207.6389,854.3368,217.5926,854.3816,227.5463,854.7101,237.5,854.7811,237.4081,854.5593,238.1628,855.2028,238.5948,855.0671,239.2415,855.4499,239.9144,855.896,240.4463,856.0015,240.4188,855.9901,240.7122,856.5998,240.9242,857.1757,241.2358,857.793,241.4993,858.3903,241.6667,858.9478,241.87,858.9478,241.8997,866.9454,241.9025,874.943,241.7551,882.9407,241.8276,890.9383,241.6667,898.936,241.8919,899.0293,241.1912,899.4294,241.3962,900.2046,240.8393,900.6643,240.8616,901.3639,240.4463,901.8822,240.3805,901.7234,239.8479,902.1043,239.3663,902.6083,238.672,902.5988,238.1032,902.8923,237.5,903.1026,237.5,903.4554,227.5463,903.5362,217.5926,903.0986,207.6389,903.4018,197.6852,902.5064,187.7315,903.3989,177.7778,903.6737,167.8241,903.5657,157.8704,903.7412,147.9167,903.1026,147.8525,902.9477,147.2408,902.6493,146.6556,902.4151,146.1411,902.3515,145.5335,902.0633,144.9704,901.8822,145.189,901.9728,144.6703,901.2698,144.3722,900.6581,144.3114,900.1448,143.7802,899.4366,143.75,898.936,143.5697,898.936,143.9753,890.9383,143.9013,882.9407,144.005,874.943,143.6383,866.9454,143.75,858.9478,143.8524,858.9902,144.1835,858.437,144.0866,857.7065,144.4515,857.1672,144.7667,856.6075,144.9704,856.0015,145.057,856.2106,145.5591,855.7561,146.2104,855.6617,146.6646,855.0916,147.2374,854.8079,147.9167,854.7811" style="stroke:#FFFFFF;stroke-width:1.0416666666666667;"/><text fill="#FFFFFF" font-family="&quot;Segoe Print&quot;" font-size="12.5" lengthAdjust="spacing" textLength="66.6667" x="159.375" y="884.731">传统GoF 23</text><polygon fill="#4169E1" points="297.9167,232.3873,297.9167,232.6062,308.3333,231.9557,318.75,232.5886,329.1667,232.8036,339.5833,231.6442,350,232.3063,360.4167,231.943,370.8333,232.3873,370.7824,232.2643,371.4135,232.6095,371.92,232.6537,372.6747,233.2971,373.1066,233.1614,373.7796,233.6077,373.7162,233.5814,374.1623,234.2543,374.2403,234.7748,374.5337,235.3845,374.7457,235.9605,375,236.554,375.062,236.554,375.083,244.5516,375.2034,252.5492,375.233,260.5469,375.2359,268.5445,375,276.5422,375.0817,276.576,374.9046,277.193,374.7371,277.814,374.0364,278.2141,374.2413,278.9893,373.7796,279.4884,373.7402,279.3933,373.2613,279.9038,372.5353,279.8178,372.0027,280.1987,371.5211,280.7026,370.8333,280.7088,370.8333,280.6581,360.4167,280.8185,350,281.0616,339.5833,281.1424,329.1667,280.7048,318.75,281.008,308.3333,280.1126,297.9167,280.7088,297.9545,280.8001,297.4003,280.6406,296.7972,280.3633,296.2304,280.1732,295.4955,279.5775,294.9704,279.4884,294.7612,279.4018,294.527,278.8166,294.4633,278.3021,294.1751,277.6946,294.2127,277.222,293.75,276.5422,293.6893,276.5422,293.6309,268.5445,293.8293,260.5469,293.5185,252.5492,293.5697,244.5516,293.75,236.554,293.9582,236.6402,294.1338,236.0226,294.4738,235.473,294.379,234.7434,294.8287,234.2393,294.9704,233.6077,295.0488,233.7971,295.4969,233.2121,296.1362,233.0888,296.7549,232.9159,297.414,232.8404,297.9167,232.3873" style="stroke:#FFFFFF;stroke-width:1.0416666666666667;"/><text fill="#FFFFFF" font-family="&quot;Segoe Print&quot;" font-size="12.5" lengthAdjust="spacing" textLength="50" x="309.375" y="262.3372">创建模式</text><polygon fill="#B0E0E6" points="431.25,94.0776,431.25,94.2965,441.9271,93.646,452.6042,94.2789,463.2813,94.4939,473.9583,93.3344,484.6354,93.9966,495.3125,93.6333,505.9896,93.6781,516.6667,94.0066,527.3438,93.3574,538.0208,94.6543,548.6979,93.421,559.375,93.8715,570.0521,94.5275,580.7292,93.9882,591.4063,94.1486,602.0833,94.0776,602.0791,94.0673,602.6963,94.3789,603.2936,94.6424,603.9289,94.9977,604.5295,95.2691,605.0296,95.2979,605.2475,95.3882,605.3554,95.921,605.6665,96.5381,605.9871,97.159,605.7746,97.5591,606.25,98.2442,606.4856,98.2442,606.147,106.2419,606.4354,114.2395,606.0781,122.2371,606.2262,130.2348,606.25,138.2324,606.4879,138.331,605.9903,138.8152,605.7956,139.4249,605.6264,140.0452,605.4072,140.6448,605.0296,141.1787,605.0291,141.1774,604.4785,141.5149,603.775,141.4832,603.2996,142.0022,602.7454,142.3309,602.0833,142.3991,602.0833,142.8621,591.4063,143.0377,580.7292,141.8959,570.0521,141.7197,559.375,141.7518,548.6979,142.3378,538.0208,142.1944,527.3438,143.1089,516.6667,142.2171,505.9896,142.0417,495.3125,142.6369,484.6354,141.7045,473.9583,141.8583,463.2813,143.0751,452.6042,142.8529,441.9271,143.1642,431.25,142.3991,431.2072,142.2959,430.7032,142.2574,430.1499,142.1003,429.4195,141.5153,428.8802,141.392,428.3037,141.1787,428.3441,141.1954,428.2687,140.676,427.8142,139.9996,427.7199,139.4724,427.1498,138.7481,427.0833,138.2324,426.8482,138.2324,427.2582,130.2348,426.8344,122.2371,427.2601,114.2395,427.1551,106.2419,427.0833,98.2442,426.9974,98.2086,427.2139,97.608,427.7187,97.1267,427.7195,96.4367,428.2495,95.9658,428.3037,95.2979,428.2303,95.1206,428.975,95.2519,429.5466,94.9651,430.104,94.6443,430.667,94.3368,431.25,94.0776" style="stroke:#FFFFFF;stroke-width:1.0416666666666667;"/><text fill="#FFFFFF" font-family="&quot;Segoe Print&quot;" font-size="12.5" lengthAdjust="spacing" textLength="147.9167" x="442.7083" y="124.0275">抽象工厂(Abstract Factory)</text><path d="M375,256.5481 L375,256.7427 L377.0833,256.1644 L379.1667,256.727 L381.25,256.9181 L383.3333,255.8875 L385.4167,256.5481 L385.4167,256.5481 L385.3896,256.5244 L386.3055,255.2296 L387.3581,254.0541 L388.5057,252.9615 L389.3259,251.5832 L390.6047,250.6051 L390.8527,250.6698 L391.1402,247.3978 L392.1518,244.3148 L393.2518,241.2548 L393.8377,238.0607 L394.694,234.9372 L394.7252,234.9424 L395.0288,232.8412 L395.4744,230.7637 L395.8515,228.6747 L396.3592,226.6076 L396.4411,224.4694 L396.7489,224.5118 L397.0746,222.1756 L397.2018,219.8121 L397.6196,217.4886 L398.051,215.167 L398.0509,212.786 L397.7194,212.7469 L398.9611,207.7442 L399.1109,202.6128 L400.0908,197.5792 L400.2159,192.4449 L401.0417,187.3932 L401.0102,187.3895 L401.9808,182.3548 L402.2155,177.2334 L402.8845,172.1632 L403.5899,167.0973 L404.0324,162.0004 L404.2233,162.0267 L404.3526,159.6635 L404.808,157.3452 L404.7357,154.9542 L405.4507,152.6716 L405.6422,150.317 L405.8925,150.3588 L406.1946,148.2573 L406.621,146.1766 L406.4699,143.9995 L406.7421,141.8931 L407.3893,139.8492 L407.111,139.7766 L408.1808,136.7088 L408.937,133.5591 L410.1482,130.5281 L410.5826,127.2945 L411.4787,124.1813 L411.359,124.0769 L412.5959,123.0622 L413.3213,121.6011 L414.4104,120.4575 L415.8554,119.6245 L416.6667,118.2383 L416.6667,118.6417 L418.75,118.9184 L420.8333,117.9404 L422.9167,118.5339 L425,118.785 L427.0833,118.2383 " fill="none" style="stroke:#333333;stroke-width:3.125;"/><polygon fill="#B0E0E6" points="431.25,163.2324,431.25,163.4514,441.1932,162.8008,451.1364,163.4338,461.0795,163.6488,471.0227,162.4893,480.9659,163.1515,490.9091,162.7882,500.8523,162.8329,510.7955,163.1614,520.7386,162.5122,530.6818,163.8091,540.625,163.2324,540.5413,163.0302,541.188,163.4131,541.8609,163.8591,542.3814,163.9371,542.9911,164.2306,543.5713,164.4528,543.561,164.4486,543.8726,165.0658,544.1361,165.6631,544.4914,166.2984,544.7629,166.899,544.7917,167.3991,545.0275,167.3991,544.8801,175.3967,544.9526,183.3944,545.0355,191.392,544.5413,199.3896,544.7917,207.3873,545.0093,207.4774,544.4525,207.9371,544.4748,208.6367,543.9006,209.0893,543.7934,209.7352,543.5713,210.3336,543.6698,210.5715,542.9755,210.562,542.4068,210.8555,541.8485,211.1744,541.2696,211.4434,540.625,211.554,540.625,211.5499,530.6818,211.8531,520.7386,210.9577,510.7955,211.8502,500.8523,212.125,490.9091,212.017,480.9659,212.1925,471.0227,211.0507,461.0795,210.8746,451.1364,210.9067,441.1932,211.4926,431.25,211.554,431.2239,211.4909,430.7513,211.5285,430.0483,211.0098,429.4366,210.7117,428.9233,210.6509,428.3037,210.3336,428.0898,210.245,427.8931,209.6753,428.0237,209.2413,427.7112,208.6237,427.563,208.0741,427.0833,207.3873,426.9716,207.3873,427.1942,199.3896,427.2883,191.392,426.9193,183.3944,427.05,175.3967,427.0833,167.3991,427.1237,167.4158,427.5365,166.8964,427.5701,166.22,427.964,165.6928,427.882,164.9685,428.3037,164.4528,428.2137,164.2356,428.9599,164.3703,429.387,163.7347,430.1391,163.8838,430.6882,163.5428,431.25,163.2324" style="stroke:#FFFFFF;stroke-width:1.0416666666666667;"/><text fill="#FFFFFF" font-family="&quot;Segoe Print&quot;" font-size="12.5" lengthAdjust="spacing" textLength="86.4583" x="442.7083" y="193.1824">构建器(Builder)</text><path d="M375,256.5481 L375,256.7427 L377.0833,256.1644 L379.1667,256.727 L381.25,256.9181 L383.3333,255.8875 L385.4167,256.5481 L385.4167,256.5481 L385.3894,256.5246 L387.1223,254.2583 L388.9929,252.1102 L390.9591,250.0442 L392.5957,247.6952 L394.694,245.7426 L394.9393,245.817 L395.0861,243.4429 L395.9492,241.2858 L396.8995,239.1553 L397.3416,236.8706 L398.0509,234.667 L398.0817,234.6743 L398.6347,232.1244 L399.3277,229.6074 L399.9531,227.0746 L400.7075,224.5721 L401.0417,221.9706 L401.3441,222.0419 L401.9459,219.5034 L402.3527,216.9191 L403.045,214.402 L403.7507,211.888 L404.0324,209.2742 L403.7129,209.1774 L405.0044,207.1502 L405.2438,204.8042 L406.2831,202.7006 L406.4986,200.3473 L407.3893,198.1986 L407.3653,198.178 L409.5053,196.2612 L411.0831,193.8618 L412.9927,191.7471 L414.9301,189.6564 L416.6667,187.3932 L416.6667,187.7786 L418.75,187.3896 L420.8333,187.6591 L422.9167,186.8632 L425,187.6565 L427.0833,187.3932 " fill="none" style="stroke:#333333;stroke-width:3.125;"/><polygon fill="#B0E0E6" points="431.25,232.3873,431.25,232.6062,441.6667,231.9557,452.0833,232.5886,462.5,232.8036,472.9167,231.6442,483.3333,232.3063,493.75,231.943,504.1667,231.9878,514.5833,232.3163,525,231.6671,535.4167,232.964,545.8333,231.7307,556.25,232.1813,566.6667,232.8372,577.0833,232.2979,587.5,232.4584,597.9167,232.3873,597.9124,232.377,598.5296,232.6886,599.127,232.9522,599.7623,233.3074,600.3629,233.5789,600.8629,233.6077,601.0808,233.6979,601.1887,234.2308,601.4998,234.8478,601.8204,235.4688,601.6079,235.8689,602.0833,236.554,602.3189,236.554,601.9804,244.5516,602.2687,252.5492,601.9115,260.5469,602.0595,268.5445,602.0833,276.5422,602.3212,276.6407,601.8236,277.1249,601.629,277.7347,601.4597,278.3549,601.2405,278.9545,600.8629,279.4884,600.8624,279.4872,600.3119,279.8246,599.6084,279.793,599.133,280.3119,598.5788,280.6406,597.9167,280.7088,597.9167,281.1719,587.5,281.3474,577.0833,280.2056,566.6667,280.0295,556.25,280.0615,545.8333,280.6475,535.4167,280.5041,525,281.4186,514.5833,280.5269,504.1667,280.3515,493.75,280.9466,483.3333,280.0142,472.9167,280.1681,462.5,281.3848,452.0833,281.1626,441.6667,281.4739,431.25,280.7088,431.2072,280.6056,430.7032,280.5671,430.1499,280.4101,429.4195,279.825,428.8802,279.7018,428.3037,279.4884,428.3441,279.5052,428.2687,278.9858,427.8142,278.3094,427.7199,277.7821,427.1498,277.0578,427.0833,276.5422,426.8482,276.5422,427.2582,268.5445,426.8344,260.5469,427.2601,252.5492,427.1551,244.5516,427.0833,236.554,426.9974,236.5184,427.2139,235.9177,427.7187,235.4364,427.7195,234.7464,428.2495,234.2756,428.3037,233.6077,428.2303,233.4304,428.975,233.5617,429.5466,233.2749,430.104,232.954,430.667,232.6465,431.25,232.3873" style="stroke:#FFFFFF;stroke-width:1.0416666666666667;"/><text fill="#FFFFFF" font-family="&quot;Segoe Print&quot;" font-size="12.5" lengthAdjust="spacing" textLength="143.75" x="442.7083" y="262.3372">工厂方法(Factory Method)</text><path d="M375,256.5481 L375,256.7427 L377.0833,256.1644 L379.1667,256.727 L381.25,256.9181 L383.3333,255.8875 L385.4167,256.5481 L385.4167,256.5481 L385.4167,256.5121 L391.6667,256.3506 L397.9167,256.3705 L404.1667,256.5165 L410.4167,256.228 L416.6667,256.5481 L416.6667,257.0607 L418.75,255.9645 L420.8333,256.3649 L422.9167,256.948 L425,256.4686 L427.0833,256.5481 " fill="none" style="stroke:#333333;stroke-width:3.125;"/><polygon fill="#B0E0E6" points="431.25,301.5422,431.25,301.7611,441.1932,301.1106,451.1364,301.7435,461.0795,301.9585,471.0227,300.799,480.9659,301.4612,490.9091,301.0979,500.8523,301.1427,510.7955,301.4712,520.7386,300.822,530.6818,302.1189,540.625,301.5422,540.5413,301.34,541.188,301.7228,541.8609,302.1689,542.3814,302.2469,542.9911,302.5404,543.5713,302.7625,543.561,302.7583,543.8726,303.3755,544.1361,303.9728,544.4914,304.6081,544.7629,305.2087,544.7917,305.7088,545.0275,305.7088,544.8801,313.7065,544.9526,321.7041,545.0355,329.7017,544.5413,337.6994,544.7917,345.697,545.0093,345.7872,544.4525,346.2469,544.4748,346.9465,543.9006,347.399,543.7934,348.0449,543.5713,348.6433,543.6698,348.8812,542.9755,348.8717,542.4068,349.1652,541.8485,349.4842,541.2696,349.7531,540.625,349.8637,540.625,349.8596,530.6818,350.1629,520.7386,349.2674,510.7955,350.1599,500.8523,350.4347,490.9091,350.3267,480.9659,350.5023,471.0227,349.3605,461.0795,349.1843,451.1364,349.2164,441.1932,349.8024,431.25,349.8637,431.2239,349.8006,430.7513,349.8382,430.0483,349.3195,429.4366,349.0214,428.9233,348.9606,428.3037,348.6433,428.0898,348.5547,427.8931,347.9851,428.0237,347.551,427.7112,346.9334,427.563,346.3839,427.0833,345.697,426.9716,345.697,427.1942,337.6994,427.2883,329.7017,426.9193,321.7041,427.05,313.7065,427.0833,305.7088,427.1237,305.7256,427.5365,305.2062,427.5701,304.5298,427.964,304.0025,427.882,303.2782,428.3037,302.7625,428.2137,302.5453,428.9599,302.68,429.387,302.0444,430.1391,302.1936,430.6882,301.8525,431.25,301.5422" style="stroke:#FFFFFF;stroke-width:1.0416666666666667;"/><text fill="#FFFFFF" font-family="&quot;Segoe Print&quot;" font-size="12.5" lengthAdjust="spacing" textLength="86.4583" x="442.7083" y="331.4921">原型(Prototype)</text><path d="M375,256.5481 L375,256.7427 L377.0833,256.1644 L379.1667,256.727 L381.25,256.9181 L383.3333,255.8875 L385.4167,256.5481 L385.4167,256.5481 L385.3894,256.5246 L387.1223,258.5805 L388.9929,260.7546 L390.9591,263.0108 L392.5957,264.9839 L394.694,267.3535 L394.9393,267.4279 L395.0861,269.484 L395.9492,271.7572 L396.8995,274.0569 L397.3416,276.2025 L398.0509,278.4291 L398.0817,278.4363 L398.6347,280.965 L399.3277,283.5266 L399.9531,286.0723 L400.7075,288.6484 L401.0417,291.1255 L401.3441,291.1967 L401.9459,293.7369 L402.3527,296.2311 L403.045,298.7925 L403.7507,301.3572 L404.0324,303.8219 L403.7129,303.725 L405.0044,306.1281 L405.2438,308.2123 L406.2831,310.5389 L406.4986,312.6159 L407.3893,314.8975 L407.3653,314.8768 L409.5053,317.2822 L411.0831,319.205 L412.9927,321.4125 L414.9301,323.644 L416.6667,325.7029 L416.6667,326.0883 L418.75,325.6993 L420.8333,325.9689 L422.9167,325.1729 L425,325.9662 L427.0833,325.7029 " fill="none" style="stroke:#333333;stroke-width:3.125;"/><polygon fill="#B0E0E6" points="431.25,370.697,431.25,370.916,441.2879,370.2654,451.3258,370.8984,461.3636,371.1134,471.4015,369.9539,481.4394,370.6161,491.4773,370.2528,501.5152,370.2975,511.553,370.626,521.5909,369.9768,531.6288,371.2737,541.6667,370.697,541.5829,370.4948,542.2296,370.8777,542.9026,371.3237,543.423,371.4017,544.0328,371.6952,544.6129,371.9174,544.6027,371.9132,544.9143,372.5304,545.1778,373.1277,545.5331,373.763,545.8045,374.3636,545.8333,374.8637,546.0692,374.8637,545.9217,382.8613,545.9943,390.859,546.0772,398.8566,545.5829,406.8542,545.8333,414.8519,546.051,414.942,545.4941,415.4017,545.5164,416.1013,544.9423,416.5539,544.835,417.1998,544.6129,417.7982,544.7115,418.0361,544.0172,418.0266,543.4484,418.3201,542.8902,418.639,542.3112,418.908,541.6667,419.0186,541.6667,419.0145,531.6288,419.3177,521.5909,418.4223,511.553,419.3148,501.5152,419.5896,491.4773,419.4816,481.4394,419.6571,471.4015,418.5153,461.3636,418.3392,451.3258,418.3713,441.2879,418.9572,431.25,419.0186,431.2239,418.9555,430.7513,418.9931,430.0483,418.4744,429.4366,418.1763,428.9233,418.1155,428.3037,417.7982,428.0898,417.7096,427.8931,417.1399,428.0237,416.7059,427.7112,416.0883,427.563,415.5387,427.0833,414.8519,426.9716,414.8519,427.1942,406.8542,427.2883,398.8566,426.9193,390.859,427.05,382.8613,427.0833,374.8637,427.1237,374.8804,427.5365,374.361,427.5701,373.6846,427.964,373.1574,427.882,372.4331,428.3037,371.9174,428.2137,371.7002,428.9599,371.8349,429.387,371.1993,430.1391,371.3484,430.6882,371.0074,431.25,370.697" style="stroke:#FFFFFF;stroke-width:1.0416666666666667;"/><text fill="#FFFFFF" font-family="&quot;Segoe Print&quot;" font-size="12.5" lengthAdjust="spacing" textLength="87.5" x="442.7083" y="400.647">单体(Singleton)</text><path d="M375,256.5481 L375,256.7427 L377.0833,256.1644 L379.1667,256.727 L381.25,256.9181 L383.3333,255.8875 L385.4167,256.5481 L385.4167,256.5481 L385.3896,256.5244 L386.3055,257.6068 L387.3581,258.8085 L388.5057,260.0931 L389.3259,261.092 L390.6047,262.4911 L390.8527,262.5558 L391.1402,265.5509 L392.1518,268.7351 L393.2518,271.9423 L393.8377,275.0153 L394.694,278.159 L394.7252,278.1642 L395.0288,280.2501 L395.4744,282.3597 L395.8515,284.4578 L396.3592,286.5778 L396.4411,288.6267 L396.7489,288.6691 L397.0746,291.0063 L397.2018,293.3162 L397.6196,295.6661 L398.051,298.0178 L398.0509,300.3101 L397.7194,300.2711 L398.9611,305.4254 L399.1109,310.4512 L400.0908,315.5747 L400.2159,320.5976 L401.0417,325.7029 L401.0102,325.6992 L401.9808,330.8216 L402.2155,335.8574 L402.8845,340.9443 L403.5899,346.0355 L404.0324,351.0957 L404.2233,351.122 L404.3526,353.4322 L404.808,355.7872 L404.7357,358.0696 L405.4507,360.4604 L405.6422,362.7791 L405.8925,362.8209 L406.1946,364.9066 L406.621,367.0129 L406.4699,369.023 L406.7421,371.1036 L407.3893,373.2469 L407.111,373.1742 L408.1808,376.3736 L408.937,379.4911 L410.1482,382.7273 L410.5826,385.7608 L411.4787,388.9148 L411.359,388.8103 L412.5959,390.1729 L413.3213,391.089 L414.4104,392.3225 L415.8554,393.8668 L416.6667,394.8578 L416.6667,395.2612 L418.75,395.5379 L420.8333,394.5598 L422.9167,395.1533 L425,395.4045 L427.0833,394.8578 " fill="none" style="stroke:#333333;stroke-width:3.125;"/><path d="M241.6667,878.9419 L241.6667,879.1365 L243.75,878.5582 L245.8333,879.1208 L247.9167,879.3119 L250,878.2813 L252.0833,878.9419 L252.0833,878.9419 L252.0499,878.9287 L252.4505,877.4715 L253.0198,876.0809 L253.7065,874.7364 L253.9889,873.2327 L254.8375,871.9521 L255.0919,871.9834 L255.0347,867.9657 L255.7202,864.0394 L256.4963,860.1243 L256.7452,856.1443 L257.2713,852.1984 L257.3028,852.2009 L257.4788,849.3785 L257.7981,846.5675 L258.0483,843.751 L258.4305,840.9449 L258.3824,838.1049 L258.6924,838.1244 L258.9058,834.8045 L258.9192,831.472 L259.2254,828.158 L259.5453,824.8448 L259.4304,821.5041 L259.097,821.4866 L259.9423,817.7446 L259.6897,813.945 L260.2718,810.1891 L259.9943,806.3881 L260.4213,802.6242 L260.3896,802.6227 L260.9522,798.4533 L260.7745,794.2506 L261.0336,790.0675 L261.3294,785.8861 L261.3607,781.6928 L261.9384,781.7142 L261.7047,772.2716 L262.4582,762.8656 L261.6145,753.4004 L263.1531,744.0235 L263.1078,734.5878 L263.8688,734.6111 L264.0469,724.0917 L264.6028,713.5838 L263.4031,703.0221 L263.4903,692.4999 L264.7176,682.0126 L263.8549,681.99 L264.9077,671.6225 L264.9885,661.2295 L266.4793,650.8734 L265.5626,640.4544 L265.6007,630.0603 L266.6658,619.6931 L265.6949,609.2726 L266.1719,598.89 L268.0656,588.5445 L268.0413,578.1488 L267.7083,567.745 L268.7281,567.7716 L267.5334,557.3453 L268.6953,546.9806 L269.3437,536.6025 L268.14,526.1759 L268.9347,515.8016 L269.5146,505.4217 L270.5164,495.0529 L269.8776,484.6411 L270.7975,474.2701 L269.6583,463.8452 L270.6991,453.4773 L269.7589,453.4486 L271.7202,442.9837 L270.3477,432.4168 L272.3715,421.9538 L272.2737,411.4259 L272.3089,400.9021 L271.937,400.8883 L272.1673,391.4629 L273.6444,382.0837 L272.9417,372.6237 L274.528,363.2486 L274.056,353.7971 L273.8003,353.7856 L274.5294,349.6236 L274.6557,345.4346 L274.7329,341.2434 L274.8293,337.053 L274.9954,332.8658 L275.3313,332.8834 L275.4772,329.1046 L275.47,325.3179 L275.7139,321.5443 L275.7278,317.7586 L275.9862,313.9858 L276.3173,314.0067 L276.2674,310.6701 L276.4852,307.3505 L276.334,304.0076 L276.6375,300.6934 L277.0343,297.3851 L277.2793,297.4044 L277.4549,294.582 L277.4589,291.7461 L277.5522,288.9172 L277.8221,286.1023 L278.1453,283.2915 L277.8301,283.2527 L278.8227,279.3643 L279.4587,275.4319 L279.8475,271.4691 L280.4117,267.5279 L280.5791,263.5378 L280.5202,263.5146 L281.1675,262.1547 L281.5139,260.6761 L282.354,259.3922 L282.8888,257.9879 L283.3333,256.5481 L283.3333,257.0595 L285.4167,256.3354 L287.5,256.4236 L289.5833,256.9587 L291.6667,257.0734 L293.75,256.5481 " fill="none" style="stroke:#333333;stroke-width:3.125;"/><polygon fill="#6495ED" points="297.9167,647.3165,297.9167,647.5354,308.3333,646.8849,318.75,647.5178,329.1667,647.7328,339.5833,646.5734,350,647.2355,360.4167,646.8722,370.8333,647.3165,370.7824,647.1935,371.4135,647.5387,371.92,647.5829,372.6747,648.2263,373.1066,648.0906,373.7796,648.5369,373.7162,648.5106,374.1623,649.1835,374.2403,649.704,374.5337,650.3137,374.7457,650.8897,375,651.4832,375.062,651.4832,375.083,659.4808,375.2034,667.4784,375.233,675.4761,375.2359,683.4737,375,691.4714,375.0817,691.5052,374.9046,692.1222,374.7371,692.7432,374.0364,693.1433,374.2413,693.9185,373.7796,694.4176,373.7402,694.3225,373.2613,694.833,372.5353,694.747,372.0027,695.1279,371.5211,695.6318,370.8333,695.638,370.8333,695.5873,360.4167,695.7477,350,695.9908,339.5833,696.0716,329.1667,695.634,318.75,695.9372,308.3333,695.0418,297.9167,695.638,297.9545,695.7292,297.4003,695.5698,296.7972,695.2925,296.2304,695.1024,295.4955,694.5067,294.9704,694.4176,294.7612,694.331,294.527,693.7458,294.4633,693.2313,294.1751,692.6238,294.2127,692.1512,293.75,691.4714,293.6893,691.4714,293.6309,683.4737,293.8293,675.4761,293.5185,667.4784,293.5697,659.4808,293.75,651.4832,293.9582,651.5694,294.1338,650.9518,294.4738,650.4022,294.379,649.6726,294.8287,649.1685,294.9704,648.5369,295.0488,648.7263,295.4969,648.1413,296.1362,648.018,296.7549,647.8451,297.414,647.7696,297.9167,647.3165" style="stroke:#FFFFFF;stroke-width:1.0416666666666667;"/><text fill="#FFFFFF" font-family="&quot;Segoe Print&quot;" font-size="12.5" lengthAdjust="spacing" textLength="50" x="309.375" y="677.2664">结构模式</text><polygon fill="#B0E0E6" points="431.25,439.8519,431.25,440.0708,441.4773,439.4203,451.7045,440.0532,461.9318,440.2682,472.1591,439.1088,482.3864,439.7709,492.6136,439.4076,502.8409,439.4524,513.0682,439.7809,523.2955,439.1317,533.5227,440.4286,543.75,439.8519,543.6663,439.6497,544.313,440.0325,544.9859,440.4786,545.5064,440.5566,546.1161,440.8501,546.6963,441.0723,546.686,441.068,546.9976,441.6853,547.2611,442.2826,547.6164,442.9179,547.8879,443.5185,547.9167,444.0186,548.1525,444.0186,548.0051,452.0162,548.0776,460.0138,548.1605,468.0115,547.6663,476.0091,547.9167,484.0068,548.1343,484.0969,547.5775,484.5566,547.5998,485.2562,547.0256,485.7087,546.9184,486.3547,546.6963,486.953,546.7948,487.1909,546.1005,487.1815,545.5318,487.475,544.9735,487.7939,544.3946,488.0629,543.75,488.1734,543.75,488.1694,533.5227,488.4726,523.2955,487.5772,513.0682,488.4697,502.8409,488.7445,492.6136,488.6365,482.3864,488.812,472.1591,487.6702,461.9318,487.4941,451.7045,487.5261,441.4773,488.1121,431.25,488.1734,431.2239,488.1104,430.7513,488.1479,430.0483,487.6292,429.4366,487.3311,428.9233,487.2703,428.3037,486.953,428.0898,486.8644,427.8931,486.2948,428.0237,485.8608,427.7112,485.2432,427.563,484.6936,427.0833,484.0068,426.9716,484.0068,427.1942,476.0091,427.2883,468.0115,426.9193,460.0138,427.05,452.0162,427.0833,444.0186,427.1237,444.0353,427.5365,443.5159,427.5701,442.8395,427.964,442.3123,427.882,441.5879,428.3037,441.0723,428.2137,440.855,428.9599,440.9898,429.387,440.3541,430.1391,440.5033,430.6882,440.1623,431.25,439.8519" style="stroke:#FFFFFF;stroke-width:1.0416666666666667;"/><text fill="#FFFFFF" font-family="&quot;Segoe Print&quot;" font-size="12.5" lengthAdjust="spacing" textLength="89.5833" x="442.7083" y="469.8018">适配器(Adapter)</text><path d="M375,671.4773 L375,671.6719 L377.0833,671.0936 L379.1667,671.6562 L381.25,671.8473 L383.3333,670.8167 L385.4167,671.4773 L385.4167,671.4773 L385.3856,671.4592 L386.2836,669.595 L387.3384,667.8222 L388.5022,666.1127 L389.2904,664.1847 L390.6047,662.5628 L390.8554,662.6157 L390.751,660.4562 L391.3787,658.4513 L392.0958,656.4652 L392.2931,654.3694 L392.7638,652.3314 L392.795,652.3359 L393.1352,649.6751 L393.6177,647.0351 L394.0315,644.385 L394.5763,641.754 L394.694,639.0609 L395.0028,639.0953 L395.356,635.9554 L395.51,632.7933 L395.9556,629.6636 L396.4148,626.5355 L396.4411,623.3592 L396.1087,623.3287 L397.0759,619.883 L396.9484,616.3367 L397.6531,612.8668 L397.5008,609.3182 L398.0509,605.8342 L398.0193,605.8317 L398.9914,598.2432 L399.2247,590.5967 L399.894,582.9845 L400.5998,575.3751 L401.0417,567.745 L401.2338,567.76 L401.638,560.127 L402.3705,552.5197 L402.5719,544.8707 L403.5655,537.2839 L404.0324,529.6558 L404.2851,529.679 L404.5593,526.1696 L404.9589,522.6717 L404.7756,519.1202 L405.0196,515.6081 L405.6422,512.1307 L405.3563,512.0989 L405.9645,508.9873 L406.2506,505.8399 L407.004,502.7446 L406.9595,499.5604 L407.3893,496.429 L407.2322,496.4061 L407.8799,493.7901 L407.8559,491.0764 L408.3096,488.4321 L409.2308,485.8559 L409.3196,483.1586 L409.5169,483.2002 L410.0841,481.1825 L410.0374,479.0352 L410.7596,477.0502 L411.3143,475.0299 L411.4787,472.9271 L411.2897,472.8171 L412.4779,471.1219 L413.6043,469.3907 L414.8523,467.7302 L415.6274,465.7946 L416.6667,464.0127 L416.6667,464.441 L418.75,463.4999 L420.8333,463.3856 L422.9167,464.479 L425,463.3488 L427.0833,464.0127 " fill="none" style="stroke:#333333;stroke-width:3.125;"/><polygon fill="#B0E0E6" points="431.25,509.0068,431.25,509.2257,441.6667,508.5752,452.0833,509.2081,462.5,509.4231,472.9167,508.2636,483.3333,508.9258,493.75,508.5625,504.1667,508.6073,514.5833,508.9358,525,509.0068,524.9081,508.785,525.6628,509.4284,526.0948,509.2927,526.7415,509.6755,527.4144,510.1216,527.9463,510.2271,527.9188,510.2157,528.2122,510.8255,528.4242,511.4014,528.7358,512.0186,528.9993,512.6159,529.1667,513.1734,529.37,513.1734,529.3997,521.1711,529.4025,529.1687,529.2551,537.1663,529.3276,545.164,529.1667,553.1616,529.3919,553.2549,528.6912,553.655,528.8962,554.4303,528.3393,554.89,528.3616,555.5896,527.9463,556.1079,527.8805,555.9491,527.3479,556.33,526.8663,556.834,526.172,556.8245,525.6032,557.118,525,557.3283,525,557.681,514.5833,557.7619,504.1667,557.3242,493.75,557.6275,483.3333,556.732,472.9167,557.6245,462.5,557.8993,452.0833,557.7913,441.6667,557.9669,431.25,557.3283,431.1858,557.1733,430.5741,556.875,429.9889,556.6408,429.4744,556.5772,428.8669,556.2889,428.3037,556.1079,428.5223,556.1984,428.0036,555.4954,427.7055,554.8838,427.6447,554.3705,427.1135,553.6623,427.0833,553.1616,426.9031,553.1616,427.3087,545.164,427.2346,537.1663,427.3384,529.1687,426.9716,521.1711,427.0833,513.1734,427.1857,513.2158,427.5168,512.6626,427.4199,511.9321,427.7848,511.3929,428.1001,510.8331,428.3037,510.2271,428.3903,510.4362,428.8924,509.9817,429.5437,509.8874,429.9979,509.3173,430.5708,509.0336,431.25,509.0068" style="stroke:#FFFFFF;stroke-width:1.0416666666666667;"/><text fill="#FFFFFF" font-family="&quot;Segoe Print&quot;" font-size="12.5" lengthAdjust="spacing" textLength="70.8333" x="442.7083" y="538.9567">桥接(Bridge)</text><path d="M375,671.4773 L375,671.6719 L377.0833,671.0936 L379.1667,671.6562 L381.25,671.8473 L383.3333,670.8167 L385.4167,671.4773 L385.4167,671.4773 L385.3896,671.4536 L386.3055,670.1588 L387.3581,668.9833 L388.5057,667.8907 L389.3259,666.5124 L390.6047,665.5343 L390.8527,665.599 L391.1402,662.327 L392.1518,659.244 L393.2518,656.184 L393.8377,652.9899 L394.694,649.8664 L394.7252,649.8716 L395.0288,647.7704 L395.4744,645.6929 L395.8515,643.6039 L396.3592,641.5368 L396.4411,639.3986 L396.7489,639.441 L397.0746,637.1048 L397.2018,634.7413 L397.6196,632.4178 L398.051,630.0962 L398.0509,627.7152 L397.7194,627.6761 L398.9611,622.6734 L399.1109,617.542 L400.0908,612.5084 L400.2159,607.3741 L401.0417,602.3224 L401.0102,602.3187 L401.9808,597.284 L402.2155,592.1626 L402.8845,587.0924 L403.5899,582.0265 L404.0324,576.9296 L404.2233,576.9559 L404.3526,574.5927 L404.808,572.2744 L404.7357,569.8834 L405.4507,567.6008 L405.6422,565.2462 L405.8925,565.288 L406.1946,563.1865 L406.621,561.1058 L406.4699,558.9287 L406.7421,556.8223 L407.3893,554.7784 L407.111,554.7058 L408.1808,551.638 L408.937,548.4883 L410.1482,545.4573 L410.5826,542.2237 L411.4787,539.1105 L411.359,539.0061 L412.5959,537.9914 L413.3213,536.5303 L414.4104,535.3867 L415.8554,534.5537 L416.6667,533.1675 L416.6667,533.5709 L418.75,533.8476 L420.8333,532.8696 L422.9167,533.4631 L425,533.7142 L427.0833,533.1675 " fill="none" style="stroke:#333333;stroke-width:3.125;"/><polygon fill="#B0E0E6" points="431.25,578.1616,431.25,578.3806,441.2326,577.73,451.2153,578.363,461.1979,578.578,471.1806,577.4185,481.1632,578.0807,491.1458,577.7174,501.1285,577.7621,511.1111,578.0906,521.0938,577.4414,531.0764,578.7383,541.059,577.5051,551.0417,578.1616,551.0154,578.0982,551.6883,578.5443,552.2088,578.6223,552.8185,578.9157,553.3944,579.1277,553.9879,579.382,554.0452,579.4057,554.3087,580.003,554.664,580.6383,554.9354,581.2389,555.1822,581.8293,555.2083,582.3283,555.2967,582.3283,555.3693,590.3259,555.4522,598.3236,554.9579,606.3212,555.4439,614.3188,555.2083,622.3165,555.1132,622.2771,555.1355,622.9767,554.5614,623.4292,554.4541,624.0752,554.4699,624.7721,553.9879,625.2628,553.9815,625.2471,553.4127,625.5406,552.8544,625.8596,552.2755,626.1285,551.6304,626.2378,551.0417,626.4832,551.0417,626.7823,541.059,625.8869,531.0764,626.7794,521.0938,627.0542,511.1111,626.9462,501.1285,627.1217,491.1458,625.9799,481.1632,625.8038,471.1806,625.8359,461.1979,626.4218,451.2153,626.2784,441.2326,627.193,431.25,626.4832,431.2268,626.4271,430.6152,626.129,430.1018,626.0682,429.3936,625.537,428.824,625.3403,428.3037,625.2628,428.5119,625.349,428.1994,624.7314,428.0512,624.1819,427.4683,623.4522,427.4298,622.9482,427.0833,622.3165,427.2883,622.3165,426.9193,614.3188,427.05,606.3212,427.1271,598.3236,427.3096,590.3259,427.0833,582.3283,427.082,582.3277,427.4758,581.8005,427.3938,581.0762,427.5983,580.4705,428.2212,580.0382,428.3037,579.382,428.2085,579.152,428.9606,579.3012,429.5097,578.9601,430.0359,578.5638,430.6137,578.2922,431.25,578.1616" style="stroke:#FFFFFF;stroke-width:1.0416666666666667;"/><text fill="#FFFFFF" font-family="&quot;Segoe Print&quot;" font-size="12.5" lengthAdjust="spacing" textLength="96.875" x="442.7083" y="608.1116">组合(Composite)</text><path d="M375,671.4773 L375,671.6719 L377.0833,671.0936 L379.1667,671.6562 L381.25,671.8473 L383.3333,670.8167 L385.4167,671.4773 L385.4167,671.4773 L385.3894,671.4538 L387.1223,669.1875 L388.9929,667.0394 L390.9591,664.9734 L392.5957,662.6244 L394.694,660.6718 L394.9393,660.7462 L395.0861,658.3721 L395.9492,656.215 L396.8995,654.0845 L397.3416,651.7998 L398.0509,649.5962 L398.0817,649.6035 L398.6347,647.0536 L399.3277,644.5366 L399.9531,642.0038 L400.7075,639.5013 L401.0417,636.8998 L401.3441,636.9711 L401.9459,634.4326 L402.3527,631.8483 L403.045,629.3312 L403.7507,626.8172 L404.0324,624.2034 L403.7129,624.1066 L405.0044,622.0794 L405.2438,619.7334 L406.2831,617.6298 L406.4986,615.2765 L407.3893,613.1278 L407.3653,613.1072 L409.5053,611.1904 L411.0831,608.791 L412.9927,606.6763 L414.9301,604.5856 L416.6667,602.3224 L416.6667,602.7078 L418.75,602.3188 L420.8333,602.5883 L422.9167,601.7924 L425,602.5857 L427.0833,602.3224 " fill="none" style="stroke:#333333;stroke-width:3.125;"/><polygon fill="#B0E0E6" points="431.25,647.3165,431.25,647.5354,441.6667,646.8849,452.0833,647.5178,462.5,647.7328,472.9167,646.5734,483.3333,647.2355,493.75,646.8722,504.1667,646.917,514.5833,647.2455,525,646.5963,535.4167,647.8932,545.8333,646.6599,556.25,647.3165,556.2237,647.253,556.8967,647.6991,557.4171,647.7771,558.0268,648.0706,558.6028,648.2825,559.1963,648.5369,559.2535,648.5606,559.5171,649.1579,559.8723,649.7932,560.1438,650.3938,560.3905,650.9842,560.4167,651.4832,560.5051,651.4832,560.5776,659.4808,560.6605,667.4784,560.1663,675.4761,560.6523,683.4737,560.4167,691.4714,560.3216,691.432,560.3438,692.1315,559.7697,692.5841,559.6625,693.23,559.6783,693.9269,559.1963,694.4176,559.1898,694.402,558.621,694.6955,558.0628,695.0144,557.4838,695.2834,556.8387,695.3927,556.25,695.638,556.25,695.9372,545.8333,695.0418,535.4167,695.9343,525,696.2091,514.5833,696.1011,504.1667,696.2766,493.75,695.1348,483.3333,694.9587,472.9167,694.9907,462.5,695.5767,452.0833,695.4333,441.6667,696.3478,431.25,695.638,431.2268,695.582,430.6152,695.2839,430.1018,695.2231,429.3936,694.6919,428.824,694.4952,428.3037,694.4176,428.5119,694.5039,428.1994,693.8863,428.0512,693.3367,427.4683,692.6071,427.4298,692.103,427.0833,691.4714,427.2883,691.4714,426.9193,683.4737,427.05,675.4761,427.1271,667.4784,427.3096,659.4808,427.0833,651.4832,427.082,651.4826,427.4758,650.9554,427.3938,650.2311,427.5983,649.6254,428.2212,649.193,428.3037,648.5369,428.2085,648.3069,428.9606,648.4561,429.5097,648.115,430.0359,647.7187,430.6137,647.4471,431.25,647.3165" style="stroke:#FFFFFF;stroke-width:1.0416666666666667;"/><text fill="#FFFFFF" font-family="&quot;Segoe Print&quot;" font-size="12.5" lengthAdjust="spacing" textLength="102.0833" x="442.7083" y="677.2664">装饰器(Decorator)</text><path d="M375,671.4773 L375,671.6719 L377.0833,671.0936 L379.1667,671.6562 L381.25,671.8473 L383.3333,670.8167 L385.4167,671.4773 L385.4167,671.4773 L385.4167,671.4413 L391.6667,671.2798 L397.9167,671.2997 L404.1667,671.4457 L410.4167,671.1572 L416.6667,671.4773 L416.6667,671.9899 L418.75,670.8937 L420.8333,671.2941 L422.9167,671.8772 L425,671.3978 L427.0833,671.4773 " fill="none" style="stroke:#333333;stroke-width:3.125;"/><polygon fill="#B0E0E6" points="431.25,716.4714,431.25,716.6903,441.1458,716.0398,451.0417,716.6727,460.9375,716.8877,470.8333,715.7282,480.7292,716.3904,490.625,716.0271,500.5208,716.0719,510.4167,716.4004,520.3125,715.7512,530.2083,716.4714,530.2819,716.649,530.7138,716.5132,531.3606,716.8961,532.0335,717.3422,532.554,717.4201,533.1546,717.6917,533.1765,717.7008,533.3884,718.2768,533.7,718.894,533.9636,719.4913,534.3188,720.1266,534.375,720.638,534.608,720.638,534.6109,728.6357,534.4634,736.6333,534.536,744.6309,534.6188,752.6286,534.375,760.6262,534.1436,760.5304,534.3486,761.3056,533.7917,761.7653,533.814,762.4649,533.2399,762.9175,533.1546,763.5725,533.1455,763.5505,532.6639,764.0545,531.9696,764.045,531.4008,764.3385,530.8426,764.6574,530.2083,764.7929,530.2083,765.2265,520.3125,764.7888,510.4167,765.0921,500.5208,764.1966,490.625,765.0891,480.7292,765.3639,470.8333,765.2559,460.9375,765.4315,451.0417,764.2897,441.1458,764.1135,431.25,764.7929,431.1674,764.5935,430.6529,764.5299,430.0454,764.2417,429.5728,764.2792,428.8698,763.7605,428.3037,763.5725,428.1937,763.5269,428.1329,763.0136,427.6017,762.3054,427.405,761.7358,427.5356,761.3017,427.0833,760.6262,427.2346,760.6262,427.3384,752.6286,426.9716,744.6309,427.1942,736.6333,427.2883,728.6357,427.0833,720.638,426.9318,720.5752,427.2967,720.036,427.6119,719.4762,428.0246,718.9569,428.0583,718.2804,428.3037,717.6917,428.3652,717.8401,428.8194,717.27,429.3922,716.9863,430.1384,717.1211,430.5655,716.4854,431.25,716.4714" style="stroke:#FFFFFF;stroke-width:1.0416666666666667;"/><text fill="#FFFFFF" font-family="&quot;Segoe Print&quot;" font-size="12.5" lengthAdjust="spacing" textLength="76.0417" x="442.7083" y="746.4213">门面(Facade)</text><path d="M375,671.4773 L375,671.6719 L377.0833,671.0936 L379.1667,671.6562 L381.25,671.8473 L383.3333,670.8167 L385.4167,671.4773 L385.4167,671.4773 L385.3894,671.4538 L387.1223,673.5097 L388.9929,675.6838 L390.9591,677.94 L392.5957,679.9131 L394.694,682.2827 L394.9393,682.357 L395.0861,684.4132 L395.9492,686.6864 L396.8995,688.9861 L397.3416,691.1317 L398.0509,693.3583 L398.0817,693.3655 L398.6347,695.8942 L399.3277,698.4558 L399.9531,701.0015 L400.7075,703.5776 L401.0417,706.0547 L401.3441,706.1259 L401.9459,708.6661 L402.3527,711.1603 L403.045,713.7217 L403.7507,716.2863 L404.0324,718.7511 L403.7129,718.6542 L405.0044,721.0573 L405.2438,723.1415 L406.2831,725.4681 L406.4986,727.5451 L407.3893,729.8267 L407.3653,729.806 L409.5053,732.2114 L411.0831,734.1342 L412.9927,736.3417 L414.9301,738.5732 L416.6667,740.6321 L416.6667,741.0175 L418.75,740.6285 L420.8333,740.8981 L422.9167,740.1021 L425,740.8954 L427.0833,740.6321 " fill="none" style="stroke:#333333;stroke-width:3.125;"/><polygon fill="#B0E0E6" points="431.25,785.6262,431.25,785.8452,441.4063,785.1946,451.5625,785.8276,461.7188,786.0426,471.875,784.8831,482.0313,785.5453,492.1875,785.182,502.3438,785.2267,512.5,785.5552,522.6563,784.906,532.8125,786.2029,542.9688,784.9697,553.125,785.6262,553.0987,785.5628,553.7717,786.0089,554.2921,786.0869,554.9018,786.3803,555.4778,786.5923,556.0713,786.8466,556.1285,786.8703,556.3921,787.4676,556.7473,788.1029,557.0188,788.7035,557.2655,789.2939,557.2917,789.7929,557.3801,789.7929,557.4526,797.7905,557.5355,805.7882,557.0413,813.7858,557.5273,821.7834,557.2917,829.7811,557.1966,829.7417,557.2188,830.4413,556.6447,830.8938,556.5375,831.5398,556.5533,832.2367,556.0713,832.7274,556.0648,832.7117,555.496,833.0052,554.9378,833.3241,554.3588,833.5931,553.7137,833.7024,553.125,833.9478,553.125,834.2469,542.9688,833.3515,532.8125,834.244,522.6563,834.5188,512.5,834.4108,502.3438,834.5863,492.1875,833.4445,482.0313,833.2684,471.875,833.3005,461.7188,833.8864,451.5625,833.743,441.4063,834.6576,431.25,833.9478,431.2268,833.8917,430.6152,833.5936,430.1018,833.5328,429.3936,833.0016,428.824,832.8049,428.3037,832.7274,428.5119,832.8136,428.1994,832.196,428.0512,831.6465,427.4683,830.9168,427.4298,830.4128,427.0833,829.7811,427.2883,829.7811,426.9193,821.7834,427.05,813.7858,427.1271,805.7882,427.3096,797.7905,427.0833,789.7929,427.082,789.7923,427.4758,789.2651,427.3938,788.5408,427.5983,787.9351,428.2212,787.5028,428.3037,786.8466,428.2085,786.6166,428.9606,786.7658,429.5097,786.4247,430.0359,786.0284,430.6137,785.7568,431.25,785.6262" style="stroke:#FFFFFF;stroke-width:1.0416666666666667;"/><text fill="#FFFFFF" font-family="&quot;Segoe Print&quot;" font-size="12.5" lengthAdjust="spacing" textLength="98.9583" x="442.7083" y="815.5762">轻量级(Flyweight)</text><path d="M375,671.4773 L375,671.6719 L377.0833,671.0936 L379.1667,671.6562 L381.25,671.8473 L383.3333,670.8167 L385.4167,671.4773 L385.4167,671.4773 L385.3896,671.4536 L386.3055,672.536 L387.3581,673.7377 L388.5057,675.0223 L389.3259,676.0212 L390.6047,677.4203 L390.8527,677.485 L391.1402,680.4801 L392.1518,683.6643 L393.2518,686.8715 L393.8377,689.9445 L394.694,693.0882 L394.7252,693.0934 L395.0288,695.1793 L395.4744,697.2889 L395.8515,699.387 L396.3592,701.507 L396.4411,703.5559 L396.7489,703.5983 L397.0746,705.9355 L397.2018,708.2454 L397.6196,710.5953 L398.051,712.947 L398.0509,715.2393 L397.7194,715.2003 L398.9611,720.3546 L399.1109,725.3804 L400.0908,730.5039 L400.2159,735.5268 L401.0417,740.6321 L401.0102,740.6284 L401.9808,745.7508 L402.2155,750.7866 L402.8845,755.8735 L403.5899,760.9647 L404.0324,766.0249 L404.2233,766.0512 L404.3526,768.3614 L404.808,770.7164 L404.7357,772.9988 L405.4507,775.3896 L405.6422,777.7083 L405.8925,777.7501 L406.1946,779.8358 L406.621,781.9421 L406.4699,783.9522 L406.7421,786.0328 L407.3893,788.1761 L407.111,788.1034 L408.1808,791.3028 L408.937,794.4203 L410.1482,797.6565 L410.5826,800.69 L411.4787,803.844 L411.359,803.7395 L412.5959,805.1021 L413.3213,806.0182 L414.4104,807.2517 L415.8554,808.796 L416.6667,809.787 L416.6667,810.1904 L418.75,810.4671 L420.8333,809.489 L422.9167,810.0825 L425,810.3337 L427.0833,809.787 " fill="none" style="stroke:#333333;stroke-width:3.125;"/><polygon fill="#B0E0E6" points="431.25,854.7811,431.25,855,442.0573,854.3495,452.8646,854.9824,463.6719,855.1974,474.4792,854.038,485.2865,854.7001,496.0938,854.3368,506.901,854.3816,517.7083,854.7811,517.6993,854.7592,518.2057,854.8034,518.9604,855.4468,519.3924,855.3111,520.0391,855.694,520.6546,856.0015,520.7932,856.0589,520.8712,856.5793,521.1647,857.1891,521.3766,857.765,521.6882,858.3822,521.875,858.9478,521.958,858.9478,522.0784,866.9454,522.108,874.943,522.1109,882.9407,521.9634,890.9383,521.875,898.936,522.0237,898.9976,521.8562,899.6185,521.1555,900.0186,521.3604,900.7939,520.8036,901.2536,520.6546,901.8822,520.7255,902.0535,519.9996,901.9675,519.467,902.3484,518.9854,902.8524,518.2911,902.8429,517.7083,903.1026,517.7083,903.2123,506.901,903.4554,496.0938,903.5362,485.2865,903.0986,474.4792,903.4018,463.6719,902.5064,452.8646,903.3989,442.0573,903.6737,431.25,903.1026,431.3091,903.2452,430.7422,903.0552,430.0073,902.4595,429.3956,902.1612,428.8104,901.927,428.3037,901.8822,428.2848,901.8744,427.9966,901.2669,428.0342,900.7943,427.5155,900.0913,427.2174,899.4796,427.0833,898.936,427.1626,898.936,426.8518,890.9383,426.9031,882.9407,427.3087,874.943,427.2346,866.9454,427.0833,858.9478,427.319,859.0454,427.2242,858.3157,427.6739,857.8117,428.005,857.2584,427.9081,856.528,428.3037,856.0015,428.291,855.9707,428.9097,855.7978,429.5688,855.7224,430.0709,855.2679,430.7222,855.1736,431.25,854.7811" style="stroke:#FFFFFF;stroke-width:1.0416666666666667;"/><text fill="#FFFFFF" font-family="&quot;Segoe Print&quot;" font-size="12.5" lengthAdjust="spacing" textLength="63.5417" x="442.7083" y="884.731">代理(Proxy)</text><path d="M375,671.4773 L375,671.6719 L377.0833,671.0936 L379.1667,671.6562 L381.25,671.8473 L383.3333,670.8167 L385.4167,671.4773 L385.4167,671.4773 L385.3856,671.4592 L386.2836,673.1608 L387.3384,674.9537 L388.5022,676.8101 L389.2904,678.4479 L390.6047,680.3917 L390.8554,680.4447 L390.751,682.3778 L391.3787,684.4654 L392.0958,686.5719 L392.2931,688.5687 L392.7638,690.6232 L392.795,690.6277 L393.1352,693.2751 L393.6177,695.9432 L394.0315,698.6014 L394.5763,701.2785 L394.694,703.8936 L395.0028,703.928 L395.356,707.0687 L395.51,710.1873 L395.9556,713.3383 L396.4148,716.4909 L396.4411,719.5953 L396.1087,719.5647 L397.0759,723.129 L396.9484,726.5927 L397.6531,730.1329 L397.5008,733.5944 L398.0509,737.1204 L398.0193,737.1179 L398.9914,744.7651 L399.2247,752.3543 L399.894,759.9777 L400.5998,767.604 L401.0417,775.2096 L401.2338,775.2246 L401.638,782.8273 L402.3705,790.4556 L402.5719,798.0423 L403.5655,805.6912 L404.0324,813.2988 L404.2851,813.322 L404.5593,816.8226 L404.9589,820.3348 L404.7756,823.7934 L405.0196,827.2912 L405.6422,830.8238 L405.3563,830.792 L405.9645,833.9612 L406.2506,837.0944 L407.004,840.2797 L406.9595,843.3762 L407.3893,846.5255 L407.2322,846.5026 L407.8799,849.1948 L407.8559,851.7892 L408.3096,854.4532 L409.2308,857.1851 L409.3196,859.796 L409.5169,859.8376 L410.0841,861.9124 L410.0374,863.8578 L410.7596,865.9653 L411.3143,868.0375 L411.4787,870.0274 L411.2897,869.9174 L412.4779,871.7879 L413.6043,873.6225 L414.8523,875.5278 L415.6274,877.158 L416.6667,878.9419 L416.6667,879.3702 L418.75,878.4291 L420.8333,878.3148 L422.9167,879.4082 L425,878.278 L427.0833,878.9419 " fill="none" style="stroke:#333333;stroke-width:3.125;"/><path d="M241.6667,878.9419 L241.6667,879.1365 L243.75,878.5582 L245.8333,879.1208 L247.9167,879.3119 L250,878.2813 L252.0833,878.9419 L252.0833,878.9419 L252.0522,878.9238 L252.9503,877.0596 L254.0051,875.2868 L255.1689,873.5773 L255.9571,871.6493 L257.2713,870.0274 L257.5221,870.0803 L257.4176,867.9208 L258.0454,865.9159 L258.7625,863.9298 L258.9598,861.834 L259.4304,859.796 L259.4617,859.8005 L259.8019,857.1397 L260.2843,854.4997 L260.6981,851.8496 L261.243,849.2186 L261.3607,846.5255 L261.6694,846.5599 L262.0226,843.42 L262.1767,840.2579 L262.6223,837.1282 L263.0815,834.0001 L263.1078,830.8238 L262.7753,830.7933 L263.7426,827.3476 L263.615,823.8013 L264.3198,820.3314 L264.1674,816.7828 L264.7176,813.2988 L264.686,813.2963 L265.658,805.7078 L265.8914,798.0613 L266.5606,790.4491 L267.2665,782.8397 L267.7083,775.2096 L267.9004,775.2246 L268.3047,767.5916 L269.0372,759.9843 L269.2386,752.3353 L270.2322,744.7485 L270.6991,737.1204 L270.9518,737.1436 L271.226,733.6342 L271.6256,730.1363 L271.4422,726.5848 L271.6862,723.0727 L272.3089,719.5953 L272.0229,719.5634 L272.6312,716.4519 L272.9173,713.3045 L273.6707,710.2092 L273.6262,707.025 L274.056,703.8936 L273.8988,703.8707 L274.5466,701.2547 L274.5226,698.541 L274.9763,695.8967 L275.8975,693.3205 L275.9862,690.6232 L276.1836,690.6648 L276.7508,688.6471 L276.7041,686.4998 L277.4263,684.5148 L277.981,682.4945 L278.1453,680.3917 L277.9563,680.2817 L279.1446,678.5865 L280.271,676.8553 L281.5189,675.1948 L282.2941,673.2592 L283.3333,671.4773 L283.3333,671.9056 L285.4167,670.9645 L287.5,670.8502 L289.5833,671.9436 L291.6667,670.8134 L293.75,671.4773 " fill="none" style="stroke:#333333;stroke-width:3.125;"/><polygon fill="#4682B4" points="297.9167,1269.7103,297.9167,1269.9292,308.3333,1269.2787,318.75,1269.9116,329.1667,1270.1266,339.5833,1268.9672,350,1269.6293,360.4167,1269.266,370.8333,1269.7103,370.7824,1269.5873,371.4135,1269.9325,371.92,1269.9767,372.6747,1270.6201,373.1066,1270.4844,373.7796,1270.9307,373.7162,1270.9044,374.1623,1271.5773,374.2403,1272.0978,374.5337,1272.7075,374.7457,1273.2835,375,1273.877,375.062,1273.877,375.083,1281.8746,375.2034,1289.8722,375.233,1297.8699,375.2359,1305.8675,375,1313.8652,375.0817,1313.899,374.9046,1314.516,374.7371,1315.137,374.0364,1315.5371,374.2413,1316.3123,373.7796,1316.8114,373.7402,1316.7163,373.2613,1317.2268,372.5353,1317.1408,372.0027,1317.5217,371.5211,1318.0256,370.8333,1318.0318,370.8333,1317.9811,360.4167,1318.1415,350,1318.3846,339.5833,1318.4654,329.1667,1318.0278,318.75,1318.331,308.3333,1317.4356,297.9167,1318.0318,297.9545,1318.123,297.4003,1317.9636,296.7972,1317.6863,296.2304,1317.4962,295.4955,1316.9005,294.9704,1316.8114,294.7612,1316.7248,294.527,1316.1396,294.4633,1315.6251,294.1751,1315.0176,294.2127,1314.545,293.75,1313.8652,293.6893,1313.8652,293.6309,1305.8675,293.8293,1297.8699,293.5185,1289.8722,293.5697,1281.8746,293.75,1273.877,293.9582,1273.9632,294.1338,1273.3456,294.4738,1272.796,294.379,1272.0664,294.8287,1271.5623,294.9704,1270.9307,295.0488,1271.1201,295.4969,1270.5351,296.1362,1270.4118,296.7549,1270.2389,297.414,1270.1634,297.9167,1269.7103" style="stroke:#FFFFFF;stroke-width:1.0416666666666667;"/><text fill="#FFFFFF" font-family="&quot;Segoe Print&quot;" font-size="12.5" lengthAdjust="spacing" textLength="50" x="309.375" y="1299.6602">行为模式</text><polygon fill="#B0E0E6" points="431.25,923.936,431.25,924.1549,441.8311,923.5044,452.4123,924.1373,462.9934,924.3523,473.5746,923.1928,484.1557,923.855,494.7368,923.4917,505.318,923.5365,515.8991,923.865,526.4803,923.2158,537.0614,924.5127,547.6425,923.2794,558.2237,923.7299,568.8048,924.3859,579.386,923.8466,589.9671,924.007,600.5482,923.9027,611.1294,924.1219,621.7105,924.1851,632.2917,923.936,632.3695,924.1238,632.9701,924.3953,633.5604,924.642,634.0933,924.7499,634.7103,925.061,635.2379,925.1563,635.4632,925.2497,635.2507,925.6498,635.9438,926.425,635.8751,926.8847,636.3855,927.5843,636.4583,928.1026,636.2865,928.1026,636.4345,936.1003,636.7158,944.0979,636.4414,952.0955,636.4949,960.0932,636.4583,968.0908,636.567,968.1358,636.3478,968.7354,635.9689,969.2688,635.8182,969.8968,635.2984,970.3718,635.2379,971.0371,635.2757,971.1283,634.7215,971.457,634.1185,971.6679,633.5516,971.966,632.8167,971.8584,632.2917,972.2575,632.2917,971.5781,621.7105,971.6102,611.1294,972.1962,600.5482,972.0528,589.9671,972.9673,579.386,972.0755,568.8048,971.9001,558.2237,972.4953,547.6425,971.5629,537.0614,971.7167,526.4803,972.9335,515.8991,972.7113,505.318,973.0226,494.7368,971.9223,484.1557,972.59,473.5746,972.8725,462.9934,971.7654,452.4123,972.1576,441.8311,972.3887,431.25,972.2575,431.3366,972.4666,430.6602,972.0121,430.133,971.9177,429.4086,971.3476,428.803,971.0639,428.3037,971.0371,428.4653,971.104,427.8297,970.3526,427.9788,969.9262,427.6378,969.2968,427.2415,968.6445,427.0833,968.0908,426.9605,968.0908,427.2426,960.0932,426.9794,952.0955,427.2888,944.0979,426.8914,936.1003,427.0833,928.1026,427.2814,928.1847,427.4828,927.5777,427.6501,926.9567,427.8307,926.3411,428.2927,925.8421,428.3037,925.1563,428.3853,925.3532,428.9155,924.9666,429.5179,924.7542,430.0542,924.3823,430.7559,924.4099,431.25,923.936" style="stroke:#FFFFFF;stroke-width:1.0416666666666667;"/><text fill="#FFFFFF" font-family="&quot;Segoe Print&quot;" font-size="12.5" lengthAdjust="spacing" textLength="178.125" x="442.7083" y="953.8859">责任链(Chain of Responsibility)</text><path d="M375,1293.8711 L375,1294.0657 L377.0833,1293.4874 L379.1667,1294.05 L381.25,1294.2411 L383.3333,1293.2105 L385.4167,1293.8711 L385.4167,1293.8711 L385.3827,1293.8592 L386.2679,1290.8345 L387.3242,1287.8695 L388.4997,1284.9462 L389.2649,1281.8795 L390.6047,1279.0136 L390.8589,1279.0458 L390.747,1275.5664 L391.3775,1272.1811 L392.0985,1268.8073 L392.2926,1265.3667 L392.7638,1261.9612 L392.7952,1261.964 L393.1351,1257.5364 L393.6182,1253.1214 L394.0322,1248.7004 L394.5781,1244.2909 L394.694,1239.8438 L395.004,1239.8645 L395.3572,1234.6309 L395.5105,1229.3839 L395.9564,1224.1564 L396.4161,1218.9299 L396.4411,1213.6744 L396.1078,1213.656 L397.0768,1207.85 L396.948,1201.9834 L397.6538,1196.1629 L397.5002,1190.295 L398.0509,1184.4659 L397.9559,1184.4614 L399.5783,1173.934 L398.9802,1163.302 L399.6924,1152.7318 L400.5146,1142.1667 L401.1207,1131.5914 L401.0417,1120.9839 L401.0362,1120.9836 L401.9386,1110.4223 L401.2444,1099.7858 L402.9316,1089.2615 L403.796,1078.6984 L404.1507,1068.1113 L404.0324,1057.5019 L404.3158,1057.5175 L404.131,1051.6479 L404.3748,1045.8019 L404.711,1039.961 L405.293,1034.1336 L405.6422,1028.2934 L405.5514,1028.2873 L406.3064,1023.0805 L406.2604,1017.8202 L406.532,1012.5812 L407.1453,1007.3649 L407.3893,1002.124 L407.0818,1002.0971 L407.5359,997.6796 L408.4607,993.3031 L408.7484,988.8711 L409.2723,984.4596 L409.3196,980.0066 L409.1718,979.9878 L409.898,976.6147 L410.4544,973.22 L410.3981,969.7477 L411.0028,966.3591 L411.4787,962.9542 L411.5337,962.9734 L412.8011,960.0822 L413.552,957.0106 L414.7937,954.1103 L415.387,950.9837 L416.6667,948.0967 L416.6667,947.4696 L418.75,948.563 L420.8333,947.4329 L422.9167,948.568 L425,948.288 L427.0833,948.0967 " fill="none" style="stroke:#333333;stroke-width:3.125;"/><polygon fill="#B0E0E6" points="431.25,993.0908,431.25,993.3098,441.9508,992.6592,452.6515,993.2922,463.3523,993.5072,474.053,992.3477,484.7538,993.0099,495.4545,992.6466,506.1553,992.6913,516.8561,993.0198,527.5568,992.3706,538.2576,993.6675,548.9583,993.0908,548.8746,992.8886,549.5213,993.2715,550.1942,993.7175,550.7147,993.7955,551.3244,994.089,551.9046,994.3112,551.8944,994.307,552.206,994.9242,552.4695,995.5215,552.8247,996.1568,553.0962,996.7574,553.125,997.2575,553.3609,997.2575,553.2134,1005.2551,553.286,1013.2528,553.3688,1021.2504,552.8746,1029.248,553.125,1037.2457,553.3427,1037.3358,552.7858,1037.7955,552.8081,1038.4951,552.234,1038.9477,552.1267,1039.5936,551.9046,1040.192,552.0032,1040.4299,551.3089,1040.4204,550.7401,1040.7139,550.1818,1041.0328,549.6029,1041.3018,548.9583,1041.4124,548.9583,1041.4083,538.2576,1041.7115,527.5568,1040.8161,516.8561,1041.7086,506.1553,1041.9834,495.4545,1041.8754,484.7538,1042.0509,474.053,1040.9091,463.3523,1040.733,452.6515,1040.7651,441.9508,1041.351,431.25,1041.4124,431.2239,1041.3493,430.7513,1041.3869,430.0483,1040.8682,429.4366,1040.5701,428.9233,1040.5093,428.3037,1040.192,428.0898,1040.1034,427.8931,1039.5337,428.0237,1039.0997,427.7112,1038.4821,427.563,1037.9325,427.0833,1037.2457,426.9716,1037.2457,427.1942,1029.248,427.2883,1021.2504,426.9193,1013.2528,427.05,1005.2551,427.0833,997.2575,427.1237,997.2742,427.5365,996.7548,427.5701,996.0784,427.964,995.5512,427.882,994.8269,428.3037,994.3112,428.2137,994.094,428.9599,994.2287,429.387,993.5931,430.1391,993.7422,430.6882,993.4012,431.25,993.0908" style="stroke:#FFFFFF;stroke-width:1.0416666666666667;"/><text fill="#FFFFFF" font-family="&quot;Segoe Print&quot;" font-size="12.5" lengthAdjust="spacing" textLength="94.7917" x="442.7083" y="1023.0408">命令(Command)</text><path d="M375,1293.8711 L375,1294.0657 L377.0833,1293.4874 L379.1667,1294.05 L381.25,1294.2411 L383.3333,1293.2105 L385.4167,1293.8711 L385.4167,1293.8711 L385.3837,1293.8567 L386.2733,1291.4149 L387.3291,1289.0456 L388.5005,1286.7268 L389.2737,1284.2342 L390.6047,1281.9851 L390.8578,1282.0251 L390.7483,1279.2111 L391.3779,1276.514 L392.0976,1273.8312 L392.2927,1271.0654 L392.7638,1268.3432 L392.7952,1268.3466 L393.1351,1264.8028 L393.618,1261.2746 L394.032,1257.7388 L394.5775,1254.2175 L394.694,1250.6493 L395.0036,1250.6751 L395.3568,1246.4883 L395.5103,1242.2848 L395.9562,1238.1058 L396.4157,1233.9279 L396.4411,1229.7137 L396.108,1229.6908 L397.0765,1225.0619 L396.9481,1220.3576 L397.6536,1215.7106 L397.5003,1211.0045 L398.0509,1206.3469 L397.956,1206.3413 L399.6773,1196.2504 L399.1797,1186.0287 L399.9914,1175.8842 L400.913,1165.7461 L401.0417,1155.5613 L401.6188,1155.5953 L401.6344,1145.4039 L402.6362,1135.2705 L402.0425,1125.0432 L403.8285,1114.9561 L404.0324,1104.7757 L404.2856,1104.7932 L404.5597,1100.1165 L404.9594,1095.4485 L404.7752,1090.7403 L405.019,1086.0615 L405.6422,1081.4089 L405.3555,1081.385 L405.9645,1077.2196 L406.2504,1073.0271 L407.0048,1068.8738 L406.9593,1064.6538 L407.3893,1060.4734 L407.2314,1060.4562 L407.8804,1056.9461 L407.8545,1053.3623 L408.3085,1049.831 L409.2322,1046.3508 L409.3196,1042.7795 L409.5188,1042.811 L410.0872,1040.1042 L410.0361,1037.2994 L410.761,1034.6174 L411.3168,1031.9087 L411.4787,1029.1376 L411.2782,1029.0501 L412.4756,1026.7426 L413.6073,1024.4065 L414.868,1022.1267 L415.6273,1019.628 L416.6667,1017.2516 L416.6667,1017.6799 L418.75,1016.7388 L420.8333,1016.6245 L422.9167,1017.7179 L425,1016.5878 L427.0833,1017.2516 " fill="none" style="stroke:#333333;stroke-width:3.125;"/><polygon fill="#B0E0E6" points="431.25,1062.2457,431.25,1062.4646,441.8403,1061.8141,452.4306,1062.447,463.0208,1062.662,473.6111,1061.5026,484.2014,1062.1647,494.7917,1061.8014,505.3819,1061.8462,515.9722,1062.1747,526.5625,1061.5255,537.1528,1062.8224,547.7431,1061.5891,558.3333,1062.2457,558.3071,1062.1822,558.98,1062.6283,559.5004,1062.7063,560.1102,1062.9998,560.6861,1063.2117,561.2796,1063.4661,561.3369,1063.4898,561.6004,1064.0871,561.9557,1064.7224,562.2271,1065.323,562.4738,1065.9134,562.5,1066.4124,562.5884,1066.4124,562.661,1074.41,562.7438,1082.4076,562.2496,1090.4053,562.7356,1098.4029,562.5,1106.4006,562.4049,1106.3612,562.4272,1107.0607,561.853,1107.5133,561.7458,1108.1592,561.7616,1108.8561,561.2796,1109.3468,561.2731,1109.3312,560.7043,1109.6247,560.1461,1109.9436,559.5672,1110.2126,558.9221,1110.3219,558.3333,1110.5672,558.3333,1110.8664,547.7431,1109.971,537.1528,1110.8635,526.5625,1111.1383,515.9722,1111.0303,505.3819,1111.2058,494.7917,1110.064,484.2014,1109.8879,473.6111,1109.9199,463.0208,1110.5059,452.4306,1110.3625,441.8403,1111.277,431.25,1110.5672,431.2268,1110.5112,430.6152,1110.2131,430.1018,1110.1523,429.3936,1109.6211,428.824,1109.4244,428.3037,1109.3468,428.5119,1109.4331,428.1994,1108.8155,428.0512,1108.2659,427.4683,1107.5363,427.4298,1107.0322,427.0833,1106.4006,427.2883,1106.4006,426.9193,1098.4029,427.05,1090.4053,427.1271,1082.4076,427.3096,1074.41,427.0833,1066.4124,427.082,1066.4118,427.4758,1065.8846,427.3938,1065.1603,427.5983,1064.5546,428.2212,1064.1222,428.3037,1063.4661,428.2085,1063.2361,428.9606,1063.3853,429.5097,1063.0442,430.0359,1062.6479,430.6137,1062.3763,431.25,1062.2457" style="stroke:#FFFFFF;stroke-width:1.0416666666666667;"/><text fill="#FFFFFF" font-family="&quot;Segoe Print&quot;" font-size="12.5" lengthAdjust="spacing" textLength="104.1667" x="442.7083" y="1092.1956">拦截器(Interpreter)</text><path d="M375,1293.8711 L375,1294.0657 L377.0833,1293.4874 L379.1667,1294.05 L381.25,1294.2411 L383.3333,1293.2105 L385.4167,1293.8711 L385.4167,1293.8711 L385.3856,1293.853 L386.2836,1291.9888 L387.3384,1290.216 L388.5022,1288.5065 L389.2904,1286.5785 L390.6047,1284.9566 L390.8554,1285.0095 L390.751,1282.85 L391.3787,1280.8451 L392.0958,1278.859 L392.2931,1276.7632 L392.7638,1274.7252 L392.795,1274.7297 L393.1352,1272.0689 L393.6177,1269.4289 L394.0315,1266.7788 L394.5763,1264.1478 L394.694,1261.4547 L395.0028,1261.4891 L395.356,1258.3492 L395.51,1255.1871 L395.9556,1252.0574 L396.4148,1248.9293 L396.4411,1245.753 L396.1087,1245.7225 L397.0759,1242.2768 L396.9484,1238.7305 L397.6531,1235.2606 L397.5008,1231.712 L398.0509,1228.228 L398.0193,1228.2255 L398.9914,1220.637 L399.2247,1212.9905 L399.894,1205.3783 L400.5998,1197.7689 L401.0417,1190.1388 L401.2338,1190.1538 L401.638,1182.5208 L402.3705,1174.9135 L402.5719,1167.2645 L403.5655,1159.6777 L404.0324,1152.0495 L404.2851,1152.0728 L404.5593,1148.5634 L404.9589,1145.0655 L404.7756,1141.514 L405.0196,1138.0019 L405.6422,1134.5245 L405.3563,1134.4926 L405.9645,1131.3811 L406.2506,1128.2337 L407.004,1125.1384 L406.9595,1121.9542 L407.3893,1118.8228 L407.2322,1118.7999 L407.8799,1116.1839 L407.8559,1113.4702 L408.3096,1110.8259 L409.2308,1108.2497 L409.3196,1105.5524 L409.5169,1105.594 L410.0841,1103.5763 L410.0374,1101.429 L410.7596,1099.444 L411.3143,1097.4237 L411.4787,1095.3209 L411.2897,1095.2109 L412.4779,1093.5157 L413.6043,1091.7845 L414.8523,1090.124 L415.6274,1088.1884 L416.6667,1086.4065 L416.6667,1086.8348 L418.75,1085.8937 L420.8333,1085.7794 L422.9167,1086.8728 L425,1085.7426 L427.0833,1086.4065 " fill="none" style="stroke:#333333;stroke-width:3.125;"/><polygon fill="#B0E0E6" points="431.25,1131.4006,431.25,1131.6195,442.0833,1130.969,452.9167,1131.6019,463.75,1131.8169,474.5833,1130.6574,485.4167,1131.3196,496.25,1130.9563,507.0833,1131.0011,517.9167,1131.3296,528.75,1130.6804,539.5833,1131.4006,539.6569,1131.5782,540.0888,1131.4424,540.7356,1131.8253,541.4085,1132.2714,541.929,1132.3493,542.5296,1132.6209,542.5515,1132.63,542.7634,1133.206,543.075,1133.8232,543.3386,1134.4205,543.6938,1135.0558,543.75,1135.5672,543.983,1135.5672,543.9859,1143.5649,543.8384,1151.5625,543.911,1159.5601,543.9938,1167.5578,543.75,1175.5554,543.5186,1175.4596,543.7236,1176.2348,543.1667,1176.6945,543.189,1177.3941,542.6149,1177.8467,542.5296,1178.5017,542.5205,1178.4797,542.0389,1178.9837,541.3446,1178.9742,540.7758,1179.2677,540.2176,1179.5866,539.5833,1179.7221,539.5833,1180.1557,528.75,1179.718,517.9167,1180.0213,507.0833,1179.1258,496.25,1180.0183,485.4167,1180.2931,474.5833,1180.1851,463.75,1180.3607,452.9167,1179.2189,442.0833,1179.0427,431.25,1179.7221,431.1674,1179.5227,430.6529,1179.4591,430.0454,1179.1709,429.5728,1179.2084,428.8698,1178.6897,428.3037,1178.5017,428.1937,1178.4561,428.1329,1177.9428,427.6017,1177.2346,427.405,1176.665,427.5356,1176.2309,427.0833,1175.5554,427.2346,1175.5554,427.3384,1167.5578,426.9716,1159.5601,427.1942,1151.5625,427.2883,1143.5649,427.0833,1135.5672,426.9318,1135.5044,427.2967,1134.9652,427.6119,1134.4054,428.0246,1133.8861,428.0583,1133.2096,428.3037,1132.6209,428.3652,1132.7693,428.8194,1132.1992,429.3922,1131.9155,430.1384,1132.0503,430.5655,1131.4146,431.25,1131.4006" style="stroke:#FFFFFF;stroke-width:1.0416666666666667;"/><text fill="#FFFFFF" font-family="&quot;Segoe Print&quot;" font-size="12.5" lengthAdjust="spacing" textLength="85.4167" x="442.7083" y="1161.3505">迭代器(Iterator)</text><path d="M375,1293.8711 L375,1294.0657 L377.0833,1293.4874 L379.1667,1294.05 L381.25,1294.2411 L383.3333,1293.2105 L385.4167,1293.8711 L385.4167,1293.8711 L385.3896,1293.8474 L386.3055,1292.5526 L387.3581,1291.3771 L388.5057,1290.2845 L389.3259,1288.9062 L390.6047,1287.9281 L390.8527,1287.9928 L391.1402,1284.7208 L392.1518,1281.6378 L393.2518,1278.5778 L393.8377,1275.3837 L394.694,1272.2602 L394.7252,1272.2654 L395.0288,1270.1642 L395.4744,1268.0867 L395.8515,1265.9977 L396.3592,1263.9306 L396.4411,1261.7924 L396.7489,1261.8348 L397.0746,1259.4986 L397.2018,1257.1351 L397.6196,1254.8116 L398.051,1252.49 L398.0509,1250.109 L397.7194,1250.0699 L398.9611,1245.0672 L399.1109,1239.9358 L400.0908,1234.9022 L400.2159,1229.7679 L401.0417,1224.7162 L401.0102,1224.7125 L401.9808,1219.6778 L402.2155,1214.5564 L402.8845,1209.4862 L403.5899,1204.4203 L404.0324,1199.3234 L404.2233,1199.3497 L404.3526,1196.9865 L404.808,1194.6682 L404.7357,1192.2772 L405.4507,1189.9946 L405.6422,1187.64 L405.8925,1187.6818 L406.1946,1185.5803 L406.621,1183.4996 L406.4699,1181.3225 L406.7421,1179.2161 L407.3893,1177.1722 L407.111,1177.0996 L408.1808,1174.0318 L408.937,1170.8821 L410.1482,1167.8511 L410.5826,1164.6175 L411.4787,1161.5043 L411.359,1161.3999 L412.5959,1160.3852 L413.3213,1158.9241 L414.4104,1157.7805 L415.8554,1156.9475 L416.6667,1155.5613 L416.6667,1155.9647 L418.75,1156.2414 L420.8333,1155.2634 L422.9167,1155.8569 L425,1156.108 L427.0833,1155.5613 " fill="none" style="stroke:#333333;stroke-width:3.125;"/><polygon fill="#B0E0E6" points="431.25,1200.5554,431.25,1200.7744,441.9508,1200.1238,452.6515,1200.7568,463.3523,1200.9718,474.053,1199.8123,484.7538,1200.4745,495.4545,1200.1112,506.1553,1200.1559,516.8561,1200.4844,527.5568,1199.8352,538.2576,1201.1321,548.9583,1200.5554,548.8746,1200.3532,549.5213,1200.7361,550.1942,1201.1821,550.7147,1201.2601,551.3244,1201.5536,551.9046,1201.7758,551.8944,1201.7716,552.206,1202.3888,552.4695,1202.9861,552.8247,1203.6214,553.0962,1204.222,553.125,1204.7221,553.3609,1204.7221,553.2134,1212.7197,553.286,1220.7174,553.3688,1228.715,552.8746,1236.7126,553.125,1244.7103,553.3427,1244.8004,552.7858,1245.2601,552.8081,1245.9597,552.234,1246.4123,552.1267,1247.0582,551.9046,1247.6566,552.0032,1247.8945,551.3089,1247.885,550.7401,1248.1785,550.1818,1248.4974,549.6029,1248.7664,548.9583,1248.877,548.9583,1248.8729,538.2576,1249.1761,527.5568,1248.2807,516.8561,1249.1732,506.1553,1249.448,495.4545,1249.34,484.7538,1249.5155,474.053,1248.3737,463.3523,1248.1976,452.6515,1248.2297,441.9508,1248.8156,431.25,1248.877,431.2239,1248.8139,430.7513,1248.8515,430.0483,1248.3328,429.4366,1248.0347,428.9233,1247.9739,428.3037,1247.6566,428.0898,1247.568,427.8931,1246.9983,428.0237,1246.5643,427.7112,1245.9467,427.563,1245.3971,427.0833,1244.7103,426.9716,1244.7103,427.1942,1236.7126,427.2883,1228.715,426.9193,1220.7174,427.05,1212.7197,427.0833,1204.7221,427.1237,1204.7388,427.5365,1204.2194,427.5701,1203.543,427.964,1203.0158,427.882,1202.2915,428.3037,1201.7758,428.2137,1201.5586,428.9599,1201.6933,429.387,1201.0577,430.1391,1201.2068,430.6882,1200.8658,431.25,1200.5554" style="stroke:#FFFFFF;stroke-width:1.0416666666666667;"/><text fill="#FFFFFF" font-family="&quot;Segoe Print&quot;" font-size="12.5" lengthAdjust="spacing" textLength="94.7917" x="442.7083" y="1230.5054">调节者(Mediator)</text><path d="M375,1293.8711 L375,1294.0657 L377.0833,1293.4874 L379.1667,1294.05 L381.25,1294.2411 L383.3333,1293.2105 L385.4167,1293.8711 L385.4167,1293.8711 L385.3894,1293.8476 L387.1223,1291.5813 L388.9929,1289.4332 L390.9591,1287.3672 L392.5957,1285.0182 L394.694,1283.0656 L394.9393,1283.14 L395.0861,1280.7658 L395.9492,1278.6088 L396.8995,1276.4783 L397.3416,1274.1936 L398.0509,1271.99 L398.0817,1271.9973 L398.6347,1269.4473 L399.3277,1266.9304 L399.9531,1264.3976 L400.7075,1261.8951 L401.0417,1259.2936 L401.3441,1259.3649 L401.9459,1256.8264 L402.3527,1254.2421 L403.045,1251.725 L403.7507,1249.211 L404.0324,1246.5972 L403.7129,1246.5004 L405.0044,1244.4732 L405.2438,1242.1272 L406.2831,1240.0236 L406.4986,1237.6703 L407.3893,1235.5216 L407.3653,1235.501 L409.5053,1233.5842 L411.0831,1231.1848 L412.9927,1229.0701 L414.9301,1226.9794 L416.6667,1224.7162 L416.6667,1225.1016 L418.75,1224.7126 L420.8333,1224.9821 L422.9167,1224.1862 L425,1224.9795 L427.0833,1224.7162 " fill="none" style="stroke:#333333;stroke-width:3.125;"/><polygon fill="#B0E0E6" points="431.25,1269.7103,431.25,1269.9292,441.1932,1269.2787,451.1364,1269.9116,461.0795,1270.1266,471.0227,1268.9672,480.9659,1269.6293,490.9091,1269.266,500.8523,1269.3108,510.7955,1269.6393,520.7386,1268.9901,530.6818,1270.287,540.625,1269.7103,540.5413,1269.5081,541.188,1269.8909,541.8609,1270.337,542.3814,1270.415,542.9911,1270.7085,543.5713,1270.9307,543.561,1270.9264,543.8726,1271.5437,544.1361,1272.141,544.4914,1272.7763,544.7629,1273.3769,544.7917,1273.877,545.0275,1273.877,544.8801,1281.8746,544.9526,1289.8722,545.0355,1297.8699,544.5413,1305.8675,544.7917,1313.8652,545.0093,1313.9553,544.4525,1314.415,544.4748,1315.1146,543.9006,1315.5671,543.7934,1316.2131,543.5713,1316.8114,543.6698,1317.0493,542.9755,1317.0399,542.4068,1317.3334,541.8485,1317.6523,541.2696,1317.9213,540.625,1318.0318,540.625,1318.0278,530.6818,1318.331,520.7386,1317.4356,510.7955,1318.3281,500.8523,1318.6029,490.9091,1318.4949,480.9659,1318.6704,471.0227,1317.5286,461.0795,1317.3525,451.1364,1317.3845,441.1932,1317.9705,431.25,1318.0318,431.2239,1317.9688,430.7513,1318.0063,430.0483,1317.4876,429.4366,1317.1895,428.9233,1317.1287,428.3037,1316.8114,428.0898,1316.7228,427.8931,1316.1532,428.0237,1315.7192,427.7112,1315.1016,427.563,1314.552,427.0833,1313.8652,426.9716,1313.8652,427.1942,1305.8675,427.2883,1297.8699,426.9193,1289.8722,427.05,1281.8746,427.0833,1273.877,427.1237,1273.8937,427.5365,1273.3743,427.5701,1272.6979,427.964,1272.1707,427.882,1271.4463,428.3037,1270.9307,428.2137,1270.7134,428.9599,1270.8482,429.387,1270.2125,430.1391,1270.3617,430.6882,1270.0206,431.25,1269.7103" style="stroke:#FFFFFF;stroke-width:1.0416666666666667;"/><text fill="#FFFFFF" font-family="&quot;Segoe Print&quot;" font-size="12.5" lengthAdjust="spacing" textLength="86.4583" x="442.7083" y="1299.6602">备忘(Memento)</text><path d="M375,1293.8711 L375,1294.0657 L377.0833,1293.4874 L379.1667,1294.05 L381.25,1294.2411 L383.3333,1293.2105 L385.4167,1293.8711 L385.4167,1293.8711 L385.4167,1293.8351 L391.6667,1293.6736 L397.9167,1293.6935 L404.1667,1293.8395 L410.4167,1293.551 L416.6667,1293.8711 L416.6667,1294.3837 L418.75,1293.2875 L420.8333,1293.6879 L422.9167,1294.271 L425,1293.7916 L427.0833,1293.8711 " fill="none" style="stroke:#333333;stroke-width:3.125;"/><polygon fill="#B0E0E6" points="431.25,1338.8652,431.25,1339.0841,441.3194,1338.4336,451.3889,1339.0665,461.4583,1339.2815,471.5278,1338.122,481.5972,1338.7842,491.6667,1338.4209,501.7361,1338.4657,511.8056,1338.7942,521.875,1338.145,531.9444,1339.4419,542.0139,1338.2086,552.0833,1338.8652,552.0571,1338.8017,552.73,1339.2478,553.2504,1339.3258,553.8602,1339.6193,554.4361,1339.8312,555.0296,1340.0855,555.0869,1340.1093,555.3504,1340.7066,555.7057,1341.3419,555.9771,1341.9425,556.2238,1342.5328,556.25,1343.0318,556.3384,1343.0318,556.411,1351.0295,556.4938,1359.0271,555.9996,1367.0247,556.4856,1375.0224,556.25,1383.02,556.1549,1382.9806,556.1772,1383.6802,555.603,1384.1328,555.4958,1384.7787,555.5116,1385.4756,555.0296,1385.9663,555.0231,1385.9507,554.4543,1386.2442,553.8961,1386.5631,553.3172,1386.8321,552.6721,1386.9414,552.0833,1387.1867,552.0833,1387.4859,542.0139,1386.5904,531.9444,1387.4829,521.875,1387.7577,511.8056,1387.6497,501.7361,1387.8253,491.6667,1386.6835,481.5972,1386.5073,471.5278,1386.5394,461.4583,1387.1254,451.3889,1386.982,441.3194,1387.8965,431.25,1387.1867,431.2268,1387.1307,430.6152,1386.8326,430.1018,1386.7718,429.3936,1386.2405,428.824,1386.0438,428.3037,1385.9663,428.5119,1386.0525,428.1994,1385.4349,428.0512,1384.8854,427.4683,1384.1558,427.4298,1383.6517,427.0833,1383.02,427.2883,1383.02,426.9193,1375.0224,427.05,1367.0247,427.1271,1359.0271,427.3096,1351.0295,427.0833,1343.0318,427.082,1343.0313,427.4758,1342.504,427.3938,1341.7797,427.5983,1341.1741,428.2212,1340.7417,428.3037,1340.0855,428.2085,1339.8556,428.9606,1340.0047,429.5097,1339.6637,430.0359,1339.2674,430.6137,1338.9957,431.25,1338.8652" style="stroke:#FFFFFF;stroke-width:1.0416666666666667;"/><text fill="#FFFFFF" font-family="&quot;Segoe Print&quot;" font-size="12.5" lengthAdjust="spacing" textLength="97.9167" x="442.7083" y="1368.8151">观察者(Observer)</text><path d="M375,1293.8711 L375,1294.0657 L377.0833,1293.4874 L379.1667,1294.05 L381.25,1294.2411 L383.3333,1293.2105 L385.4167,1293.8711 L385.4167,1293.8711 L385.3894,1293.8476 L387.1223,1295.9035 L388.9929,1298.0776 L390.9591,1300.3338 L392.5957,1302.3069 L394.694,1304.6765 L394.9393,1304.7508 L395.0861,1306.807 L395.9492,1309.0802 L396.8995,1311.3799 L397.3416,1313.5254 L398.0509,1315.7521 L398.0817,1315.7593 L398.6347,1318.288 L399.3277,1320.8496 L399.9531,1323.3953 L400.7075,1325.9714 L401.0417,1328.4485 L401.3441,1328.5197 L401.9459,1331.0599 L402.3527,1333.5541 L403.045,1336.1155 L403.7507,1338.6801 L404.0324,1341.1449 L403.7129,1341.048 L405.0044,1343.4511 L405.2438,1345.5353 L406.2831,1347.8619 L406.4986,1349.9389 L407.3893,1352.2205 L407.3653,1352.1998 L409.5053,1354.6052 L411.0831,1356.528 L412.9927,1358.7355 L414.9301,1360.967 L416.6667,1363.0259 L416.6667,1363.4113 L418.75,1363.0223 L420.8333,1363.2919 L422.9167,1362.4959 L425,1363.2892 L427.0833,1363.0259 " fill="none" style="stroke:#333333;stroke-width:3.125;"/><polygon fill="#B0E0E6" points="431.25,1408.02,431.25,1408.239,441.9271,1407.5884,452.6042,1408.2214,463.2813,1408.4364,473.9583,1407.2769,484.6354,1407.9391,495.3125,1407.5758,505.9896,1407.6205,516.6667,1408.02,516.6576,1407.9982,517.1641,1408.0423,517.9187,1408.6858,518.3507,1408.5501,518.9974,1408.9329,519.6129,1409.2404,519.7515,1409.2978,519.8295,1409.8183,520.123,1410.428,520.3349,1411.0039,520.6465,1411.6212,520.8333,1412.1867,520.9164,1412.1867,521.0367,1420.1843,521.0663,1428.182,521.0692,1436.1796,520.9217,1444.1772,520.8333,1452.1749,520.982,1452.2365,520.8145,1452.8575,520.1138,1453.2576,520.3188,1454.0328,519.7619,1454.4925,519.6129,1455.1212,519.6839,1455.2924,518.9579,1455.2064,518.4253,1455.5873,517.9437,1456.0913,517.2494,1456.0818,516.6667,1456.3416,516.6667,1456.4512,505.9896,1456.6943,495.3125,1456.7751,484.6354,1456.3375,473.9583,1456.6407,463.2813,1455.7453,452.6042,1456.6378,441.9271,1456.9126,431.25,1456.3416,431.3091,1456.4842,430.7422,1456.2941,430.0073,1455.6984,429.3956,1455.4001,428.8104,1455.1659,428.3037,1455.1212,428.2848,1455.1133,427.9966,1454.5058,428.0342,1454.0332,427.5155,1453.3302,427.2174,1452.7186,427.0833,1452.1749,427.1626,1452.1749,426.8518,1444.1772,426.9031,1436.1796,427.3087,1428.182,427.2346,1420.1843,427.0833,1412.1867,427.319,1412.2843,427.2242,1411.5547,427.6739,1411.0506,428.005,1410.4974,427.9081,1409.7669,428.3037,1409.2404,428.291,1409.2097,428.9097,1409.0367,429.5688,1408.9613,430.0709,1408.5068,430.7222,1408.4125,431.25,1408.02" style="stroke:#FFFFFF;stroke-width:1.0416666666666667;"/><text fill="#FFFFFF" font-family="&quot;Segoe Print&quot;" font-size="12.5" lengthAdjust="spacing" textLength="62.5" x="442.7083" y="1437.97">状态(State)</text><path d="M375,1293.8711 L375,1294.0657 L377.0833,1293.4874 L379.1667,1294.05 L381.25,1294.2411 L383.3333,1293.2105 L385.4167,1293.8711 L385.4167,1293.8711 L385.3896,1293.8474 L386.3055,1294.9298 L387.3581,1296.1315 L388.5057,1297.4161 L389.3259,1298.415 L390.6047,1299.814 L390.8527,1299.8788 L391.1402,1302.8739 L392.1518,1306.0581 L393.2518,1309.2653 L393.8377,1312.3383 L394.694,1315.4819 L394.7252,1315.4871 L395.0288,1317.5731 L395.4744,1319.6827 L395.8515,1321.7808 L396.3592,1323.9008 L396.4411,1325.9497 L396.7489,1325.9921 L397.0746,1328.3293 L397.2018,1330.6392 L397.6196,1332.9891 L398.051,1335.3408 L398.0509,1337.6331 L397.7194,1337.5941 L398.9611,1342.7484 L399.1109,1347.7742 L400.0908,1352.8977 L400.2159,1357.9206 L401.0417,1363.0259 L401.0102,1363.0222 L401.9808,1368.1446 L402.2155,1373.1804 L402.8845,1378.2673 L403.5899,1383.3585 L404.0324,1388.4187 L404.2233,1388.445 L404.3526,1390.7552 L404.808,1393.1102 L404.7357,1395.3926 L405.4507,1397.7834 L405.6422,1400.1021 L405.8925,1400.1439 L406.1946,1402.2295 L406.621,1404.3359 L406.4699,1406.346 L406.7421,1408.4266 L407.3893,1410.5699 L407.111,1410.4972 L408.1808,1413.6966 L408.937,1416.8141 L410.1482,1420.0503 L410.5826,1423.0838 L411.4787,1426.2378 L411.359,1426.1333 L412.5959,1427.4959 L413.3213,1428.412 L414.4104,1429.6455 L415.8554,1431.1898 L416.6667,1432.1808 L416.6667,1432.5842 L418.75,1432.8609 L420.8333,1431.8828 L422.9167,1432.4763 L425,1432.7275 L427.0833,1432.1808 " fill="none" style="stroke:#333333;stroke-width:3.125;"/><polygon fill="#B0E0E6" points="431.25,1477.1749,431.25,1477.3938,441.4583,1476.7433,451.6667,1477.3762,461.875,1477.5912,472.0833,1476.4318,482.2917,1477.0939,492.5,1476.7306,502.7083,1476.7754,512.9167,1477.1039,523.125,1476.4547,533.3333,1477.1749,533.4069,1477.3525,533.8388,1477.2168,534.4856,1477.5996,535.1585,1478.0457,535.679,1478.1237,536.2796,1478.3953,536.3015,1478.4043,536.5134,1478.9803,536.825,1479.5975,537.0886,1480.1948,537.4438,1480.8301,537.5,1481.3416,537.733,1481.3416,537.7359,1489.3392,537.5884,1497.3368,537.661,1505.3345,537.7438,1513.3321,537.5,1521.3298,537.2686,1521.2339,537.4736,1522.0092,536.9167,1522.4689,536.939,1523.1685,536.3649,1523.621,536.2796,1524.276,536.2705,1524.2541,535.7889,1524.758,535.0946,1524.7486,534.5258,1525.042,533.9676,1525.361,533.3333,1525.4964,533.3333,1525.93,523.125,1525.4924,512.9167,1525.7956,502.7083,1524.9002,492.5,1525.7927,482.2917,1526.0675,472.0833,1525.9595,461.875,1526.135,451.6667,1524.9932,441.4583,1524.8171,431.25,1525.4964,431.1674,1525.2971,430.6529,1525.2335,430.0454,1524.9452,429.5728,1524.9828,428.8698,1524.4641,428.3037,1524.276,428.1937,1524.2304,428.1329,1523.7171,427.6017,1523.0089,427.405,1522.4393,427.5356,1522.0052,427.0833,1521.3298,427.2346,1521.3298,427.3384,1513.3321,426.9716,1505.3345,427.1942,1497.3368,427.2883,1489.3392,427.0833,1481.3416,426.9318,1481.2788,427.2967,1480.7396,427.6119,1480.1798,428.0246,1479.6604,428.0583,1478.984,428.3037,1478.3953,428.3652,1478.5437,428.8194,1477.9735,429.3922,1477.6899,430.1384,1477.8246,430.5655,1477.189,431.25,1477.1749" style="stroke:#FFFFFF;stroke-width:1.0416666666666667;"/><text fill="#FFFFFF" font-family="&quot;Segoe Print&quot;" font-size="12.5" lengthAdjust="spacing" textLength="79.1667" x="442.7083" y="1507.1248">策略(Strategy)</text><path d="M375,1293.8711 L375,1294.0657 L377.0833,1293.4874 L379.1667,1294.05 L381.25,1294.2411 L383.3333,1293.2105 L385.4167,1293.8711 L385.4167,1293.8711 L385.3856,1293.853 L386.2836,1295.5546 L387.3384,1297.3475 L388.5022,1299.2039 L389.2904,1300.8417 L390.6047,1302.7855 L390.8554,1302.8385 L390.751,1304.7716 L391.3787,1306.8592 L392.0958,1308.9657 L392.2931,1310.9625 L392.7638,1313.017 L392.795,1313.0215 L393.1352,1315.6689 L393.6177,1318.337 L394.0315,1320.9952 L394.5763,1323.6723 L394.694,1326.2874 L395.0028,1326.3218 L395.356,1329.4625 L395.51,1332.5811 L395.9556,1335.7321 L396.4148,1338.8847 L396.4411,1341.9891 L396.1087,1341.9585 L397.0759,1345.5228 L396.9484,1348.9865 L397.6531,1352.5267 L397.5008,1355.9882 L398.0509,1359.5141 L398.0193,1359.5117 L398.9914,1367.1589 L399.2247,1374.7481 L399.894,1382.3715 L400.5998,1389.9978 L401.0417,1397.6034 L401.2338,1397.6184 L401.638,1405.2211 L402.3705,1412.8494 L402.5719,1420.4361 L403.5655,1428.085 L404.0324,1435.6926 L404.2851,1435.7158 L404.5593,1439.2164 L404.9589,1442.7286 L404.7756,1446.1872 L405.0196,1449.685 L405.6422,1453.2176 L405.3563,1453.1858 L405.9645,1456.355 L406.2506,1459.4882 L407.004,1462.6735 L406.9595,1465.77 L407.3893,1468.9193 L407.2322,1468.8964 L407.8799,1471.5886 L407.8559,1474.183 L408.3096,1476.847 L409.2308,1479.5789 L409.3196,1482.1897 L409.5169,1482.2314 L410.0841,1484.3062 L410.0374,1486.2516 L410.7596,1488.3591 L411.3143,1490.4313 L411.4787,1492.4212 L411.2897,1492.3112 L412.4779,1494.1817 L413.6043,1496.0163 L414.8523,1497.9216 L415.6274,1499.5518 L416.6667,1501.3357 L416.6667,1501.764 L418.75,1500.8229 L420.8333,1500.7086 L422.9167,1501.802 L425,1500.6718 L427.0833,1501.3357 " fill="none" style="stroke:#333333;stroke-width:3.125;"/><polygon fill="#B0E0E6" points="431.25,1546.3298,431.25,1546.5487,441.8505,1545.8982,452.451,1546.5311,463.0515,1546.7461,473.652,1545.5866,484.2525,1546.2488,494.8529,1545.8855,505.4534,1545.9303,516.0539,1546.2588,526.6544,1545.6096,537.2549,1546.9065,547.8554,1545.6732,558.4559,1546.1237,569.0564,1546.7797,579.6569,1546.2404,590.2574,1546.4008,600.8578,1546.2965,611.4583,1546.3298,611.4821,1546.387,612.0794,1546.6505,612.7147,1547.0058,613.3153,1547.2773,613.9056,1547.524,614.4046,1547.5501,614.4863,1547.584,614.7974,1548.201,615.118,1548.822,614.9055,1549.2221,615.5986,1549.9973,615.625,1550.4964,615.522,1550.4964,615.8104,1558.4941,615.4531,1566.4917,615.6012,1574.4893,615.8825,1582.487,615.625,1590.4846,615.6094,1590.4781,615.4147,1591.0879,615.2455,1591.7081,615.0263,1592.3077,614.6474,1592.8411,614.4046,1593.4309,614.4428,1593.523,613.7393,1593.4913,613.2639,1594.0103,612.7097,1594.339,612.1067,1594.5498,611.4583,1594.6513,611.4583,1595.2899,600.8578,1594.1481,590.2574,1593.9719,579.6569,1594.004,569.0564,1594.59,558.4559,1594.4466,547.8554,1595.3611,537.2549,1594.4693,526.6544,1594.2939,516.0539,1594.8891,505.4534,1593.9567,494.8529,1594.1105,484.2525,1595.3273,473.652,1595.1051,463.0515,1595.4164,452.451,1594.3161,441.8505,1594.9838,431.25,1594.6513,431.3285,1594.8407,430.598,1594.2557,430.0588,1594.1324,429.499,1593.9595,428.9796,1593.8841,428.3037,1593.4309,428.3024,1593.4303,428.208,1592.9031,427.6379,1592.1788,427.3542,1591.5731,427.489,1591.1408,427.0833,1590.4846,426.8344,1590.4846,427.2601,1582.487,427.1551,1574.4893,426.9903,1566.4917,426.9605,1558.4941,427.0833,1550.4964,427.2305,1550.5574,427.2314,1549.8674,427.7614,1549.3966,427.6383,1548.6552,428.2577,1548.2214,428.3037,1547.5501,428.3681,1547.7055,428.9255,1547.3846,429.4885,1547.0771,430.168,1547.051,430.7423,1546.7707,431.25,1546.3298" style="stroke:#FFFFFF;stroke-width:1.0416666666666667;"/><text fill="#FFFFFF" font-family="&quot;Segoe Print&quot;" font-size="12.5" lengthAdjust="spacing" textLength="157.2917" x="442.7083" y="1576.2797">模板方法(Template Method)</text><path d="M375,1293.8711 L375,1294.0657 L377.0833,1293.4874 L379.1667,1294.05 L381.25,1294.2411 L383.3333,1293.2105 L385.4167,1293.8711 L385.4167,1293.8711 L385.3837,1293.8567 L386.2733,1296.1693 L387.3291,1298.5544 L388.5005,1300.99 L389.2737,1303.2518 L390.6047,1305.757 L390.8578,1305.7971 L390.7483,1308.4398 L391.3779,1311.1995 L392.0976,1313.9734 L392.2927,1316.6643 L392.7638,1319.3989 L392.7952,1319.4023 L393.1351,1322.9361 L393.618,1326.4855 L394.032,1330.0273 L394.5775,1333.5835 L394.694,1337.0928 L395.0036,1337.1187 L395.3568,1341.3061 L395.5103,1345.4769 L395.9562,1349.672 L396.4157,1353.8683 L396.4411,1358.0284 L396.108,1358.0055 L397.0765,1362.7233 L396.9481,1367.3657 L397.6536,1372.0655 L397.5003,1376.7061 L398.0509,1381.3952 L397.956,1381.3896 L399.6773,1391.6129 L399.1797,1401.7054 L399.9914,1411.8751 L400.913,1422.0513 L401.0417,1432.1808 L401.6188,1432.2148 L401.6344,1442.3376 L402.6362,1452.5185 L402.0425,1462.6054 L403.8285,1472.8325 L404.0324,1482.9664 L404.2856,1482.9838 L404.5597,1487.6539 L404.9594,1492.3326 L404.7752,1496.9711 L405.019,1501.6391 L405.6422,1506.3332 L405.3555,1506.3092 L405.9645,1510.518 L406.2504,1514.6998 L407.0048,1518.9207 L406.9593,1523.0749 L407.3893,1527.2687 L407.2314,1527.2515 L407.8804,1530.819 L407.8545,1534.3128 L408.3085,1537.859 L409.2322,1541.4564 L409.3196,1544.9626 L409.5188,1544.9942 L410.0872,1547.7442 L410.0361,1550.3961 L410.761,1553.1709 L411.3168,1555.9189 L411.4787,1558.6045 L411.2782,1558.517 L412.4756,1560.964 L413.6073,1563.3823 L414.868,1565.8568 L415.6273,1568.1125 L416.6667,1570.4905 L416.6667,1570.9188 L418.75,1569.9778 L420.8333,1569.8634 L422.9167,1570.9568 L425,1569.8267 L427.0833,1570.4905 " fill="none" style="stroke:#333333;stroke-width:3.125;"/><polygon fill="#B0E0E6" points="431.25,1615.4846,431.25,1615.7036,441.6667,1615.053,452.0833,1615.686,462.5,1615.901,472.9167,1614.7415,483.3333,1615.4037,493.75,1615.0404,504.1667,1615.0851,514.5833,1615.4136,525,1614.7644,535.4167,1615.4846,535.4902,1615.6622,535.9222,1615.5265,536.5689,1615.9093,537.2418,1616.3554,537.7623,1616.4334,538.3629,1616.705,538.3848,1616.7141,538.5968,1617.29,538.9084,1617.9072,539.1719,1618.5045,539.5271,1619.1399,539.5833,1619.6513,539.8163,1619.6513,539.8192,1627.6489,539.6717,1635.6466,539.7443,1643.6442,539.8272,1651.6418,539.5833,1659.6395,539.352,1659.5437,539.5569,1660.3189,539.0001,1660.7786,539.0223,1661.4782,538.4482,1661.9307,538.3629,1662.5858,538.3538,1662.5638,537.8722,1663.0677,537.178,1663.0583,536.6092,1663.3518,536.0509,1663.6707,535.4167,1663.8062,535.4167,1664.2397,525,1663.8021,514.5833,1664.1053,504.1667,1663.2099,493.75,1664.1024,483.3333,1664.3772,472.9167,1664.2692,462.5,1664.4447,452.0833,1663.3029,441.6667,1663.1268,431.25,1663.8062,431.1674,1663.6068,430.6529,1663.5432,430.0454,1663.255,429.5728,1663.2925,428.8698,1662.7738,428.3037,1662.5858,428.1937,1662.5402,428.1329,1662.0268,427.6017,1661.3186,427.405,1660.749,427.5356,1660.315,427.0833,1659.6395,427.2346,1659.6395,427.3384,1651.6418,426.9716,1643.6442,427.1942,1635.6466,427.2883,1627.6489,427.0833,1619.6513,426.9318,1619.5885,427.2967,1619.0493,427.6119,1618.4895,428.0246,1617.9701,428.0583,1617.2937,428.3037,1616.705,428.3652,1616.8534,428.8194,1616.2833,429.3922,1615.9996,430.1384,1616.1343,430.5655,1615.4987,431.25,1615.4846" style="stroke:#FFFFFF;stroke-width:1.0416666666666667;"/><text fill="#FFFFFF" font-family="&quot;Segoe Print&quot;" font-size="12.5" lengthAdjust="spacing" textLength="81.25" x="442.7083" y="1645.4346">访问者(Visitor)</text><path d="M375,1293.8711 L375,1294.0657 L377.0833,1293.4874 L379.1667,1294.05 L381.25,1294.2411 L383.3333,1293.2105 L385.4167,1293.8711 L385.4167,1293.8711 L385.3827,1293.8592 L386.2679,1296.7775 L387.3242,1299.7555 L388.4997,1302.7751 L389.2649,1305.6515 L390.6047,1308.7285 L390.8589,1308.7607 L390.747,1312.1024 L391.3775,1315.538 L392.0985,1318.9851 L392.2926,1322.3654 L392.7638,1325.7809 L392.7952,1325.7836 L393.1351,1330.2031 L393.6182,1334.635 L394.0322,1339.061 L394.5781,1343.4984 L394.694,1347.8983 L395.004,1347.919 L395.3572,1353.1531 L395.5105,1358.3739 L395.9564,1363.6143 L396.4161,1368.8555 L396.4411,1374.0677 L396.1078,1374.0494 L397.0768,1379.9267 L396.948,1385.7436 L397.6538,1391.6064 L397.5002,1397.4219 L398.0509,1403.2762 L397.9559,1403.2717 L399.5783,1413.905 L398.9802,1424.4337 L399.6924,1435.0241 L400.5146,1445.6197 L401.1207,1456.2051 L401.0417,1466.7582 L401.0362,1466.758 L401.9386,1477.3573 L401.2444,1487.8815 L402.9316,1498.5178 L403.796,1509.1154 L404.1507,1519.6889 L404.0324,1530.2402 L404.3158,1530.2558 L404.131,1536.0696 L404.3748,1541.907 L404.711,1547.7495 L405.293,1553.6055 L405.6422,1559.4487 L405.5514,1559.4426 L406.3064,1564.7036 L406.2604,1569.9111 L406.532,1575.1398 L407.1453,1580.3913 L407.3893,1585.6181 L407.0818,1585.5913 L407.5359,1590.0207 L408.4607,1594.4912 L408.7484,1598.9061 L409.2723,1603.3416 L409.3196,1607.7355 L409.1718,1607.7168 L409.898,1611.1646 L410.4544,1614.5908 L410.3981,1617.9395 L411.0028,1621.3719 L411.4787,1624.7879 L411.5337,1624.8071 L412.8011,1627.8589 L413.552,1630.7303 L414.7937,1633.773 L415.387,1636.5894 L416.6667,1639.6454 L416.6667,1639.0183 L418.75,1640.1117 L420.8333,1638.9816 L422.9167,1640.1166 L425,1639.8367 L427.0833,1639.6454 " fill="none" style="stroke:#333333;stroke-width:3.125;"/><path d="M241.6667,878.9419 L241.6667,879.1365 L243.75,878.5582 L245.8333,879.1208 L247.9167,879.3119 L250,878.2813 L252.0833,878.9419 L252.0833,878.9419 L252.0488,878.9318 L252.9313,882.4525 L253.9881,886.0238 L255.1658,889.6304 L255.9264,893.1156 L257.2713,896.7708 L257.5262,896.7977 L257.413,900.8328 L258.0439,904.9464 L258.7657,909.0695 L258.9591,913.1369 L259.4304,917.2337 L259.4619,917.236 L259.8017,922.5408 L260.285,927.856 L260.699,933.1662 L261.2451,938.486 L261.3607,943.7745 L261.6709,943.7918 L262.0241,950.0727 L262.1772,956.3424 L262.6232,962.6285 L263.083,968.9153 L263.1078,975.1779 L262.7743,975.1626 L263.7436,982.2023 L263.6146,989.1916 L264.3206,996.2193 L264.1667,1003.2075 L264.7176,1010.228 L264.6225,1010.2243 L266.1741,1021.1511 L265.5045,1031.9906 L266.1455,1042.8817 L266.8965,1053.777 L267.4315,1064.6639 L267.2757,1075.5236 L267.7083,1086.4065 L268.1069,1086.4221 L267.3412,1097.2579 L268.9575,1108.1872 L269.7509,1119.0842 L270.0342,1129.9612 L270.6953,1140.853 L269.6014,1151.6759 L270.6991,1162.5849 L270.3974,1162.571 L270.7336,1169.5817 L271.3157,1176.6037 L271.574,1183.6108 L272.302,1190.6395 L272.3089,1197.635 L272.2281,1197.6305 L272.4997,1203.9069 L273.1132,1210.2022 L273.0489,1216.4599 L273.4666,1222.7443 L274.056,1229.0384 L274.3556,1229.0602 L274.6432,1234.3612 L275.1672,1239.6794 L275.0655,1244.9521 L275.7476,1250.2818 L275.9862,1255.5792 L276.2581,1255.6079 L276.2006,1259.6489 L276.8057,1263.7597 L277.3397,1267.8631 L278.0136,1271.9812 L278.1453,1276.0421 L278.1435,1276.0415 L279.3886,1279.6677 L279.9744,1283.102 L280.9571,1286.6519 L282.5196,1290.3704 L283.3333,1293.8711 L283.3333,1293.2072 L285.4167,1294.3423 L287.5,1294.0624 L289.5833,1293.623 L291.6667,1293.5435 L293.75,1293.8711 " fill="none" style="stroke:#333333;stroke-width:3.125;"/><path d="M91.6667,878.9419 L91.6667,879.1365 L93.75,878.5582 L95.8333,879.1208 L97.9167,879.3119 L100,878.2813 L102.0833,878.9419 L102.0833,878.9419 L102.0833,878.9059 L108.3333,878.7444 L114.5833,878.7643 L120.8333,878.9103 L127.0833,878.6218 L133.3333,878.9419 L133.3333,879.4545 L135.4167,878.3583 L137.5,878.7587 L139.5833,879.3418 L141.6667,878.8624 L143.75,878.9419 " fill="none" style="stroke:#333333;stroke-width:3.125;"/><!--MD5=[0585bf051ff5584bf62419ccc4c3af14]
@startmindmap Spring Design Pattern
!theme sketchy
<style>
mindmapDiagram {
     :depth(0) {
      BackGroundColor red
    }
    node {
        BackgroundColor PowDerBlue
    }
    :depth(1) {
      BackGroundColor DarkSlateBlue
    }
    :depth(2) {
      BackGroundColor RoyalBlue
    }
}
</style>

title Spring 设计模式
+[#SlateGray] 设计模式
++ 传统GoF 23
+++ 创建模式
++++ 抽象工厂(Abstract Factory)
++++ 构建器(Builder)
++++ 工厂方法(Factory Method)
++++ 原型(Prototype)
++++ 单体(Singleton)

+++[#CornflowerBlue] 结构模式
++++ 适配器(Adapter)
++++ 桥接(Bridge)
++++ 组合(Composite)
++++ 装饰器(Decorator)
++++ 门面(Facade)
++++ 轻量级(Flyweight)
++++ 代理(Proxy)
+++[#SteelBlue] 行为模式
++++ 责任链(Chain of Responsibility)
++++ 命令(Command)
++++ 拦截器(Interpreter)
++++ 迭代器(Iterator)
++++ 调节者(Mediator)
++++ 备忘(Memento)
++++ 观察者(Observer)
++++ 状态(State)
++++ 策略(Strategy)
++++ 模板方法(Template Method)
++++ 访问者(Visitor)


@endmindmap

@startmindmap Spring Design Pattern



skinparam backgroundColor transparent
skinparam useBetaStyle false
skinparam handwritten true
skinparam shadowing false






<style>
  root {
    BackgroundColor transparent
    FontColor #ffffff
    HyperLinkColor #fd7e14
    LineColor #2e2e2e
    LineThickness 1
    Margin 10
    Padding 6
    Shadowing 0.0
  }
  node {
   Padding 15
   roundcorner 20
   BackgroundColor #333333-#2e2e2e
  }
  caption {
    LineThickness 0
  }
  footer {
    LineThickness 0
  }
  groupHeader {
    BackgroundColor #555555
    FontColor #17a2b8
    FontStyle bold
  }
  header {
    LineThickness 0
  }
  referenceHeader {
    BackgroundColor transparent
    FontColor #555555
    FontStyle bold
  }
  separator {
    BackgroundColor #ffffff
    FontColor transparent
    FontStyle bold
  }
  title {
	FontSize 20
	BorderRoundCorner            8
	BorderThickness 	         1
	BackgroundColor  #666666-#555555
	FontColor #333333
	BorderColor #555555
  }
  nwdiagDiagram {
	network {
			FontColor #ffffff
	BorderColor #333333
	BackgroundColor #474747    
		LineColor #333333
		LineThickness 1.0
		FontColor #2e2e2e
	}
	server {
			FontColor #ffffff
	BorderColor #333333
	BackgroundColor #474747
	}
	arrow {
		FontColor #2e2e2e
		LineColor #2e2e2e
	}
	group {
		BackGroundColor #ffffff
		LineColor #e6e6e6
		LineThickness 2.0
		Margin 5
		Padding 5
	}
  }
  ganttDiagram {
	task {
			FontColor #ffffff
	BorderColor #333333
	BackgroundColor #474747
		LineColor #333333
		Margin 10
		Padding 6
	}
	note {
		FontColor #ffffff
		LineColor #1592a6
		BackGroundColor #17a2b8
	}
	separator {
		LineColor #555555
		BackGroundColor #555555-#4d4d4d
		FontColor #ffffff
	}
	milestone {
		FontColor #17a2b8
		FontSize 16
		FontStyle italic
		BackGroundColor #555555
		LineColor #4d4d4d
	}
	timeline {
		BackgroundColor #555555
		FontColor #ffffff
	}
	closed {
		BackgroundColor #e6ae06
		FontColor #ffffff
	}
  }
</style>
skinparam defaultFontName       "Segoe Print"
skinparam defaultFontSize       12
skinparam dpi                   100
skinparam shadowing             false
skinparam roundcorner           8
skinparam ParticipantPadding    40
skinparam BoxPadding            40
skinparam Padding               5
skinparam ArrowColor            #555555
skinparam stereotype {
    CBackgroundColor #666666
    CBorderColor #4d4d4d
    ABackgroundColor #3eb058
    ABorderColor #24963e
    IBackgroundColor #e04958
    IBorderColor #c6303e
    EBackgroundColor #ffc720
    EBorderColor #e6ae06
    NBackgroundColor #2eabbf
    NBorderColor #1592a6
}
skinparam title {
	FontColor	                 #ffffff
	BorderColor	                 #4d4d4d
	FontSize	    	         20
	BorderRoundCorner            8
	BorderThickness 	         1
	BackgroundColor              #666666-#555555
}

skinparam legend {
	BackgroundColor #555555
	BorderColor #4d4d4d
	FontColor #ffffff
}

skinparam swimlane {
	BorderColor #17a2b8
	BorderThickness 2
	TitleBackgroundColor  #666666-#555555
	TitleFontColor #ffffff
}


skinparam activity {
		FontColor #ffffff
	BorderColor #333333
	BackgroundColor #474747
	BarColor #28a745
	StartColor #17a2b8
	EndColor #17a2b8
	DiamondBackgroundColor #666666
  	DiamondBorderColor #4d4d4d
  	DiamondFontColor #ffffff
}


skinparam participant {
		FontColor #ffffff
	BorderColor #333333
	BackgroundColor #474747
	ParticipantBorderThickness 2
}


skinparam actor {
		FontColor #ffffff
	BorderColor #333333
	BackgroundColor #474747
}


skinparam arrow {
	Thickness 3
	Color #333333
	FontColor #ffffff
}


skinparam sequence {
	BorderColor #333333
	TitleFontColor #333333
	BackgroundColor transparent
	StartColor #333333
	EndColor #333333
	BoxBackgroundColor transparent
	BoxBorderColor #555555
	BoxFontColor #555555
	DelayFontColor #555555
	LifeLineBorderColor #555555
	LifeLineBorderThickness 2
	LifeLineBackgroundColor #4d4d4d
	GroupBorderColor #555555
	GroupFontColor #555555
	GroupHeaderFontColor #17a2b8
	GroupBackgroundColor #555555
	GroupHeaderBackgroundColor transparent
	DividerBackgroundColor #555555
    DividerBorderColor #555555
    DividerBorderThickness 2
    DividerFontColor #ffffff
	ReferenceBackgroundColor transparent
	ReferenceBorderColor #555555
	ReferenceFontColor #555555
	ReferenceHeaderFontColor #17a2b8
	ReferenceHeaderBackgroundColor #555555
	StereotypeFontColor #ffffff
}


skinparam partition {
	BorderColor #333333
	FontColor #333333
	BackgroundColor transparent
}


skinparam collections {
		FontColor #ffffff
	BorderColor #333333
	BackgroundColor #474747
}


skinparam control {
		FontColor #ffffff
	BorderColor #333333
	BackgroundColor #474747
}


skinparam entity {
		FontColor #ffffff
	BorderColor #333333
	BackgroundColor #474747
}


skinparam boundary {
		FontColor #ffffff
	BorderColor #333333
	BackgroundColor #474747
}


skinparam agent {
	BackgroundColor #ffc107
	BorderColor #ffc720
	FontColor #555555
}


skinparam note {
	BorderThickness 1
	BackgroundColor #17a2b8
	BorderColor #1592a6
	FontColor #ffffff
}


skinparam artifact {
	BackgroundColor #555555
	BorderColor #4d4d4d
	FontColor #ffffff
}


skinparam component {
		FontColor #ffffff
	BorderColor #333333
	BackgroundColor #474747
}


skinparam interface {
	BackgroundColor  #c6303e
	BorderColor  #dc3545
	FontColor #555555
}


skinparam storage {
	BackgroundColor #ffc107
  	BorderColor #e6ae06
	FontColor #ffffff
}


skinparam node {
	BackgroundColor  #555555
	BorderColor #ffffff
	FontColor #ffffff
}


skinparam cloud {
	BackgroundColor #F2FCFE-#eeeeee
	BorderColor #F2FCFE
	FontColor #555555
}


skinparam database {
		FontColor #ffffff
	BorderColor #333333
	BackgroundColor #474747
}


skinparam class {
		FontColor #ffffff
	BorderColor #333333
	BackgroundColor #474747
	FontColor #ffffff
	HeaderBackgroundColor #474747
	StereotypeFontColor #555555
	BorderThickness 1
	AttributeFontColor #ffffff
	AttributeFontSize 11
}


skinparam object {
		FontColor #ffffff
	BorderColor #333333
	BackgroundColor #474747
	StereotypeFontColor #555555
	BorderThickness 1
	AttributeFontColor #ffffff
	AttributeFontSize 11
}


skinparam usecase {
		FontColor #ffffff
	BorderColor #333333
	BackgroundColor #474747
	BorderThickness 2
	StereotypeFontColor #333333
}


skinparam rectangle {
		FontColor #ffffff
	BorderColor #333333
	BackgroundColor #474747
	BackgroundColor #666666
	BorderThickness 2
	StereotypeFontColor #333333
}


skinparam package {
	BackgroundColor #555555
  	BorderColor #333333
	FontColor #333333
	BorderThickness 2
}


skinparam folder {
	BackgroundColor #666666
  	BorderColor #ffc107
	FontColor #ffc107
	BorderThickness 2
}


skinparam frame {
	BackgroundColor #666666
  	BorderColor #17a2b8
	FontColor #17a2b8
	BorderThickness 2
}


skinparam state {
		FontColor #ffffff
	BorderColor #333333
	BackgroundColor #474747
	StartColor #17a2b8
	EndColor #17a2b8
	AttributeFontColor #ffffff
	AttributeFontSize 11
}


skinparam queue {
		FontColor #ffffff
	BorderColor #333333
	BackgroundColor #474747
}


skinparam card {
	BackgroundColor #17a2b8
	BorderColor #1592a6
	FontColor #ffffff
}


skinparam file {
	BackgroundColor #4d4d4d
	BorderColor #ffffff
	FontColor #ffffff
}


skinparam stack {
		FontColor #ffffff
	BorderColor #333333
	BackgroundColor #474747
}
<style>
mindmapDiagram {
     :depth(0) {
      BackGroundColor red
    }
    node {
        BackgroundColor PowDerBlue
    }
    :depth(1) {
      BackGroundColor DarkSlateBlue
    }
    :depth(2) {
      BackGroundColor RoyalBlue
    }
}
</style>

title Spring 设计模式
+[#SlateGray] 设计模式
++ 传统GoF 23
+++ 创建模式
++++ 抽象工厂(Abstract Factory)
++++ 构建器(Builder)
++++ 工厂方法(Factory Method)
++++ 原型(Prototype)
++++ 单体(Singleton)

+++[#CornflowerBlue] 结构模式
++++ 适配器(Adapter)
++++ 桥接(Bridge)
++++ 组合(Composite)
++++ 装饰器(Decorator)
++++ 门面(Facade)
++++ 轻量级(Flyweight)
++++ 代理(Proxy)
+++[#SteelBlue] 行为模式
++++ 责任链(Chain of Responsibility)
++++ 命令(Command)
++++ 拦截器(Interpreter)
++++ 迭代器(Iterator)
++++ 调节者(Mediator)
++++ 备忘(Memento)
++++ 观察者(Observer)
++++ 状态(State)
++++ 策略(Strategy)
++++ 模板方法(Template Method)
++++ 访问者(Visitor)


@endmindmap

PlantUML version 1.2022.7(Tue Aug 23 01:01:30 CST 2022)
(GPL source distribution)
Java Runtime: OpenJDK Runtime Environment
JVM: OpenJDK 64-Bit Server VM
Default Encoding: GBK
Language: en
Country: US
--></g></svg>