<?xml version="1.0" encoding="UTF-8" standalone="no"?><svg xmlns="http://www.w3.org/2000/svg" xmlns:xlink="http://www.w3.org/1999/xlink" contentStyleType="text/css" height="925px" preserveAspectRatio="none" style="width:880px;height:925px;background:#00000000;" version="1.1" viewBox="0 0 880 925" width="880.2083px" zoomAndPan="magnify"><defs><linearGradient id="gmj59wja6j9dl0" x1="50%" x2="50%" y1="0%" y2="100%"><stop offset="0%" stop-color="#666666"/><stop offset="100%" stop-color="#555555"/></linearGradient></defs><g><polygon fill="url(#gmj59wja6j9dl0)" points="389.5833,20.8333,389.5833,21.0523,400.463,20.4017,411.3426,21.0347,422.2222,21.2497,433.1019,20.0902,443.9815,20.7524,454.8611,20.3891,465.7407,20.4339,476.6204,20.7623,487.5,20.8333,487.4081,20.6115,488.1628,21.255,488.5948,21.1193,489.2415,21.5021,489.9144,21.9482,490.4463,22.0537,490.4188,22.0423,490.7122,22.652,490.9242,23.228,491.2358,23.8452,491.4993,24.4425,491.6667,25,491.87,25,491.8997,33.6072,491.9025,42.2144,491.7551,50.8215,491.8276,59.4287,491.6667,68.0359,491.8919,68.1292,491.1912,68.5293,491.3962,69.3046,490.8393,69.7643,490.8616,70.4638,490.4463,70.9822,490.3805,70.8234,489.8479,71.2043,489.3663,71.7082,488.672,71.6988,488.1032,71.9923,487.5,72.2026,487.5,72.5553,476.6204,72.6361,465.7407,72.1985,454.8611,72.5017,443.9815,71.6063,433.1019,72.4988,422.2222,72.7736,411.3426,72.6656,400.463,72.8411,389.5833,72.2026,389.5191,72.0476,388.9074,71.7493,388.3223,71.5151,387.8077,71.4514,387.2002,71.1632,386.6371,70.9822,386.8556,71.0727,386.3369,70.3697,386.0389,69.7581,385.978,69.2447,385.4468,68.5365,385.4167,68.0359,385.2364,68.0359,385.642,59.4287,385.5679,50.8215,385.6717,42.2144,385.3049,33.6072,385.4167,25,385.5191,25.0424,385.8501,24.4892,385.7533,23.7587,386.1181,23.2195,386.4334,22.6597,386.6371,22.0537,386.7237,22.2628,387.2258,21.8083,387.877,21.714,388.3312,21.1438,388.9041,20.8602,389.5833,20.8333" style="stroke:#4D4D4D;stroke-width:1.0416666666666667;"/><text fill="#FFFFFF" font-family="&quot;Segoe Print&quot;" font-size="20.8333" font-weight="bold" lengthAdjust="spacing" textLength="83.3333" x="396.875" y="56.1666">设计模式</text><polygon fill="#708090" points="409.375,474.4293,409.375,474.6483,419.3287,473.9977,429.2824,474.6307,439.2361,474.8457,449.1898,473.6862,459.1435,474.3484,469.0972,473.9851,479.0509,474.0298,489.0046,474.3583,498.9583,474.4293,498.8665,474.2075,499.6212,474.851,500.0531,474.7153,500.6998,475.0981,501.3728,475.5442,501.9046,475.6497,501.8771,475.6383,502.1706,476.248,502.3825,476.824,502.6941,477.4412,502.9576,478.0385,503.125,478.596,503.3284,478.596,503.358,486.5936,503.3609,494.5913,503.2134,502.5889,503.286,510.5865,503.125,518.5842,503.3503,518.6775,502.6496,519.0776,502.8545,519.8529,502.2977,520.3126,502.3199,521.0121,501.9046,521.5305,501.8388,521.3717,501.3063,521.7526,500.8246,522.2565,500.1304,522.2471,499.5616,522.5406,498.9583,522.7509,498.9583,523.1036,489.0046,523.1844,479.0509,522.7468,469.0972,523.05,459.1435,522.1546,449.1898,523.0471,439.2361,523.3219,429.2824,523.2139,419.3287,523.3894,409.375,522.7509,409.3108,522.5959,408.6991,522.2976,408.1139,522.0634,407.5994,521.9997,406.9919,521.7115,406.4287,521.5305,406.6473,521.621,406.1286,520.918,405.8305,520.3064,405.7697,519.793,405.2385,519.0848,405.2083,518.5842,405.0281,518.5842,405.4337,510.5865,405.3596,502.5889,405.4634,494.5913,405.0966,486.5936,405.2083,478.596,405.3107,478.6384,405.6418,478.0852,405.5449,477.3547,405.9098,476.8155,406.2251,476.2557,406.4287,475.6497,406.5153,475.8588,407.0174,475.4043,407.6687,475.3099,408.1229,474.7398,408.6958,474.4561,409.375,474.4293" style="stroke:#FFFFFF;stroke-width:1.0416666666666667;"/><text fill="#FFFFFF" font-family="&quot;Segoe Print&quot;" font-size="12.5" lengthAdjust="spacing" textLength="66.6667" x="420.8333" y="504.3793">传统GoF 23</text><polygon fill="#483D8B" points="559.375,232.3873,559.375,232.6062,569.7917,231.9557,580.2083,232.5886,590.625,232.8036,601.0417,231.6442,611.4583,232.3063,621.875,231.943,632.2917,232.3873,632.2407,232.2643,632.8719,232.6095,633.3783,232.6537,634.133,233.2971,634.5649,233.1614,635.2379,233.6077,635.1745,233.5814,635.6206,234.2543,635.6986,234.7748,635.9921,235.3845,636.204,235.9605,636.4583,236.554,636.5203,236.554,636.5414,244.5516,636.6617,252.5492,636.6913,260.5469,636.6942,268.5445,636.4583,276.5422,636.54,276.576,636.363,277.193,636.1954,277.814,635.4948,278.2141,635.6997,278.9893,635.2379,279.4884,635.1985,279.3933,634.7196,279.9038,633.9937,279.8178,633.4611,280.1987,632.9795,280.7026,632.2917,280.7088,632.2917,280.6581,621.875,280.8185,611.4583,281.0616,601.0417,281.1424,590.625,280.7048,580.2083,281.008,569.7917,280.1126,559.375,280.7088,559.4128,280.8001,558.8586,280.6406,558.2556,280.3633,557.6887,280.1732,556.9538,279.5775,556.4287,279.4884,556.2195,279.4018,555.9853,278.8166,555.9217,278.3021,555.6334,277.6946,555.671,277.222,555.2083,276.5422,555.1477,276.5422,555.0892,268.5445,555.2876,260.5469,554.9768,252.5492,555.0281,244.5516,555.2083,236.554,555.4165,236.6402,555.5922,236.0226,555.9321,235.473,555.8373,234.7434,556.287,234.2393,556.4287,233.6077,556.5072,233.7971,556.9552,233.2121,557.5945,233.0888,558.2132,232.9159,558.8723,232.8404,559.375,232.3873" style="stroke:#FFFFFF;stroke-width:1.0416666666666667;"/><text fill="#FFFFFF" font-family="&quot;Segoe Print&quot;" font-size="12.5" lengthAdjust="spacing" textLength="50" x="570.8333" y="262.3372">创建模式</text><polygon fill="#4169E1" points="692.7083,94.0776,692.7083,94.2965,703.3854,93.646,714.0625,94.2789,724.7396,94.4939,735.4167,93.3344,746.0938,93.9966,756.7708,93.6333,767.4479,93.6781,778.125,94.0066,788.8021,93.3574,799.4792,94.6543,810.1563,93.421,820.8333,93.8715,831.5104,94.5275,842.1875,93.9882,852.8646,94.1486,863.5417,94.0776,863.5374,94.0673,864.1546,94.3789,864.752,94.6424,865.3873,94.9977,865.9879,95.2691,866.4879,95.2979,866.7058,95.3882,866.8137,95.921,867.1248,96.5381,867.4454,97.159,867.2329,97.5591,867.7083,98.2442,867.9439,98.2442,867.6054,106.2419,867.8937,114.2395,867.5365,122.2371,867.6845,130.2348,867.7083,138.2324,867.9462,138.331,867.4486,138.8152,867.254,139.4249,867.0847,140.0452,866.8655,140.6448,866.4879,141.1787,866.4874,141.1774,865.9369,141.5149,865.2334,141.4832,864.758,142.0022,864.2038,142.3309,863.5417,142.3991,863.5417,142.8621,852.8646,143.0377,842.1875,141.8959,831.5104,141.7197,820.8333,141.7518,810.1563,142.3378,799.4792,142.1944,788.8021,143.1089,778.125,142.2171,767.4479,142.0417,756.7708,142.6369,746.0938,141.7045,735.4167,141.8583,724.7396,143.0751,714.0625,142.8529,703.3854,143.1642,692.7083,142.3991,692.6656,142.2959,692.1615,142.2574,691.6083,142.1003,690.8778,141.5153,690.3386,141.392,689.7621,141.1787,689.8025,141.1954,689.7271,140.676,689.2726,139.9996,689.1782,139.4724,688.6081,138.7481,688.5417,138.2324,688.3065,138.2324,688.7165,130.2348,688.2927,122.2371,688.7184,114.2395,688.6134,106.2419,688.5417,98.2442,688.4557,98.2086,688.6723,97.608,689.177,97.1267,689.1779,96.4367,689.7078,95.9658,689.7621,95.2979,689.6886,95.1206,690.4334,95.2519,691.0049,94.9651,691.5624,94.6443,692.1254,94.3368,692.7083,94.0776" style="stroke:#FFFFFF;stroke-width:1.0416666666666667;"/><text fill="#FFFFFF" font-family="&quot;Segoe Print&quot;" font-size="12.5" lengthAdjust="spacing" textLength="147.9167" x="704.1667" y="124.0275">抽象工厂(Abstract Factory)</text><path d="M636.4583,256.5481 L636.4583,256.7427 L638.5417,256.1644 L640.625,256.727 L642.7083,256.9181 L644.7917,255.8875 L646.875,256.5481 L646.875,256.5481 L646.8479,256.5244 L647.7639,255.2296 L648.8164,254.0541 L649.964,252.9615 L650.7843,251.5832 L652.063,250.6051 L652.311,250.6698 L652.5985,247.3978 L653.6101,244.3148 L654.7101,241.2548 L655.296,238.0607 L656.1523,234.9372 L656.1835,234.9424 L656.4872,232.8412 L656.9327,230.7637 L657.3098,228.6747 L657.8175,226.6076 L657.8995,224.4694 L658.2072,224.5118 L658.533,222.1756 L658.6602,219.8121 L659.078,217.4886 L659.5094,215.167 L659.5093,212.786 L659.1777,212.7469 L660.4194,207.7442 L660.5692,202.6128 L661.5491,197.5792 L661.6743,192.4449 L662.5,187.3932 L662.4685,187.3895 L663.4391,182.3548 L663.6739,177.2334 L664.3428,172.1632 L665.0483,167.0973 L665.4907,162.0004 L665.6816,162.0267 L665.8109,159.6635 L666.2664,157.3452 L666.1941,154.9542 L666.909,152.6716 L667.1005,150.317 L667.3509,150.3588 L667.6529,148.2573 L668.0793,146.1766 L667.9282,143.9995 L668.2004,141.8931 L668.8477,139.8492 L668.5693,139.7766 L669.6392,136.7088 L670.3954,133.5591 L671.6065,130.5281 L672.0409,127.2945 L672.937,124.1813 L672.8174,124.0769 L674.0542,123.0622 L674.7796,121.6011 L675.8688,120.4575 L677.3137,119.6245 L678.125,118.2383 L678.125,118.6417 L680.2083,118.9184 L682.2917,117.9404 L684.375,118.5339 L686.4583,118.785 L688.5417,118.2383 " fill="none" style="stroke:#333333;stroke-width:3.125;"/><polygon fill="#4169E1" points="692.7083,163.2324,692.7083,163.4514,702.6515,162.8008,712.5947,163.4338,722.5379,163.6488,732.4811,162.4893,742.4242,163.1515,752.3674,162.7882,762.3106,162.8329,772.2538,163.1614,782.197,162.5122,792.1402,163.8091,802.0833,163.2324,801.9996,163.0302,802.6463,163.4131,803.3192,163.8591,803.8397,163.9371,804.4494,164.2306,805.0296,164.4528,805.0194,164.4486,805.331,165.0658,805.5945,165.6631,805.9497,166.2984,806.2212,166.899,806.25,167.3991,806.4859,167.3991,806.3384,175.3967,806.411,183.3944,806.4938,191.392,805.9996,199.3896,806.25,207.3873,806.4677,207.4774,805.9108,207.9371,805.9331,208.6367,805.359,209.0893,805.2517,209.7352,805.0296,210.3336,805.1282,210.5715,804.4339,210.562,803.8651,210.8555,803.3068,211.1744,802.7279,211.4434,802.0833,211.554,802.0833,211.5499,792.1402,211.8531,782.197,210.9577,772.2538,211.8502,762.3106,212.125,752.3674,212.017,742.4242,212.1925,732.4811,211.0507,722.5379,210.8746,712.5947,210.9067,702.6515,211.4926,692.7083,211.554,692.6822,211.4909,692.2096,211.5285,691.5066,211.0098,690.895,210.7117,690.3816,210.6509,689.7621,210.3336,689.5481,210.245,689.3514,209.6753,689.4821,209.2413,689.1696,208.6237,689.0214,208.0741,688.5417,207.3873,688.4299,207.3873,688.6525,199.3896,688.7467,191.392,688.3776,183.3944,688.5084,175.3967,688.5417,167.3991,688.5821,167.4158,688.9948,166.8964,689.0285,166.22,689.4223,165.6928,689.3403,164.9685,689.7621,164.4528,689.6721,164.2356,690.4182,164.3703,690.8453,163.7347,691.5975,163.8838,692.1465,163.5428,692.7083,163.2324" style="stroke:#FFFFFF;stroke-width:1.0416666666666667;"/><text fill="#FFFFFF" font-family="&quot;Segoe Print&quot;" font-size="12.5" lengthAdjust="spacing" textLength="86.4583" x="704.1667" y="193.1824">构建器(Builder)</text><path d="M636.4583,256.5481 L636.4583,256.7427 L638.5417,256.1644 L640.625,256.727 L642.7083,256.9181 L644.7917,255.8875 L646.875,256.5481 L646.875,256.5481 L646.8477,256.5246 L648.5807,254.2583 L650.4512,252.1102 L652.4175,250.0442 L654.054,247.6952 L656.1523,245.7426 L656.3976,245.817 L656.5445,243.4429 L657.4075,241.2858 L658.3579,239.1553 L658.7999,236.8706 L659.5093,234.667 L659.54,234.6743 L660.093,232.1244 L660.786,229.6074 L661.4115,227.0746 L662.1658,224.5721 L662.5,221.9706 L662.8024,222.0419 L663.4042,219.5034 L663.811,216.9191 L664.5033,214.402 L665.209,211.888 L665.4907,209.2742 L665.1712,209.1774 L666.4627,207.1502 L666.7021,204.8042 L667.7414,202.7006 L667.9569,200.3473 L668.8477,198.1986 L668.8236,198.178 L670.9636,196.2612 L672.5415,193.8618 L674.4511,191.7471 L676.3885,189.6564 L678.125,187.3932 L678.125,187.7786 L680.2083,187.3896 L682.2917,187.6591 L684.375,186.8632 L686.4583,187.6565 L688.5417,187.3932 " fill="none" style="stroke:#333333;stroke-width:3.125;"/><polygon fill="#4169E1" points="692.7083,232.3873,692.7083,232.6062,703.125,231.9557,713.5417,232.5886,723.9583,232.8036,734.375,231.6442,744.7917,232.3063,755.2083,231.943,765.625,231.9878,776.0417,232.3163,786.4583,231.6671,796.875,232.964,807.2917,231.7307,817.7083,232.1813,828.125,232.8372,838.5417,232.2979,848.9583,232.4584,859.375,232.3873,859.3708,232.377,859.988,232.6886,860.5853,232.9522,861.2206,233.3074,861.8212,233.5789,862.3213,233.6077,862.5392,233.6979,862.647,234.2308,862.9581,234.8478,863.2788,235.4688,863.0662,235.8689,863.5417,236.554,863.7773,236.554,863.4387,244.5516,863.727,252.5492,863.3698,260.5469,863.5179,268.5445,863.5417,276.5422,863.7796,276.6407,863.282,277.1249,863.0873,277.7347,862.9181,278.3549,862.6989,278.9545,862.3213,279.4884,862.3208,279.4872,861.7702,279.8246,861.0667,279.793,860.5913,280.3119,860.0371,280.6406,859.375,280.7088,859.375,281.1719,848.9583,281.3474,838.5417,280.2056,828.125,280.0295,817.7083,280.0615,807.2917,280.6475,796.875,280.5041,786.4583,281.4186,776.0417,280.5269,765.625,280.3515,755.2083,280.9466,744.7917,280.0142,734.375,280.1681,723.9583,281.3848,713.5417,281.1626,703.125,281.4739,692.7083,280.7088,692.6656,280.6056,692.1615,280.5671,691.6083,280.4101,690.8778,279.825,690.3386,279.7018,689.7621,279.4884,689.8025,279.5052,689.7271,278.9858,689.2726,278.3094,689.1782,277.7821,688.6081,277.0578,688.5417,276.5422,688.3065,276.5422,688.7165,268.5445,688.2927,260.5469,688.7184,252.5492,688.6134,244.5516,688.5417,236.554,688.4557,236.5184,688.6723,235.9177,689.177,235.4364,689.1779,234.7464,689.7078,234.2756,689.7621,233.6077,689.6886,233.4304,690.4334,233.5617,691.0049,233.2749,691.5624,232.954,692.1254,232.6465,692.7083,232.3873" style="stroke:#FFFFFF;stroke-width:1.0416666666666667;"/><text fill="#FFFFFF" font-family="&quot;Segoe Print&quot;" font-size="12.5" lengthAdjust="spacing" textLength="143.75" x="704.1667" y="262.3372">工厂方法(Factory Method)</text><path d="M636.4583,256.5481 L636.4583,256.7427 L638.5417,256.1644 L640.625,256.727 L642.7083,256.9181 L644.7917,255.8875 L646.875,256.5481 L646.875,256.5481 L646.875,256.5121 L653.125,256.3506 L659.375,256.3705 L665.625,256.5165 L671.875,256.228 L678.125,256.5481 L678.125,257.0607 L680.2083,255.9645 L682.2917,256.3649 L684.375,256.948 L686.4583,256.4686 L688.5417,256.5481 " fill="none" style="stroke:#333333;stroke-width:3.125;"/><polygon fill="#4169E1" points="692.7083,301.5422,692.7083,301.7611,702.6515,301.1106,712.5947,301.7435,722.5379,301.9585,732.4811,300.799,742.4242,301.4612,752.3674,301.0979,762.3106,301.1427,772.2538,301.4712,782.197,300.822,792.1402,302.1189,802.0833,301.5422,801.9996,301.34,802.6463,301.7228,803.3192,302.1689,803.8397,302.2469,804.4494,302.5404,805.0296,302.7625,805.0194,302.7583,805.331,303.3755,805.5945,303.9728,805.9497,304.6081,806.2212,305.2087,806.25,305.7088,806.4859,305.7088,806.3384,313.7065,806.411,321.7041,806.4938,329.7017,805.9996,337.6994,806.25,345.697,806.4677,345.7872,805.9108,346.2469,805.9331,346.9465,805.359,347.399,805.2517,348.0449,805.0296,348.6433,805.1282,348.8812,804.4339,348.8717,803.8651,349.1652,803.3068,349.4842,802.7279,349.7531,802.0833,349.8637,802.0833,349.8596,792.1402,350.1629,782.197,349.2674,772.2538,350.1599,762.3106,350.4347,752.3674,350.3267,742.4242,350.5023,732.4811,349.3605,722.5379,349.1843,712.5947,349.2164,702.6515,349.8024,692.7083,349.8637,692.6822,349.8006,692.2096,349.8382,691.5066,349.3195,690.895,349.0214,690.3816,348.9606,689.7621,348.6433,689.5481,348.5547,689.3514,347.9851,689.4821,347.551,689.1696,346.9334,689.0214,346.3839,688.5417,345.697,688.4299,345.697,688.6525,337.6994,688.7467,329.7017,688.3776,321.7041,688.5084,313.7065,688.5417,305.7088,688.5821,305.7256,688.9948,305.2062,689.0285,304.5298,689.4223,304.0025,689.3403,303.2782,689.7621,302.7625,689.6721,302.5453,690.4182,302.68,690.8453,302.0444,691.5975,302.1936,692.1465,301.8525,692.7083,301.5422" style="stroke:#FFFFFF;stroke-width:1.0416666666666667;"/><text fill="#FFFFFF" font-family="&quot;Segoe Print&quot;" font-size="12.5" lengthAdjust="spacing" textLength="86.4583" x="704.1667" y="331.4921">原型(Prototype)</text><path d="M636.4583,256.5481 L636.4583,256.7427 L638.5417,256.1644 L640.625,256.727 L642.7083,256.9181 L644.7917,255.8875 L646.875,256.5481 L646.875,256.5481 L646.8477,256.5246 L648.5807,258.5805 L650.4512,260.7546 L652.4175,263.0108 L654.054,264.9839 L656.1523,267.3535 L656.3976,267.4279 L656.5445,269.484 L657.4075,271.7572 L658.3579,274.0569 L658.7999,276.2025 L659.5093,278.4291 L659.54,278.4363 L660.093,280.965 L660.786,283.5266 L661.4115,286.0723 L662.1658,288.6484 L662.5,291.1255 L662.8024,291.1967 L663.4042,293.7369 L663.811,296.2311 L664.5033,298.7925 L665.209,301.3572 L665.4907,303.8219 L665.1712,303.725 L666.4627,306.1281 L666.7021,308.2123 L667.7414,310.5389 L667.9569,312.6159 L668.8477,314.8975 L668.8236,314.8768 L670.9636,317.2822 L672.5415,319.205 L674.4511,321.4125 L676.3885,323.644 L678.125,325.7029 L678.125,326.0883 L680.2083,325.6993 L682.2917,325.9689 L684.375,325.1729 L686.4583,325.9662 L688.5417,325.7029 " fill="none" style="stroke:#333333;stroke-width:3.125;"/><polygon fill="#4169E1" points="692.7083,370.697,692.7083,370.916,702.7462,370.2654,712.7841,370.8984,722.822,371.1134,732.8598,369.9539,742.8977,370.6161,752.9356,370.2528,762.9735,370.2975,773.0114,370.626,783.0492,369.9768,793.0871,371.2737,803.125,370.697,803.0413,370.4948,803.688,370.8777,804.3609,371.3237,804.8814,371.4017,805.4911,371.6952,806.0713,371.9174,806.061,371.9132,806.3726,372.5304,806.6361,373.1277,806.9914,373.763,807.2629,374.3636,807.2917,374.8637,807.5275,374.8637,807.3801,382.8613,807.4526,390.859,807.5355,398.8566,807.0413,406.8542,807.2917,414.8519,807.5093,414.942,806.9525,415.4017,806.9748,416.1013,806.4006,416.5539,806.2934,417.1998,806.0713,417.7982,806.1698,418.0361,805.4755,418.0266,804.9068,418.3201,804.3485,418.639,803.7696,418.908,803.125,419.0186,803.125,419.0145,793.0871,419.3177,783.0492,418.4223,773.0114,419.3148,762.9735,419.5896,752.9356,419.4816,742.8977,419.6571,732.8598,418.5153,722.822,418.3392,712.7841,418.3713,702.7462,418.9572,692.7083,419.0186,692.6822,418.9555,692.2096,418.9931,691.5066,418.4744,690.895,418.1763,690.3816,418.1155,689.7621,417.7982,689.5481,417.7096,689.3514,417.1399,689.4821,416.7059,689.1696,416.0883,689.0214,415.5387,688.5417,414.8519,688.4299,414.8519,688.6525,406.8542,688.7467,398.8566,688.3776,390.859,688.5084,382.8613,688.5417,374.8637,688.5821,374.8804,688.9948,374.361,689.0285,373.6846,689.4223,373.1574,689.3403,372.4331,689.7621,371.9174,689.6721,371.7002,690.4182,371.8349,690.8453,371.1993,691.5975,371.3484,692.1465,371.0074,692.7083,370.697" style="stroke:#FFFFFF;stroke-width:1.0416666666666667;"/><text fill="#FFFFFF" font-family="&quot;Segoe Print&quot;" font-size="12.5" lengthAdjust="spacing" textLength="87.5" x="704.1667" y="400.647">单体(Singleton)</text><path d="M636.4583,256.5481 L636.4583,256.7427 L638.5417,256.1644 L640.625,256.727 L642.7083,256.9181 L644.7917,255.8875 L646.875,256.5481 L646.875,256.5481 L646.8479,256.5244 L647.7639,257.6068 L648.8164,258.8085 L649.964,260.0931 L650.7843,261.092 L652.063,262.4911 L652.311,262.5558 L652.5985,265.5509 L653.6101,268.7351 L654.7101,271.9423 L655.296,275.0153 L656.1523,278.159 L656.1835,278.1642 L656.4872,280.2501 L656.9327,282.3597 L657.3098,284.4578 L657.8175,286.5778 L657.8995,288.6267 L658.2072,288.6691 L658.533,291.0063 L658.6602,293.3162 L659.078,295.6661 L659.5094,298.0178 L659.5093,300.3101 L659.1777,300.2711 L660.4194,305.4254 L660.5692,310.4512 L661.5491,315.5747 L661.6743,320.5976 L662.5,325.7029 L662.4685,325.6992 L663.4391,330.8216 L663.6739,335.8574 L664.3428,340.9443 L665.0483,346.0355 L665.4907,351.0957 L665.6816,351.122 L665.8109,353.4322 L666.2664,355.7872 L666.1941,358.0696 L666.909,360.4604 L667.1005,362.7791 L667.3509,362.8209 L667.6529,364.9066 L668.0793,367.0129 L667.9282,369.023 L668.2004,371.1036 L668.8477,373.2469 L668.5693,373.1742 L669.6392,376.3736 L670.3954,379.4911 L671.6065,382.7273 L672.0409,385.7608 L672.937,388.9148 L672.8174,388.8103 L674.0542,390.1729 L674.7796,391.089 L675.8688,392.3225 L677.3137,393.8668 L678.125,394.8578 L678.125,395.2612 L680.2083,395.5379 L682.2917,394.5598 L684.375,395.1533 L686.4583,395.4045 L688.5417,394.8578 " fill="none" style="stroke:#333333;stroke-width:3.125;"/><path d="M503.125,498.5901 L503.125,498.7847 L505.2083,498.2065 L507.2917,498.7691 L509.375,498.9602 L511.4583,497.9295 L513.5417,498.5901 L513.5417,498.5901 L513.5095,498.574 L514.4026,496.4219 L515.458,494.3507 L516.6262,492.3359 L517.4056,490.127 L518.7297,488.1898 L518.9819,488.2355 L518.8743,485.7506 L519.5032,483.3989 L520.2219,481.0635 L520.4179,478.6335 L520.8888,476.2532 L520.9201,476.2571 L521.2601,473.1549 L521.7429,470.0706 L522.1568,466.9776 L522.702,463.901 L522.819,460.771 L523.1283,460.8005 L523.4815,457.1372 L523.6352,453.4548 L524.0809,449.8002 L524.5404,446.147 L524.5661,442.4524 L524.2333,442.4262 L525.2013,438.3879 L525.0732,434.2633 L525.7784,430.2042 L525.6255,426.0777 L526.1759,422.0065 L526.1443,422.0043 L527.1166,413.1421 L527.3497,404.23 L528.019,395.3473 L528.7249,386.4671 L529.1667,377.5691 L529.3589,377.582 L529.763,368.6815 L530.4956,359.803 L530.6967,350.8888 L531.6906,342.028 L532.1574,333.1317 L532.4104,333.1516 L532.6845,329.0586 L533.0842,324.9756 L532.9003,320.8466 L533.1442,316.7512 L533.7672,312.6857 L533.4808,312.6584 L534.0895,309.0194 L534.3755,305.3497 L535.1295,301.7245 L535.0844,298.0232 L535.5143,294.3671 L535.3567,294.3475 L536.0052,291.2838 L535.9801,288.1361 L536.434,285.0481 L537.3566,282.0185 L537.4446,278.8849 L537.643,278.9208 L538.211,276.5581 L538.1616,274.0838 L538.8854,271.7493 L539.4408,269.3843 L539.6037,266.9483 L539.408,266.8507 L540.6016,264.8484 L541.7311,262.8142 L542.9865,260.8428 L543.7523,258.6272 L544.7917,256.5481 L544.7917,256.9764 L546.875,256.0353 L548.9583,255.921 L551.0417,257.0144 L553.125,255.8842 L555.2083,256.5481 " fill="none" style="stroke:#333333;stroke-width:3.125;"/><polygon fill="#6495ED" points="559.375,647.3165,559.375,647.5354,569.7917,646.8849,580.2083,647.5178,590.625,647.7328,601.0417,646.5734,611.4583,647.2355,621.875,646.8722,632.2917,647.3165,632.2407,647.1935,632.8719,647.5387,633.3783,647.5829,634.133,648.2263,634.5649,648.0906,635.2379,648.5369,635.1745,648.5106,635.6206,649.1835,635.6986,649.704,635.9921,650.3137,636.204,650.8897,636.4583,651.4832,636.5203,651.4832,636.5414,659.4808,636.6617,667.4784,636.6913,675.4761,636.6942,683.4737,636.4583,691.4714,636.54,691.5052,636.363,692.1222,636.1954,692.7432,635.4948,693.1433,635.6997,693.9185,635.2379,694.4176,635.1985,694.3225,634.7196,694.833,633.9937,694.747,633.4611,695.1279,632.9795,695.6318,632.2917,695.638,632.2917,695.5873,621.875,695.7477,611.4583,695.9908,601.0417,696.0716,590.625,695.634,580.2083,695.9372,569.7917,695.0418,559.375,695.638,559.4128,695.7292,558.8586,695.5698,558.2556,695.2925,557.6887,695.1024,556.9538,694.5067,556.4287,694.4176,556.2195,694.331,555.9853,693.7458,555.9217,693.2313,555.6334,692.6238,555.671,692.1512,555.2083,691.4714,555.1477,691.4714,555.0892,683.4737,555.2876,675.4761,554.9768,667.4784,555.0281,659.4808,555.2083,651.4832,555.4165,651.5694,555.5922,650.9518,555.9321,650.4022,555.8373,649.6726,556.287,649.1685,556.4287,648.5369,556.5072,648.7263,556.9552,648.1413,557.5945,648.018,558.2132,647.8451,558.8723,647.7696,559.375,647.3165" style="stroke:#FFFFFF;stroke-width:1.0416666666666667;"/><text fill="#FFFFFF" font-family="&quot;Segoe Print&quot;" font-size="12.5" lengthAdjust="spacing" textLength="50" x="570.8333" y="677.2664">结构模式</text><polygon fill="#4169E1" points="692.7083,439.8519,692.7083,440.0708,702.9356,439.4203,713.1629,440.0532,723.3902,440.2682,733.6174,439.1088,743.8447,439.7709,754.072,439.4076,764.2992,439.4524,774.5265,439.7809,784.7538,439.1317,794.9811,440.4286,805.2083,439.8519,805.1246,439.6497,805.7713,440.0325,806.4442,440.4786,806.9647,440.5566,807.5744,440.8501,808.1546,441.0723,808.1444,441.068,808.456,441.6853,808.7195,442.2826,809.0747,442.9179,809.3462,443.5185,809.375,444.0186,809.6109,444.0186,809.4634,452.0162,809.536,460.0138,809.6188,468.0115,809.1246,476.0091,809.375,484.0068,809.5927,484.0969,809.0358,484.5566,809.0581,485.2562,808.484,485.7087,808.3767,486.3547,808.1546,486.953,808.2532,487.1909,807.5589,487.1815,806.9901,487.475,806.4318,487.7939,805.8529,488.0629,805.2083,488.1734,805.2083,488.1694,794.9811,488.4726,784.7538,487.5772,774.5265,488.4697,764.2992,488.7445,754.072,488.6365,743.8447,488.812,733.6174,487.6702,723.3902,487.4941,713.1629,487.5261,702.9356,488.1121,692.7083,488.1734,692.6822,488.1104,692.2096,488.1479,691.5066,487.6292,690.895,487.3311,690.3816,487.2703,689.7621,486.953,689.5481,486.8644,689.3514,486.2948,689.4821,485.8608,689.1696,485.2432,689.0214,484.6936,688.5417,484.0068,688.4299,484.0068,688.6525,476.0091,688.7467,468.0115,688.3776,460.0138,688.5084,452.0162,688.5417,444.0186,688.5821,444.0353,688.9948,443.5159,689.0285,442.8395,689.4223,442.3123,689.3403,441.5879,689.7621,441.0723,689.6721,440.855,690.4182,440.9898,690.8453,440.3541,691.5975,440.5033,692.1465,440.1623,692.7083,439.8519" style="stroke:#FFFFFF;stroke-width:1.0416666666666667;"/><text fill="#FFFFFF" font-family="&quot;Segoe Print&quot;" font-size="12.5" lengthAdjust="spacing" textLength="89.5833" x="704.1667" y="469.8018">适配器(Adapter)</text><path d="M636.4583,671.4773 L636.4583,671.6719 L638.5417,671.0936 L640.625,671.6562 L642.7083,671.8473 L644.7917,670.8167 L646.875,671.4773 L646.875,671.4773 L646.8439,671.4592 L647.7419,669.595 L648.7967,667.8222 L649.9605,666.1127 L650.7488,664.1847 L652.063,662.5628 L652.3138,662.6157 L652.2093,660.4562 L652.8371,658.4513 L653.5541,656.4652 L653.7514,654.3694 L654.2221,652.3314 L654.2534,652.3359 L654.5935,649.6751 L655.076,647.0351 L655.4898,644.385 L656.0346,641.754 L656.1523,639.0609 L656.4611,639.0953 L656.8143,635.9554 L656.9684,632.7933 L657.4139,629.6636 L657.8732,626.5355 L657.8995,623.3592 L657.567,623.3287 L658.5342,619.883 L658.4067,616.3367 L659.1115,612.8668 L658.9591,609.3182 L659.5093,605.8342 L659.4777,605.8317 L660.4497,598.2432 L660.6831,590.5967 L661.3523,582.9845 L662.0581,575.3751 L662.5,567.745 L662.6921,567.76 L663.0963,560.127 L663.8289,552.5197 L664.0302,544.8707 L665.0238,537.2839 L665.4907,529.6558 L665.7435,529.679 L666.0176,526.1696 L666.4173,522.6717 L666.2339,519.1202 L666.4779,515.6081 L667.1005,512.1307 L666.8146,512.0989 L667.4229,508.9873 L667.709,505.8399 L668.4623,502.7446 L668.4179,499.5604 L668.8477,496.429 L668.6905,496.4061 L669.3383,493.7901 L669.3142,491.0764 L669.768,488.4321 L670.6892,485.8559 L670.7779,483.1586 L670.9752,483.2002 L671.5424,481.1825 L671.4958,479.0352 L672.218,477.0502 L672.7726,475.0299 L672.937,472.9271 L672.748,472.8171 L673.9363,471.1219 L675.0626,469.3907 L676.3106,467.7302 L677.0857,465.7946 L678.125,464.0127 L678.125,464.441 L680.2083,463.4999 L682.2917,463.3856 L684.375,464.479 L686.4583,463.3488 L688.5417,464.0127 " fill="none" style="stroke:#333333;stroke-width:3.125;"/><polygon fill="#4169E1" points="692.7083,509.0068,692.7083,509.2257,703.125,508.5752,713.5417,509.2081,723.9583,509.4231,734.375,508.2636,744.7917,508.9258,755.2083,508.5625,765.625,508.6073,776.0417,508.9358,786.4583,509.0068,786.3665,508.785,787.1212,509.4284,787.5531,509.2927,788.1998,509.6755,788.8728,510.1216,789.4046,510.2271,789.3771,510.2157,789.6706,510.8255,789.8825,511.4014,790.1941,512.0186,790.4576,512.6159,790.625,513.1734,790.8284,513.1734,790.858,521.1711,790.8609,529.1687,790.7134,537.1663,790.786,545.164,790.625,553.1616,790.8503,553.2549,790.1496,553.655,790.3545,554.4303,789.7977,554.89,789.8199,555.5896,789.4046,556.1079,789.3388,555.9491,788.8063,556.33,788.3246,556.834,787.6304,556.8245,787.0616,557.118,786.4583,557.3283,786.4583,557.681,776.0417,557.7619,765.625,557.3242,755.2083,557.6275,744.7917,556.732,734.375,557.6245,723.9583,557.8993,713.5417,557.7913,703.125,557.9669,692.7083,557.3283,692.6441,557.1733,692.0324,556.875,691.4473,556.6408,690.9327,556.5772,690.3252,556.2889,689.7621,556.1079,689.9806,556.1984,689.4619,555.4954,689.1639,554.8838,689.103,554.3705,688.5718,553.6623,688.5417,553.1616,688.3614,553.1616,688.767,545.164,688.6929,537.1663,688.7967,529.1687,688.4299,521.1711,688.5417,513.1734,688.6441,513.2158,688.9751,512.6626,688.8783,511.9321,689.2431,511.3929,689.5584,510.8331,689.7621,510.2271,689.8487,510.4362,690.3508,509.9817,691.002,509.8874,691.4562,509.3173,692.0291,509.0336,692.7083,509.0068" style="stroke:#FFFFFF;stroke-width:1.0416666666666667;"/><text fill="#FFFFFF" font-family="&quot;Segoe Print&quot;" font-size="12.5" lengthAdjust="spacing" textLength="70.8333" x="704.1667" y="538.9567">桥接(Bridge)</text><path d="M636.4583,671.4773 L636.4583,671.6719 L638.5417,671.0936 L640.625,671.6562 L642.7083,671.8473 L644.7917,670.8167 L646.875,671.4773 L646.875,671.4773 L646.8479,671.4536 L647.7639,670.1588 L648.8164,668.9833 L649.964,667.8907 L650.7843,666.5124 L652.063,665.5343 L652.311,665.599 L652.5985,662.327 L653.6101,659.244 L654.7101,656.184 L655.296,652.9899 L656.1523,649.8664 L656.1835,649.8716 L656.4872,647.7704 L656.9327,645.6929 L657.3098,643.6039 L657.8175,641.5368 L657.8995,639.3986 L658.2072,639.441 L658.533,637.1048 L658.6602,634.7413 L659.078,632.4178 L659.5094,630.0962 L659.5093,627.7152 L659.1777,627.6761 L660.4194,622.6734 L660.5692,617.542 L661.5491,612.5084 L661.6743,607.3741 L662.5,602.3224 L662.4685,602.3187 L663.4391,597.284 L663.6739,592.1626 L664.3428,587.0924 L665.0483,582.0265 L665.4907,576.9296 L665.6816,576.9559 L665.8109,574.5927 L666.2664,572.2744 L666.1941,569.8834 L666.909,567.6008 L667.1005,565.2462 L667.3509,565.288 L667.6529,563.1865 L668.0793,561.1058 L667.9282,558.9287 L668.2004,556.8223 L668.8477,554.7784 L668.5693,554.7058 L669.6392,551.638 L670.3954,548.4883 L671.6065,545.4573 L672.0409,542.2237 L672.937,539.1105 L672.8174,539.0061 L674.0542,537.9914 L674.7796,536.5303 L675.8688,535.3867 L677.3137,534.5537 L678.125,533.1675 L678.125,533.5709 L680.2083,533.8476 L682.2917,532.8696 L684.375,533.4631 L686.4583,533.7142 L688.5417,533.1675 " fill="none" style="stroke:#333333;stroke-width:3.125;"/><polygon fill="#4169E1" points="692.7083,578.1616,692.7083,578.3806,702.691,577.73,712.6736,578.363,722.6563,578.578,732.6389,577.4185,742.6215,578.0807,752.6042,577.7174,762.5868,577.7621,772.5694,578.0906,782.5521,577.4414,792.5347,578.7383,802.5174,577.5051,812.5,578.1616,812.4737,578.0982,813.1467,578.5443,813.6671,578.6223,814.2768,578.9157,814.8528,579.1277,815.4463,579.382,815.5035,579.4057,815.7671,580.003,816.1223,580.6383,816.3938,581.2389,816.6405,581.8293,816.6667,582.3283,816.7551,582.3283,816.8276,590.3259,816.9105,598.3236,816.4163,606.3212,816.9023,614.3188,816.6667,622.3165,816.5716,622.2771,816.5938,622.9767,816.0197,623.4292,815.9125,624.0752,815.9283,624.7721,815.4463,625.2628,815.4398,625.2471,814.871,625.5406,814.3128,625.8596,813.7338,626.1285,813.0887,626.2378,812.5,626.4832,812.5,626.7823,802.5174,625.8869,792.5347,626.7794,782.5521,627.0542,772.5694,626.9462,762.5868,627.1217,752.6042,625.9799,742.6215,625.8038,732.6389,625.8359,722.6563,626.4218,712.6736,626.2784,702.691,627.193,692.7083,626.4832,692.6851,626.4271,692.0735,626.129,691.5602,626.0682,690.852,625.537,690.2823,625.3403,689.7621,625.2628,689.9702,625.349,689.6577,624.7314,689.5095,624.1819,688.9266,623.4522,688.8881,622.9482,688.5417,622.3165,688.7467,622.3165,688.3776,614.3188,688.5084,606.3212,688.5854,598.3236,688.768,590.3259,688.5417,582.3283,688.5403,582.3277,688.9341,581.8005,688.8522,581.0762,689.0566,580.4705,689.6795,580.0382,689.7621,579.382,689.6668,579.152,690.4189,579.3012,690.968,578.9601,691.4942,578.5638,692.0721,578.2922,692.7083,578.1616" style="stroke:#FFFFFF;stroke-width:1.0416666666666667;"/><text fill="#FFFFFF" font-family="&quot;Segoe Print&quot;" font-size="12.5" lengthAdjust="spacing" textLength="96.875" x="704.1667" y="608.1116">组合(Composite)</text><path d="M636.4583,671.4773 L636.4583,671.6719 L638.5417,671.0936 L640.625,671.6562 L642.7083,671.8473 L644.7917,670.8167 L646.875,671.4773 L646.875,671.4773 L646.8477,671.4538 L648.5807,669.1875 L650.4512,667.0394 L652.4175,664.9734 L654.054,662.6244 L656.1523,660.6718 L656.3976,660.7462 L656.5445,658.3721 L657.4075,656.215 L658.3579,654.0845 L658.7999,651.7998 L659.5093,649.5962 L659.54,649.6035 L660.093,647.0536 L660.786,644.5366 L661.4115,642.0038 L662.1658,639.5013 L662.5,636.8998 L662.8024,636.9711 L663.4042,634.4326 L663.811,631.8483 L664.5033,629.3312 L665.209,626.8172 L665.4907,624.2034 L665.1712,624.1066 L666.4627,622.0794 L666.7021,619.7334 L667.7414,617.6298 L667.9569,615.2765 L668.8477,613.1278 L668.8236,613.1072 L670.9636,611.1904 L672.5415,608.791 L674.4511,606.6763 L676.3885,604.5856 L678.125,602.3224 L678.125,602.7078 L680.2083,602.3188 L682.2917,602.5883 L684.375,601.7924 L686.4583,602.5857 L688.5417,602.3224 " fill="none" style="stroke:#333333;stroke-width:3.125;"/><polygon fill="#4169E1" points="692.7083,647.3165,692.7083,647.5354,703.125,646.8849,713.5417,647.5178,723.9583,647.7328,734.375,646.5734,744.7917,647.2355,755.2083,646.8722,765.625,646.917,776.0417,647.2455,786.4583,646.5963,796.875,647.8932,807.2917,646.6599,817.7083,647.3165,817.6821,647.253,818.355,647.6991,818.8754,647.7771,819.4852,648.0706,820.0611,648.2825,820.6546,648.5369,820.7119,648.5606,820.9754,649.1579,821.3307,649.7932,821.6021,650.3938,821.8488,650.9842,821.875,651.4832,821.9634,651.4832,822.036,659.4808,822.1188,667.4784,821.6246,675.4761,822.1106,683.4737,821.875,691.4714,821.7799,691.432,821.8022,692.1315,821.228,692.5841,821.1208,693.23,821.1366,693.9269,820.6546,694.4176,820.6481,694.402,820.0793,694.6955,819.5211,695.0144,818.9422,695.2834,818.2971,695.3927,817.7083,695.638,817.7083,695.9372,807.2917,695.0418,796.875,695.9343,786.4583,696.2091,776.0417,696.1011,765.625,696.2766,755.2083,695.1348,744.7917,694.9587,734.375,694.9907,723.9583,695.5767,713.5417,695.4333,703.125,696.3478,692.7083,695.638,692.6851,695.582,692.0735,695.2839,691.5602,695.2231,690.852,694.6919,690.2823,694.4952,689.7621,694.4176,689.9702,694.5039,689.6577,693.8863,689.5095,693.3367,688.9266,692.6071,688.8881,692.103,688.5417,691.4714,688.7467,691.4714,688.3776,683.4737,688.5084,675.4761,688.5854,667.4784,688.768,659.4808,688.5417,651.4832,688.5403,651.4826,688.9341,650.9554,688.8522,650.2311,689.0566,649.6254,689.6795,649.193,689.7621,648.5369,689.6668,648.3069,690.4189,648.4561,690.968,648.115,691.4942,647.7187,692.0721,647.4471,692.7083,647.3165" style="stroke:#FFFFFF;stroke-width:1.0416666666666667;"/><text fill="#FFFFFF" font-family="&quot;Segoe Print&quot;" font-size="12.5" lengthAdjust="spacing" textLength="102.0833" x="704.1667" y="677.2664">装饰器(Decorator)</text><path d="M636.4583,671.4773 L636.4583,671.6719 L638.5417,671.0936 L640.625,671.6562 L642.7083,671.8473 L644.7917,670.8167 L646.875,671.4773 L646.875,671.4773 L646.875,671.4413 L653.125,671.2798 L659.375,671.2997 L665.625,671.4457 L671.875,671.1572 L678.125,671.4773 L678.125,671.9899 L680.2083,670.8937 L682.2917,671.2941 L684.375,671.8772 L686.4583,671.3978 L688.5417,671.4773 " fill="none" style="stroke:#333333;stroke-width:3.125;"/><polygon fill="#4169E1" points="692.7083,716.4714,692.7083,716.6903,702.6042,716.0398,712.5,716.6727,722.3958,716.8877,732.2917,715.7282,742.1875,716.3904,752.0833,716.0271,761.9792,716.0719,771.875,716.4004,781.7708,715.7512,791.6667,716.4714,791.7402,716.649,792.1722,716.5132,792.8189,716.8961,793.4918,717.3422,794.0123,717.4201,794.6129,717.6917,794.6348,717.7008,794.8468,718.2768,795.1584,718.894,795.4219,719.4913,795.7771,720.1266,795.8333,720.638,796.0663,720.638,796.0692,728.6357,795.9217,736.6333,795.9943,744.6309,796.0772,752.6286,795.8333,760.6262,795.602,760.5304,795.8069,761.3056,795.2501,761.7653,795.2723,762.4649,794.6982,762.9175,794.6129,763.5725,794.6038,763.5505,794.1222,764.0545,793.428,764.045,792.8592,764.3385,792.3009,764.6574,791.6667,764.7929,791.6667,765.2265,781.7708,764.7888,771.875,765.0921,761.9792,764.1966,752.0833,765.0891,742.1875,765.3639,732.2917,765.2559,722.3958,765.4315,712.5,764.2897,702.6042,764.1135,692.7083,764.7929,692.6258,764.5935,692.1113,764.5299,691.5037,764.2417,691.0311,764.2792,690.3281,763.7605,689.7621,763.5725,689.652,763.5269,689.5912,763.0136,689.06,762.3054,688.8633,761.7358,688.9939,761.3017,688.5417,760.6262,688.6929,760.6262,688.7967,752.6286,688.4299,744.6309,688.6525,736.6333,688.7467,728.6357,688.5417,720.638,688.3901,720.5752,688.755,720.036,689.0702,719.4762,689.483,718.9569,689.5166,718.2804,689.7621,717.6917,689.8235,717.8401,690.2777,717.27,690.8506,716.9863,691.5967,717.1211,692.0238,716.4854,692.7083,716.4714" style="stroke:#FFFFFF;stroke-width:1.0416666666666667;"/><text fill="#FFFFFF" font-family="&quot;Segoe Print&quot;" font-size="12.5" lengthAdjust="spacing" textLength="76.0417" x="704.1667" y="746.4213">门面(Facade)</text><path d="M636.4583,671.4773 L636.4583,671.6719 L638.5417,671.0936 L640.625,671.6562 L642.7083,671.8473 L644.7917,670.8167 L646.875,671.4773 L646.875,671.4773 L646.8477,671.4538 L648.5807,673.5097 L650.4512,675.6838 L652.4175,677.94 L654.054,679.9131 L656.1523,682.2827 L656.3976,682.357 L656.5445,684.4132 L657.4075,686.6864 L658.3579,688.9861 L658.7999,691.1317 L659.5093,693.3583 L659.54,693.3655 L660.093,695.8942 L660.786,698.4558 L661.4115,701.0015 L662.1658,703.5776 L662.5,706.0547 L662.8024,706.1259 L663.4042,708.6661 L663.811,711.1603 L664.5033,713.7217 L665.209,716.2863 L665.4907,718.7511 L665.1712,718.6542 L666.4627,721.0573 L666.7021,723.1415 L667.7414,725.4681 L667.9569,727.5451 L668.8477,729.8267 L668.8236,729.806 L670.9636,732.2114 L672.5415,734.1342 L674.4511,736.3417 L676.3885,738.5732 L678.125,740.6321 L678.125,741.0175 L680.2083,740.6285 L682.2917,740.8981 L684.375,740.1021 L686.4583,740.8954 L688.5417,740.6321 " fill="none" style="stroke:#333333;stroke-width:3.125;"/><polygon fill="#4169E1" points="692.7083,785.6262,692.7083,785.8452,702.8646,785.1946,713.0208,785.8276,723.1771,786.0426,733.3333,784.8831,743.4896,785.5453,753.6458,785.182,763.8021,785.2267,773.9583,785.5552,784.1146,784.906,794.2708,786.2029,804.4271,784.9697,814.5833,785.6262,814.5571,785.5628,815.23,786.0089,815.7504,786.0869,816.3602,786.3803,816.9361,786.5923,817.5296,786.8466,817.5869,786.8703,817.8504,787.4676,818.2057,788.1029,818.4771,788.7035,818.7238,789.2939,818.75,789.7929,818.8384,789.7929,818.911,797.7905,818.9938,805.7882,818.4996,813.7858,818.9856,821.7834,818.75,829.7811,818.6549,829.7417,818.6772,830.4413,818.103,830.8938,817.9958,831.5398,818.0116,832.2367,817.5296,832.7274,817.5231,832.7117,816.9543,833.0052,816.3961,833.3241,815.8172,833.5931,815.1721,833.7024,814.5833,833.9478,814.5833,834.2469,804.4271,833.3515,794.2708,834.244,784.1146,834.5188,773.9583,834.4108,763.8021,834.5863,753.6458,833.4445,743.4896,833.2684,733.3333,833.3005,723.1771,833.8864,713.0208,833.743,702.8646,834.6576,692.7083,833.9478,692.6851,833.8917,692.0735,833.5936,691.5602,833.5328,690.852,833.0016,690.2823,832.8049,689.7621,832.7274,689.9702,832.8136,689.6577,832.196,689.5095,831.6465,688.9266,830.9168,688.8881,830.4128,688.5417,829.7811,688.7467,829.7811,688.3776,821.7834,688.5084,813.7858,688.5854,805.7882,688.768,797.7905,688.5417,789.7929,688.5403,789.7923,688.9341,789.2651,688.8522,788.5408,689.0566,787.9351,689.6795,787.5028,689.7621,786.8466,689.6668,786.6166,690.4189,786.7658,690.968,786.4247,691.4942,786.0284,692.0721,785.7568,692.7083,785.6262" style="stroke:#FFFFFF;stroke-width:1.0416666666666667;"/><text fill="#FFFFFF" font-family="&quot;Segoe Print&quot;" font-size="12.5" lengthAdjust="spacing" textLength="98.9583" x="704.1667" y="815.5762">轻量级(Flyweight)</text><path d="M636.4583,671.4773 L636.4583,671.6719 L638.5417,671.0936 L640.625,671.6562 L642.7083,671.8473 L644.7917,670.8167 L646.875,671.4773 L646.875,671.4773 L646.8479,671.4536 L647.7639,672.536 L648.8164,673.7377 L649.964,675.0223 L650.7843,676.0212 L652.063,677.4203 L652.311,677.485 L652.5985,680.4801 L653.6101,683.6643 L654.7101,686.8715 L655.296,689.9445 L656.1523,693.0882 L656.1835,693.0934 L656.4872,695.1793 L656.9327,697.2889 L657.3098,699.387 L657.8175,701.507 L657.8995,703.5559 L658.2072,703.5983 L658.533,705.9355 L658.6602,708.2454 L659.078,710.5953 L659.5094,712.947 L659.5093,715.2393 L659.1777,715.2003 L660.4194,720.3546 L660.5692,725.3804 L661.5491,730.5039 L661.6743,735.5268 L662.5,740.6321 L662.4685,740.6284 L663.4391,745.7508 L663.6739,750.7866 L664.3428,755.8735 L665.0483,760.9647 L665.4907,766.0249 L665.6816,766.0512 L665.8109,768.3614 L666.2664,770.7164 L666.1941,772.9988 L666.909,775.3896 L667.1005,777.7083 L667.3509,777.7501 L667.6529,779.8358 L668.0793,781.9421 L667.9282,783.9522 L668.2004,786.0328 L668.8477,788.1761 L668.5693,788.1034 L669.6392,791.3028 L670.3954,794.4203 L671.6065,797.6565 L672.0409,800.69 L672.937,803.844 L672.8174,803.7395 L674.0542,805.1021 L674.7796,806.0182 L675.8688,807.2517 L677.3137,808.796 L678.125,809.787 L678.125,810.1904 L680.2083,810.4671 L682.2917,809.489 L684.375,810.0825 L686.4583,810.3337 L688.5417,809.787 " fill="none" style="stroke:#333333;stroke-width:3.125;"/><polygon fill="#4169E1" points="692.7083,854.7811,692.7083,855,703.5156,854.3495,714.3229,854.9824,725.1302,855.1974,735.9375,854.038,746.7448,854.7001,757.5521,854.3368,768.3594,854.3816,779.1667,854.7811,779.1576,854.7592,779.6641,854.8034,780.4187,855.4468,780.8507,855.3111,781.4974,855.694,782.1129,856.0015,782.2515,856.0589,782.3295,856.5793,782.623,857.1891,782.8349,857.765,783.1465,858.3822,783.3333,858.9478,783.4164,858.9478,783.5367,866.9454,783.5663,874.943,783.5692,882.9407,783.4217,890.9383,783.3333,898.936,783.482,898.9976,783.3145,899.6185,782.6138,900.0186,782.8188,900.7939,782.2619,901.2536,782.1129,901.8822,782.1839,902.0535,781.4579,901.9675,780.9253,902.3484,780.4437,902.8524,779.7494,902.8429,779.1667,903.1026,779.1667,903.2123,768.3594,903.4554,757.5521,903.5362,746.7448,903.0986,735.9375,903.4018,725.1302,902.5064,714.3229,903.3989,703.5156,903.6737,692.7083,903.1026,692.7674,903.2452,692.2005,903.0552,691.4656,902.4595,690.8539,902.1612,690.2687,901.927,689.7621,901.8822,689.7432,901.8744,689.4549,901.2669,689.4925,900.7943,688.9738,900.0913,688.6757,899.4796,688.5417,898.936,688.6209,898.936,688.3101,890.9383,688.3614,882.9407,688.767,874.943,688.6929,866.9454,688.5417,858.9478,688.7773,859.0454,688.6825,858.3157,689.1322,857.8117,689.4633,857.2584,689.3664,856.528,689.7621,856.0015,689.7493,855.9707,690.3681,855.7978,691.0272,855.7224,691.5293,855.2679,692.1805,855.1736,692.7083,854.7811" style="stroke:#FFFFFF;stroke-width:1.0416666666666667;"/><text fill="#FFFFFF" font-family="&quot;Segoe Print&quot;" font-size="12.5" lengthAdjust="spacing" textLength="63.5417" x="704.1667" y="884.731">代理(Proxy)</text><path d="M636.4583,671.4773 L636.4583,671.6719 L638.5417,671.0936 L640.625,671.6562 L642.7083,671.8473 L644.7917,670.8167 L646.875,671.4773 L646.875,671.4773 L646.8439,671.4592 L647.7419,673.1608 L648.7967,674.9537 L649.9605,676.8101 L650.7488,678.4479 L652.063,680.3917 L652.3138,680.4447 L652.2093,682.3778 L652.8371,684.4654 L653.5541,686.5719 L653.7514,688.5687 L654.2221,690.6232 L654.2534,690.6277 L654.5935,693.2751 L655.076,695.9432 L655.4898,698.6014 L656.0346,701.2785 L656.1523,703.8936 L656.4611,703.928 L656.8143,707.0687 L656.9684,710.1873 L657.4139,713.3383 L657.8732,716.4909 L657.8995,719.5953 L657.567,719.5647 L658.5342,723.129 L658.4067,726.5927 L659.1115,730.1329 L658.9591,733.5944 L659.5093,737.1204 L659.4777,737.1179 L660.4497,744.7651 L660.6831,752.3543 L661.3523,759.9777 L662.0581,767.604 L662.5,775.2096 L662.6921,775.2246 L663.0963,782.8273 L663.8289,790.4556 L664.0302,798.0423 L665.0238,805.6912 L665.4907,813.2988 L665.7435,813.322 L666.0176,816.8226 L666.4173,820.3348 L666.2339,823.7934 L666.4779,827.2912 L667.1005,830.8238 L666.8146,830.792 L667.4229,833.9612 L667.709,837.0944 L668.4623,840.2797 L668.4179,843.3762 L668.8477,846.5255 L668.6905,846.5026 L669.3383,849.1948 L669.3142,851.7892 L669.768,854.4532 L670.6892,857.1851 L670.7779,859.796 L670.9752,859.8376 L671.5424,861.9124 L671.4958,863.8578 L672.218,865.9653 L672.7726,868.0375 L672.937,870.0274 L672.748,869.9174 L673.9363,871.7879 L675.0626,873.6225 L676.3106,875.5278 L677.0857,877.158 L678.125,878.9419 L678.125,879.3702 L680.2083,878.4291 L682.2917,878.3148 L684.375,879.4082 L686.4583,878.278 L688.5417,878.9419 " fill="none" style="stroke:#333333;stroke-width:3.125;"/><path d="M503.125,498.5901 L503.125,498.7847 L505.2083,498.2065 L507.2917,498.7691 L509.375,498.9602 L511.4583,497.9295 L513.5417,498.5901 L513.5417,498.5901 L513.5122,498.5695 L514.4174,499.9628 L515.4713,501.4599 L516.6286,503.0293 L517.4296,504.3498 L518.7297,506.0188 L518.9806,506.0712 L519.2619,509.8762 L520.2758,513.8341 L521.379,517.8106 L521.9623,521.6786 L522.819,525.6037 L522.8503,525.6079 L523.1538,528.2187 L523.5998,530.8485 L523.977,533.4692 L524.4855,536.1074 L524.5661,538.6884 L524.8749,538.7225 L525.2007,541.6437 L525.3272,544.543 L525.7454,547.4745 L526.1771,550.4074 L526.1759,553.2927 L525.8435,553.2613 L527.0868,559.6703 L527.2356,565.9762 L528.2164,572.3605 L528.3404,578.664 L529.1667,585.0337 L529.1351,585.0307 L530.1066,591.4141 L530.3405,597.728 L531.0096,604.0828 L531.7153,610.4412 L532.1574,616.7747 L532.3489,616.7958 L532.4776,619.6953 L532.9335,622.6309 L532.8599,625.5082 L533.5761,628.4725 L533.7672,631.3789 L534.0188,631.4125 L534.3206,634.0231 L534.7474,636.6504 L534.5938,639.2001 L534.8656,641.8067 L535.5143,644.4636 L535.2327,644.4048 L536.3055,648.375 L537.061,652.279 L538.2767,656.279 L538.7066,660.115 L539.6037,664.0485 L539.4735,663.9576 L540.7279,665.5948 L541.4258,666.8432 L542.5194,668.3681 L544.0004,670.1635 L544.7917,671.4773 L544.7917,671.8807 L546.875,672.1573 L548.9583,671.1793 L551.0417,671.7728 L553.125,672.0239 L555.2083,671.4773 " fill="none" style="stroke:#333333;stroke-width:3.125;"/><polygon fill="#4682B4" points="276.0417,474.4293,276.0417,474.6483,286.4583,473.9977,296.875,474.6307,307.2917,474.8457,317.7083,473.6862,328.125,474.3484,338.5417,473.9851,348.9583,474.4293,348.9074,474.3063,349.5385,474.6515,350.045,474.6957,350.7997,475.3392,351.2316,475.2034,351.9046,475.6497,351.8412,475.6234,352.2873,476.2964,352.3653,476.8168,352.6587,477.4265,352.8707,478.0025,353.125,478.596,353.187,478.596,353.208,486.5936,353.3284,494.5913,353.358,502.5889,353.3609,510.5865,353.125,518.5842,353.2067,518.618,353.0296,519.235,352.8621,519.856,352.1614,520.2561,352.3663,521.0314,351.9046,521.5305,351.8652,521.4354,351.3863,521.9458,350.6603,521.8598,350.1277,522.2407,349.6461,522.7447,348.9583,522.7509,348.9583,522.7001,338.5417,522.8605,328.125,523.1036,317.7083,523.1844,307.2917,522.7468,296.875,523.05,286.4583,522.1546,276.0417,522.7509,276.0795,522.8421,275.5253,522.6826,274.9222,522.4053,274.3554,522.2153,273.6205,521.6196,273.0954,521.5305,272.8862,521.4438,272.652,520.8586,272.5883,520.3441,272.3001,519.7366,272.3377,519.264,271.875,518.5842,271.8143,518.5842,271.7559,510.5865,271.9543,502.5889,271.6435,494.5913,271.6947,486.5936,271.875,478.596,272.0832,478.6822,272.2588,478.0646,272.5988,477.5151,272.504,476.7855,272.9537,476.2814,273.0954,475.6497,273.1738,475.8391,273.6219,475.2541,274.2612,475.1308,274.8799,474.9579,275.539,474.8825,276.0417,474.4293" style="stroke:#FFFFFF;stroke-width:1.0416666666666667;"/><text fill="#FFFFFF" font-family="&quot;Segoe Print&quot;" font-size="12.5" lengthAdjust="spacing" textLength="50" x="287.5" y="504.3793">行为模式</text><polygon fill="#4169E1" points="14.5833,128.655,14.5833,128.8739,25.1645,128.2234,35.7456,128.8563,46.3268,129.0713,56.9079,127.9119,67.489,128.574,78.0702,128.2107,88.6513,128.2555,99.2325,128.584,109.8136,127.9348,120.3947,129.2317,130.9759,127.9984,141.557,128.449,152.1382,129.1049,162.7193,128.5656,173.3004,128.7261,183.8816,128.6217,194.4627,128.841,205.0439,128.9041,215.625,128.655,215.7028,128.8429,216.3034,129.1143,216.8938,129.361,217.4266,129.4689,218.0436,129.78,218.5713,129.8754,218.7965,129.9687,218.584,130.3688,219.2771,131.144,219.2084,131.6037,219.7188,132.3033,219.7917,132.8217,219.6198,132.8217,219.7679,140.8193,220.0492,148.8169,219.7747,156.8146,219.8282,164.8122,219.7917,172.8099,219.9003,172.8549,219.6811,173.4544,219.3023,173.9878,219.1516,174.6158,218.6317,175.0908,218.5713,175.7561,218.6091,175.8474,218.0549,176.1761,217.4518,176.3869,216.885,176.685,216.1501,176.5775,215.625,176.9765,215.625,176.2972,205.0439,176.3292,194.4627,176.9152,183.8816,176.7718,173.3004,177.6863,162.7193,176.7946,152.1382,176.6192,141.557,177.2143,130.9759,176.2819,120.3947,176.4358,109.8136,177.6525,99.2325,177.4303,88.6513,177.7416,78.0702,176.6413,67.489,177.309,56.9079,177.5915,46.3268,176.4844,35.7456,176.8767,25.1645,177.1078,14.5833,176.9765,14.6699,177.1856,13.9935,176.7311,13.4663,176.6368,12.742,176.0666,12.1363,175.783,11.6371,175.7561,11.7986,175.8231,11.163,175.0716,11.3122,174.6453,10.9711,174.0158,10.5748,173.3635,10.4167,172.8099,10.2938,172.8099,10.576,164.8122,10.3127,156.8146,10.6222,148.8169,10.2247,140.8193,10.4167,132.8217,10.6147,132.9037,10.8161,132.2968,10.9834,131.6757,11.164,131.0602,11.6261,130.5612,11.6371,129.8754,11.7186,130.0722,12.2488,129.6856,12.8512,129.4733,13.3875,129.1014,14.0893,129.1289,14.5833,128.655" style="stroke:#FFFFFF;stroke-width:1.0416666666666667;"/><text fill="#FFFFFF" font-family="&quot;Segoe Print&quot;" font-size="12.5" lengthAdjust="spacing" textLength="178.125" x="26.0417" y="158.6049">责任链(Chain of Responsibility)</text><path d="M271.875,498.5901 L271.875,498.7847 L269.7917,498.2065 L267.7083,498.7691 L265.625,498.9602 L263.5417,497.9295 L261.4583,498.5901 L261.4583,498.5901 L261.4244,498.5782 L260.2343,495.5535 L259.2155,492.5886 L258.3158,489.6652 L257.0058,486.5986 L256.2703,483.7326 L256.5246,483.7648 L255.549,480.2855 L255.3159,476.9002 L255.1733,473.5263 L254.5037,470.0857 L254.1112,466.6802 L254.1427,466.683 L253.7104,462.2555 L253.4215,457.8405 L253.0634,453.4194 L252.8372,449.0099 L252.181,444.5628 L252.491,444.5835 L252.1453,439.3499 L251.5998,434.1029 L251.3469,428.8755 L251.1077,423.6489 L250.4339,418.3934 L250.1005,418.375 L250.4255,412.569 L249.6529,406.7025 L249.7147,400.8819 L248.9172,395.014 L248.8241,389.1849 L248.729,389.1805 L249.3545,378.6531 L247.7595,368.0211 L247.4748,357.4508 L247.3,346.8857 L246.9092,336.3105 L245.8333,325.7029 L245.8279,325.7027 L245.7333,315.1414 L244.0423,304.5048 L244.7325,293.9805 L244.6001,283.4174 L243.9578,272.8303 L242.8426,262.2209 L243.126,262.2365 L242.2973,256.3669 L241.8972,250.5209 L241.5895,244.68 L241.5276,238.8526 L241.2328,233.0124 L241.142,233.0064 L241.1981,227.7996 L240.4533,222.5393 L240.0261,217.3002 L239.9405,212.0839 L239.4857,206.843 L239.1781,206.8162 L238.8602,202.3986 L239.0129,198.0222 L238.5285,193.5901 L238.2802,189.1786 L237.5554,184.7256 L237.4076,184.7069 L237.2702,181.3337 L236.963,177.939 L236.043,174.4667 L235.7841,171.0781 L235.3963,167.6732 L235.4514,167.6925 L234.6436,164.8012 L233.3193,161.7296 L232.4857,158.8293 L231.0039,155.7027 L230.2083,152.8158 L230.2083,152.1887 L228.125,153.2821 L226.0417,152.1519 L223.9583,153.287 L221.875,153.0071 L219.7917,152.8158 " fill="none" style="stroke:#333333;stroke-width:3.125;"/><polygon fill="#4169E1" points="97.9167,197.8099,97.9167,198.0288,108.6174,197.3783,119.3182,198.0112,130.0189,198.2262,140.7197,197.0667,151.4205,197.7289,162.1212,197.3656,172.822,197.4104,183.5227,197.7389,194.2235,197.0897,204.9242,198.3866,215.625,197.8099,215.5413,197.6077,216.188,197.9905,216.8609,198.4366,217.3814,198.5146,217.9911,198.8081,218.5713,199.0302,218.561,199.026,218.8726,199.6432,219.1361,200.2405,219.4914,200.8758,219.7629,201.4764,219.7917,201.9765,220.0275,201.9765,219.8801,209.9742,219.9526,217.9718,220.0355,225.9694,219.5413,233.9671,219.7917,241.9647,220.0093,242.0549,219.4525,242.5146,219.4748,243.2142,218.9006,243.6667,218.7934,244.3126,218.5713,244.911,218.6698,245.1489,217.9755,245.1394,217.4068,245.4329,216.8485,245.7519,216.2696,246.0208,215.625,246.1314,215.625,246.1273,204.9242,246.4306,194.2235,245.5351,183.5227,246.4276,172.822,246.7024,162.1212,246.5944,151.4205,246.77,140.7197,245.6282,130.0189,245.452,119.3182,245.4841,108.6174,246.0701,97.9167,246.1314,97.8906,246.0683,97.418,246.1059,96.7149,245.5872,96.1033,245.2891,95.59,245.2283,94.9704,244.911,94.7565,244.8224,94.5598,244.2528,94.6904,243.8187,94.3779,243.2011,94.2297,242.6516,93.75,241.9647,93.6383,241.9647,93.8608,233.9671,93.955,225.9694,93.586,217.9718,93.7167,209.9742,93.75,201.9765,93.7904,201.9933,94.2032,201.4739,94.2368,200.7975,94.6306,200.2702,94.5487,199.5459,94.9704,199.0302,94.8804,198.813,95.6266,198.9477,96.0536,198.3121,96.8058,198.4613,97.3549,198.1202,97.9167,197.8099" style="stroke:#FFFFFF;stroke-width:1.0416666666666667;"/><text fill="#FFFFFF" font-family="&quot;Segoe Print&quot;" font-size="12.5" lengthAdjust="spacing" textLength="94.7917" x="109.375" y="227.7598">命令(Command)</text><path d="M271.875,498.5901 L271.875,498.7847 L269.7917,498.2065 L267.7083,498.7691 L265.625,498.9602 L263.5417,497.9295 L261.4583,498.5901 L261.4583,498.5901 L261.4254,498.5757 L260.2398,496.1339 L259.2204,493.7647 L258.3166,491.4459 L257.0146,488.9533 L256.2703,486.7041 L256.5235,486.7442 L255.5503,483.9301 L255.3163,481.233 L255.1724,478.5502 L254.5038,475.7844 L254.1112,473.0622 L254.1426,473.0656 L253.7105,469.5218 L253.4213,465.9936 L253.0631,462.4579 L252.8366,458.9365 L252.181,455.3683 L252.4906,455.3941 L252.1449,451.2073 L251.5996,447.0039 L251.3466,442.8248 L251.1073,438.6469 L250.4339,434.4327 L250.1008,434.4098 L250.4253,429.781 L249.653,425.0766 L249.7145,420.4297 L248.9174,415.7236 L248.8241,411.066 L248.7291,411.0604 L249.2541,400.9694 L247.5602,390.7477 L247.1756,380.6032 L246.901,370.4651 L245.8333,360.2804 L246.4104,360.3143 L245.2298,350.1229 L245.0353,339.9896 L243.2453,329.7623 L243.8351,319.6751 L242.8426,309.4947 L243.0958,309.5122 L242.726,304.8355 L242.4818,300.1675 L241.6536,295.4593 L241.2535,290.7806 L241.2328,286.128 L240.9461,286.104 L240.8562,281.9386 L240.4433,277.7462 L240.4989,273.5929 L239.7545,269.3728 L239.4857,265.1924 L239.3278,265.1752 L239.2047,261.6651 L238.4067,258.0814 L238.0886,254.55 L238.2402,251.0699 L237.5554,247.4985 L237.7547,247.53 L237.4595,244.8233 L236.5446,242.0185 L236.4059,239.3365 L236.0981,236.6277 L235.3963,233.8566 L235.1959,233.7691 L234.3181,231.4617 L233.3746,229.1255 L232.5601,226.8457 L231.2442,224.347 L230.2083,221.9706 L230.2083,222.3989 L228.125,221.4579 L226.0417,221.3435 L223.9583,222.4369 L221.875,221.3068 L219.7917,221.9706 " fill="none" style="stroke:#333333;stroke-width:3.125;"/><polygon fill="#4169E1" points="88.5417,266.9647,88.5417,267.1837,99.1319,266.5331,109.7222,267.1661,120.3125,267.3811,130.9028,266.2216,141.4931,266.8838,152.0833,266.5205,162.6736,266.5652,173.2639,266.8937,183.8542,266.2445,194.4444,267.5414,205.0347,266.3082,215.625,266.9647,215.5987,266.9013,216.2717,267.3474,216.7921,267.4254,217.4018,267.7188,217.9778,267.9308,218.5713,268.1851,218.6285,268.2088,218.8921,268.8061,219.2473,269.4414,219.5188,270.042,219.7655,270.6324,219.7917,271.1314,219.8801,271.1314,219.9526,279.129,220.0355,287.1267,219.5413,295.1243,220.0273,303.1219,219.7917,311.1196,219.6966,311.0802,219.7188,311.7798,219.1447,312.2323,219.0375,312.8783,219.0533,313.5752,218.5713,314.0659,218.5648,314.0502,217.996,314.3437,217.4378,314.6627,216.8588,314.9316,216.2137,315.0409,215.625,315.2863,215.625,315.5854,205.0347,314.69,194.4444,315.5825,183.8542,315.8573,173.2639,315.7493,162.6736,315.9248,152.0833,314.783,141.4931,314.6069,130.9028,314.639,120.3125,315.2249,109.7222,315.0815,99.1319,315.9961,88.5417,315.2863,88.5185,315.2302,87.9068,314.9321,87.3935,314.8713,86.6853,314.3401,86.1157,314.1434,85.5954,314.0659,85.8036,314.1521,85.4911,313.5345,85.3429,312.985,84.7599,312.2553,84.7215,311.7513,84.375,311.1196,84.58,311.1196,84.211,303.1219,84.3417,295.1243,84.4187,287.1267,84.6013,279.129,84.375,271.1314,84.3737,271.1308,84.7675,270.6036,84.6855,269.8793,84.89,269.2736,85.5129,268.8413,85.5954,268.1851,85.5001,267.9551,86.2523,268.1043,86.8014,267.7632,87.3276,267.3669,87.9054,267.0953,88.5417,266.9647" style="stroke:#FFFFFF;stroke-width:1.0416666666666667;"/><text fill="#FFFFFF" font-family="&quot;Segoe Print&quot;" font-size="12.5" lengthAdjust="spacing" textLength="104.1667" x="100" y="296.9147">拦截器(Interpreter)</text><path d="M271.875,498.5901 L271.875,498.7847 L269.7917,498.2065 L267.7083,498.7691 L265.625,498.9602 L263.5417,497.9295 L261.4583,498.5901 L261.4583,498.5901 L261.4272,498.572 L260.2501,496.7079 L259.2297,494.935 L258.3183,493.2255 L257.0313,491.2975 L256.2703,489.6756 L256.5211,489.7285 L255.553,487.5691 L255.3171,485.5641 L255.1705,483.578 L254.5042,481.4823 L254.1112,479.4442 L254.1425,479.4487 L253.7105,476.788 L253.4209,474.1479 L253.0626,471.4979 L252.8354,468.8669 L252.181,466.1737 L252.4898,466.2081 L252.1441,463.0682 L251.5993,459.9061 L251.346,456.7765 L251.1064,453.6484 L250.4339,450.4721 L250.1014,450.4415 L250.4247,446.9958 L249.6532,443.4495 L249.7141,439.9796 L248.9178,436.431 L248.8241,432.947 L248.7924,432.9445 L248.5682,425.356 L247.6053,417.7095 L247.0782,410.0973 L246.5878,402.4879 L245.8333,394.8578 L246.0254,394.8729 L245.2334,387.2398 L244.7696,379.6325 L243.7747,371.9835 L243.572,364.3967 L242.8426,356.7686 L243.0953,356.7918 L242.7256,353.2824 L242.4813,349.7845 L241.654,346.2331 L241.2541,342.7209 L241.2328,339.2435 L240.9469,339.2117 L240.8563,336.1002 L240.4435,332.9528 L240.4981,329.8574 L239.7547,326.6732 L239.4857,323.5418 L239.3285,323.519 L239.2042,320.903 L238.4081,318.1892 L238.0897,315.545 L238.2388,312.9687 L237.5554,310.2714 L237.7528,310.313 L237.4563,308.2953 L236.546,306.1481 L236.4046,304.1631 L236.0956,302.1427 L235.3963,300.04 L235.2073,299.93 L234.3204,298.2348 L233.3715,296.5035 L232.5443,294.8431 L231.2443,292.9074 L230.2083,291.1255 L230.2083,291.5538 L228.125,290.6127 L226.0417,290.4984 L223.9583,291.5918 L221.875,290.4617 L219.7917,291.1255 " fill="none" style="stroke:#333333;stroke-width:3.125;"/><polygon fill="#4169E1" points="107.2917,336.1196,107.2917,336.3385,118.125,335.688,128.9583,336.3209,139.7917,336.5359,150.625,335.3765,161.4583,336.0386,172.2917,335.6753,183.125,335.7201,193.9583,336.0486,204.7917,335.3994,215.625,336.1196,215.6986,336.2972,216.1305,336.1615,216.7772,336.5443,217.4502,336.9904,217.9706,337.0684,218.5713,337.34,218.5932,337.349,218.8051,337.925,219.1167,338.5422,219.3802,339.1395,219.7355,339.7748,219.7917,340.2863,220.0247,340.2863,220.0275,348.2839,219.8801,356.2815,219.9526,364.2792,220.0355,372.2768,219.7917,380.2745,219.5603,380.1786,219.7652,380.9539,219.2084,381.4136,219.2307,382.1132,218.6566,382.5657,218.5713,383.2207,218.5622,383.1988,218.0806,383.7027,217.3863,383.6933,216.8175,383.9867,216.2593,384.3057,215.625,384.4411,215.625,384.8747,204.7917,384.4371,193.9583,384.7403,183.125,383.8449,172.2917,384.7374,161.4583,385.0122,150.625,384.9042,139.7917,385.0797,128.9583,383.9379,118.125,383.7618,107.2917,384.4411,107.2091,384.2418,106.6946,384.1782,106.087,383.8899,105.6144,383.9275,104.9114,383.4088,104.3454,383.2207,104.2353,383.1751,104.1745,382.6618,103.6433,381.9536,103.4466,381.384,103.5773,380.9499,103.125,380.2745,103.2763,380.2745,103.38,372.2768,103.0133,364.2792,103.2358,356.2815,103.33,348.2839,103.125,340.2863,102.9735,340.2235,103.3383,339.6843,103.6536,339.1245,104.0663,338.6051,104.1,337.9287,104.3454,337.34,104.4069,337.4884,104.8611,336.9182,105.4339,336.6346,106.1801,336.7693,106.6071,336.1337,107.2917,336.1196" style="stroke:#FFFFFF;stroke-width:1.0416666666666667;"/><text fill="#FFFFFF" font-family="&quot;Segoe Print&quot;" font-size="12.5" lengthAdjust="spacing" textLength="85.4167" x="118.75" y="366.0695">迭代器(Iterator)</text><path d="M271.875,498.5901 L271.875,498.7847 L269.7917,498.2065 L267.7083,498.7691 L265.625,498.9602 L263.5417,497.9295 L261.4583,498.5901 L261.4583,498.5901 L261.4312,498.5664 L260.272,497.2716 L259.2494,496.0961 L258.3218,495.0035 L257.0668,493.6252 L256.2703,492.6471 L256.5184,492.7118 L255.1701,489.4398 L254.546,486.3568 L254.0102,483.2969 L252.9604,480.1027 L252.181,476.9792 L252.2122,476.9844 L251.817,474.8832 L251.5637,472.8057 L251.2419,470.7168 L251.0507,468.6496 L250.4339,466.5114 L250.7416,466.5538 L250.4234,464.2177 L249.9067,461.8541 L249.6806,459.5307 L249.4681,457.2091 L248.8241,454.828 L248.4925,454.789 L248.5379,449.7862 L247.4914,444.6548 L247.2751,439.6212 L246.2039,434.487 L245.8333,429.4352 L245.8018,429.4315 L245.5762,424.3968 L244.6146,419.2755 L244.0873,414.2052 L243.5965,409.1393 L242.8426,404.0424 L243.0335,404.0687 L242.5189,401.7055 L242.3304,399.3872 L241.6142,396.9962 L241.6852,394.7137 L241.2328,392.359 L241.4831,392.4008 L241.0864,390.2994 L240.8139,388.2186 L239.9639,386.0415 L239.5373,383.9351 L239.4857,381.8913 L239.2073,381.8186 L238.6414,378.7508 L237.7619,375.6011 L237.3373,372.5702 L236.1359,369.3365 L235.3963,366.2234 L235.2767,366.1189 L234.4383,365.1043 L233.0886,363.6431 L232.1025,362.4995 L231.4723,361.6665 L230.2083,360.2804 L230.2083,360.6838 L228.125,360.9604 L226.0417,359.9824 L223.9583,360.5759 L221.875,360.827 L219.7917,360.2804 " fill="none" style="stroke:#333333;stroke-width:3.125;"/><polygon fill="#4169E1" points="97.9167,405.2745,97.9167,405.4934,108.6174,404.8429,119.3182,405.4758,130.0189,405.6908,140.7197,404.5313,151.4205,405.1935,162.1212,404.8302,172.822,404.875,183.5227,405.2035,194.2235,404.5543,204.9242,405.8512,215.625,405.2745,215.5413,405.0723,216.188,405.4551,216.8609,405.9012,217.3814,405.9792,217.9911,406.2727,218.5713,406.4948,218.561,406.4906,218.8726,407.1078,219.1361,407.7051,219.4914,408.3404,219.7629,408.941,219.7917,409.4411,220.0275,409.4411,219.8801,417.4388,219.9526,425.4364,220.0355,433.434,219.5413,441.4317,219.7917,449.4293,220.0093,449.5195,219.4525,449.9792,219.4748,450.6788,218.9006,451.1313,218.7934,451.7772,218.5713,452.3756,218.6698,452.6135,217.9755,452.604,217.4068,452.8975,216.8485,453.2165,216.2696,453.4854,215.625,453.596,215.625,453.5919,204.9242,453.8952,194.2235,452.9997,183.5227,453.8922,172.822,454.167,162.1212,454.059,151.4205,454.2346,140.7197,453.0928,130.0189,452.9166,119.3182,452.9487,108.6174,453.5347,97.9167,453.596,97.8906,453.5329,97.418,453.5705,96.7149,453.0518,96.1033,452.7537,95.59,452.6929,94.9704,452.3756,94.7565,452.287,94.5598,451.7174,94.6904,451.2833,94.3779,450.6657,94.2297,450.1162,93.75,449.4293,93.6383,449.4293,93.8608,441.4317,93.955,433.434,93.586,425.4364,93.7167,417.4388,93.75,409.4411,93.7904,409.4579,94.2032,408.9385,94.2368,408.2621,94.6306,407.7348,94.5487,407.0105,94.9704,406.4948,94.8804,406.2776,95.6266,406.4123,96.0536,405.7767,96.8058,405.9259,97.3549,405.5848,97.9167,405.2745" style="stroke:#FFFFFF;stroke-width:1.0416666666666667;"/><text fill="#FFFFFF" font-family="&quot;Segoe Print&quot;" font-size="12.5" lengthAdjust="spacing" textLength="94.7917" x="109.375" y="435.2244">调节者(Mediator)</text><path d="M271.875,498.5901 L271.875,498.7847 L269.7917,498.2065 L267.7083,498.7691 L265.625,498.9602 L263.5417,497.9295 L261.4583,498.5901 L261.4583,498.5901 L261.431,498.5667 L259.4531,496.3004 L257.6127,494.1523 L255.868,492.0863 L253.7936,489.7372 L252.181,487.7846 L252.4263,487.859 L251.2304,485.4849 L250.7506,483.3278 L250.3582,481.1973 L249.4574,478.9127 L248.8241,476.7091 L248.8548,476.7163 L248.2115,474.1664 L247.7082,471.6494 L247.1374,469.1166 L246.6954,466.6141 L245.8333,464.0127 L246.1357,464.0839 L245.5413,461.5455 L244.7518,458.9611 L244.2478,456.444 L243.7572,453.9301 L242.8426,451.3163 L242.5231,451.2194 L242.4718,449.1923 L241.3685,446.8462 L241.065,444.7426 L239.9377,442.3893 L239.4857,440.2407 L239.4616,440.22 L237.8907,438.3032 L235.7576,435.9038 L233.9563,433.7892 L232.1827,431.6984 L230.2083,429.4352 L230.2083,429.8206 L228.125,429.4316 L226.0417,429.7012 L223.9583,428.9052 L221.875,429.6985 L219.7917,429.4352 " fill="none" style="stroke:#333333;stroke-width:3.125;"/><polygon fill="#4169E1" points="106.25,474.4293,106.25,474.6483,116.1932,473.9977,126.1364,474.6307,136.0795,474.8457,146.0227,473.6862,155.9659,474.3484,165.9091,473.9851,175.8523,474.0298,185.7955,474.3583,195.7386,473.7091,205.6818,475.006,215.625,474.4293,215.5413,474.2271,216.188,474.61,216.8609,475.056,217.3814,475.134,217.9911,475.4275,218.5713,475.6497,218.561,475.6455,218.8726,476.2627,219.1361,476.86,219.4914,477.4953,219.7629,478.0959,219.7917,478.596,220.0275,478.596,219.8801,486.5936,219.9526,494.5913,220.0355,502.5889,219.5413,510.5865,219.7917,518.5842,220.0093,518.6743,219.4525,519.134,219.4748,519.8336,218.9006,520.2862,218.7934,520.9321,218.5713,521.5305,218.6698,521.7684,217.9755,521.7589,217.4068,522.0524,216.8485,522.3713,216.2696,522.6403,215.625,522.7509,215.625,522.7468,205.6818,523.05,195.7386,522.1546,185.7955,523.0471,175.8523,523.3219,165.9091,523.2139,155.9659,523.3894,146.0227,522.2476,136.0795,522.0715,126.1364,522.1036,116.1932,522.6895,106.25,522.7509,106.2239,522.6878,105.7513,522.7254,105.0483,522.2067,104.4366,521.9086,103.9233,521.8478,103.3037,521.5305,103.0898,521.4419,102.8931,520.8722,103.0237,520.4382,102.7112,519.8206,102.563,519.271,102.0833,518.5842,101.9716,518.5842,102.1942,510.5865,102.2883,502.5889,101.9193,494.5913,102.05,486.5936,102.0833,478.596,102.1237,478.6127,102.5365,478.0933,102.5701,477.4169,102.964,476.8897,102.882,476.1654,103.3037,475.6497,103.2137,475.4325,103.9599,475.5672,104.387,474.9316,105.1391,475.0807,105.6882,474.7397,106.25,474.4293" style="stroke:#FFFFFF;stroke-width:1.0416666666666667;"/><text fill="#FFFFFF" font-family="&quot;Segoe Print&quot;" font-size="12.5" lengthAdjust="spacing" textLength="86.4583" x="117.7083" y="504.3793">备忘(Memento)</text><path d="M271.875,498.5901 L271.875,498.7847 L269.7917,498.2065 L267.7083,498.7691 L265.625,498.9602 L263.5417,497.9295 L261.4583,498.5901 L261.4583,498.5901 L261.4583,498.5541 L255.2083,498.3926 L248.9583,498.4125 L242.7083,498.5585 L236.4583,498.27 L230.2083,498.5901 L230.2083,499.1027 L228.125,498.0065 L226.0417,498.407 L223.9583,498.99 L221.875,498.5107 L219.7917,498.5901 " fill="none" style="stroke:#333333;stroke-width:3.125;"/><polygon fill="#4169E1" points="94.7917,543.5842,94.7917,543.8031,104.8611,543.1526,114.9306,543.7855,125,544.0005,135.0694,542.8411,145.1389,543.5032,155.2083,543.1399,165.2778,543.1847,175.3472,543.5132,185.4167,542.864,195.4861,544.1609,205.5556,542.9276,215.625,543.5842,215.5987,543.5207,216.2717,543.9668,216.7921,544.0448,217.4018,544.3383,217.9778,544.5503,218.5713,544.8046,218.6285,544.8283,218.8921,545.4256,219.2473,546.0609,219.5188,546.6615,219.7655,547.2519,219.7917,547.7509,219.8801,547.7509,219.9526,555.7485,220.0355,563.7461,219.5413,571.7438,220.0273,579.7414,219.7917,587.7391,219.6966,587.6997,219.7188,588.3992,219.1447,588.8518,219.0375,589.4977,219.0533,590.1946,218.5713,590.6853,218.5648,590.6697,217.996,590.9632,217.4378,591.2821,216.8588,591.5511,216.2137,591.6604,215.625,591.9057,215.625,592.2049,205.5556,591.3095,195.4861,592.202,185.4167,592.4768,175.3472,592.3688,165.2778,592.5443,155.2083,591.4025,145.1389,591.2264,135.0694,591.2584,125,591.8444,114.9306,591.701,104.8611,592.6155,94.7917,591.9057,94.7685,591.8497,94.1568,591.5516,93.6435,591.4908,92.9353,590.9596,92.3657,590.7629,91.8454,590.6853,92.0536,590.7716,91.7411,590.154,91.5929,589.6044,91.0099,588.8748,90.9715,588.3707,90.625,587.7391,90.83,587.7391,90.461,579.7414,90.5917,571.7438,90.6687,563.7461,90.8513,555.7485,90.625,547.7509,90.6237,547.7503,91.0175,547.2231,90.9355,546.4988,91.14,545.8931,91.7629,545.4608,91.8454,544.8046,91.7501,544.5746,92.5023,544.7238,93.0514,544.3827,93.5776,543.9864,94.1554,543.7148,94.7917,543.5842" style="stroke:#FFFFFF;stroke-width:1.0416666666666667;"/><text fill="#FFFFFF" font-family="&quot;Segoe Print&quot;" font-size="12.5" lengthAdjust="spacing" textLength="97.9167" x="106.25" y="573.5341">观察者(Observer)</text><path d="M271.875,498.5901 L271.875,498.7847 L269.7917,498.2065 L267.7083,498.7691 L265.625,498.9602 L263.5417,497.9295 L261.4583,498.5901 L261.4583,498.5901 L261.431,498.5667 L259.4531,500.6226 L257.6127,502.7966 L255.868,505.0528 L253.7936,507.0259 L252.181,509.3955 L252.4263,509.4699 L251.2304,511.526 L250.7506,513.7992 L250.3582,516.0989 L249.4574,518.2445 L248.8241,520.4711 L248.8548,520.4784 L248.2115,523.007 L247.7082,525.5686 L247.1374,528.1143 L246.6954,530.6904 L245.8333,533.1675 L246.1357,533.2388 L245.5413,535.7789 L244.7518,538.2731 L244.2478,540.8346 L243.7572,543.3992 L242.8426,545.8639 L242.5231,545.7671 L242.4718,548.1702 L241.3685,550.2543 L241.065,552.581 L239.9377,554.6579 L239.4857,556.9395 L239.4616,556.9188 L237.8907,559.3243 L235.7576,561.247 L233.9563,563.4545 L232.1827,565.686 L230.2083,567.745 L230.2083,568.1304 L228.125,567.7413 L226.0417,568.0109 L223.9583,567.2149 L221.875,568.0083 L219.7917,567.745 " fill="none" style="stroke:#333333;stroke-width:3.125;"/><polygon fill="#4169E1" points="130.2083,612.7391,130.2083,612.958,140.8854,612.3075,151.5625,612.9404,162.2396,613.1554,172.9167,611.9959,183.5938,612.6581,194.2708,612.2948,204.9479,612.3396,215.625,612.7391,215.6159,612.7172,216.1224,612.7613,216.8771,613.4048,217.309,613.2691,217.9557,613.6519,218.5713,613.9594,218.7098,614.0168,218.7878,614.5373,219.0813,615.147,219.2933,615.723,219.6049,616.3402,219.7917,616.9057,219.8747,616.9057,219.995,624.9034,220.0247,632.901,220.0275,640.8986,219.8801,648.8963,219.7917,656.8939,219.9404,656.9555,219.7729,657.5765,219.0722,657.9766,219.2771,658.7518,218.7202,659.2115,218.5713,659.8402,218.6422,660.0114,217.9162,659.9255,217.3837,660.3064,216.9021,660.8103,216.2078,660.8009,215.625,661.0606,215.625,661.1703,204.9479,661.4133,194.2708,661.4942,183.5938,661.0565,172.9167,661.3598,162.2396,660.4643,151.5625,661.3568,140.8854,661.6316,130.2083,661.0606,130.2674,661.2032,129.7005,661.0132,128.9656,660.4175,128.3539,660.1191,127.7687,659.8849,127.2621,659.8402,127.2432,659.8324,126.9549,659.2248,126.9925,658.7522,126.4738,658.0492,126.1757,657.4376,126.0417,656.8939,126.1209,656.8939,125.8101,648.8963,125.8614,640.8986,126.267,632.901,126.1929,624.9034,126.0417,616.9057,126.2773,617.0033,126.1825,616.2737,126.6322,615.7696,126.9633,615.2164,126.8664,614.4859,127.2621,613.9594,127.2493,613.9287,127.8681,613.7558,128.5272,613.6804,129.0293,613.2259,129.6805,613.1315,130.2083,612.7391" style="stroke:#FFFFFF;stroke-width:1.0416666666666667;"/><text fill="#FFFFFF" font-family="&quot;Segoe Print&quot;" font-size="12.5" lengthAdjust="spacing" textLength="62.5" x="141.6667" y="642.689">状态(State)</text><path d="M271.875,498.5901 L271.875,498.7847 L269.7917,498.2065 L267.7083,498.7691 L265.625,498.9602 L263.5417,497.9295 L261.4583,498.5901 L261.4583,498.5901 L261.4312,498.5664 L260.272,499.6488 L259.2494,500.8505 L258.3218,502.1351 L257.0668,503.134 L256.2703,504.5331 L256.5184,504.5978 L255.1701,507.593 L254.546,510.7771 L254.0102,513.9843 L252.9604,517.0574 L252.181,520.201 L252.2122,520.2062 L251.817,522.2921 L251.5637,524.4017 L251.2419,526.4999 L251.0507,528.6198 L250.4339,530.6688 L250.7416,530.7112 L250.4234,533.0484 L249.9067,535.3582 L249.6806,537.7081 L249.4681,540.0598 L248.8241,542.3522 L248.4925,542.3131 L248.5379,547.4675 L247.4914,552.4932 L247.2751,557.6167 L246.2039,562.6396 L245.8333,567.745 L245.8018,567.7412 L245.5762,572.8637 L244.6146,577.8994 L244.0873,582.9863 L243.5965,588.0775 L242.8426,593.1378 L243.0335,593.1641 L242.5189,595.4742 L242.3304,597.8293 L241.6142,600.1116 L241.6852,602.5024 L241.2328,604.8211 L241.4831,604.8629 L241.0864,606.9486 L240.8139,609.055 L239.9639,611.065 L239.5373,613.1457 L239.4857,615.2889 L239.2073,615.2163 L238.6414,618.4156 L237.7619,621.5331 L237.3373,624.7693 L236.1359,627.8028 L235.3963,630.9568 L235.2767,630.8524 L234.4383,632.2149 L233.0886,633.131 L232.1025,634.3646 L231.4723,635.9088 L230.2083,636.8998 L230.2083,637.3032 L228.125,637.5799 L226.0417,636.6019 L223.9583,637.1954 L221.875,637.4465 L219.7917,636.8998 " fill="none" style="stroke:#333333;stroke-width:3.125;"/><polygon fill="#4169E1" points="113.5417,681.8939,113.5417,682.1129,123.75,681.4623,133.9583,682.0953,144.1667,682.3103,154.375,681.1508,164.5833,681.813,174.7917,681.4497,185,681.4944,195.2083,681.8229,205.4167,681.1737,215.625,681.8939,215.6986,682.0715,216.1305,681.9358,216.7772,682.3186,217.4502,682.7647,217.9706,682.8427,218.5713,683.1143,218.5932,683.1234,218.8051,683.6993,219.1167,684.3165,219.3802,684.9139,219.7355,685.5492,219.7917,686.0606,220.0247,686.0606,220.0275,694.0582,219.8801,702.0559,219.9526,710.0535,220.0355,718.0511,219.7917,726.0488,219.5603,725.953,219.7652,726.7282,219.2084,727.1879,219.2307,727.8875,218.6566,728.34,218.5713,728.9951,218.5622,728.9731,218.0806,729.477,217.3863,729.4676,216.8175,729.7611,216.2593,730.08,215.625,730.2155,215.625,730.649,205.4167,730.2114,195.2083,730.5146,185,729.6192,174.7917,730.5117,164.5833,730.7865,154.375,730.6785,144.1667,730.854,133.9583,729.7122,123.75,729.5361,113.5417,730.2155,113.4591,730.0161,112.9446,729.9525,112.337,729.6643,111.8644,729.7018,111.1614,729.1831,110.5954,728.9951,110.4853,728.9495,110.4245,728.4361,109.8933,727.7279,109.6966,727.1583,109.8273,726.7243,109.375,726.0488,109.5263,726.0488,109.63,718.0511,109.2633,710.0535,109.4858,702.0559,109.58,694.0582,109.375,686.0606,109.2235,685.9978,109.5883,685.4586,109.9036,684.8988,110.3163,684.3794,110.35,683.703,110.5954,683.1143,110.6569,683.2627,111.1111,682.6926,111.6839,682.4089,112.4301,682.5436,112.8571,681.908,113.5417,681.8939" style="stroke:#FFFFFF;stroke-width:1.0416666666666667;"/><text fill="#FFFFFF" font-family="&quot;Segoe Print&quot;" font-size="12.5" lengthAdjust="spacing" textLength="79.1667" x="125" y="711.8439">策略(Strategy)</text><path d="M271.875,498.5901 L271.875,498.7847 L269.7917,498.2065 L267.7083,498.7691 L265.625,498.9602 L263.5417,497.9295 L261.4583,498.5901 L261.4583,498.5901 L261.4272,498.572 L260.2501,500.2737 L259.2297,502.0666 L258.3183,503.9229 L257.0313,505.5607 L256.2703,507.5046 L256.5211,507.5575 L255.553,509.4906 L255.3171,511.5782 L255.1705,513.6847 L254.5042,515.6815 L254.1112,517.736 L254.1425,517.7405 L253.7105,520.388 L253.4209,523.0561 L253.0626,525.7142 L252.8354,528.3914 L252.181,531.0064 L252.4898,531.0408 L252.1441,534.1815 L251.5993,537.3001 L251.346,540.4512 L251.1064,543.6037 L250.4339,546.7081 L250.1014,546.6776 L250.4247,550.2418 L249.6532,553.7056 L249.7141,557.2458 L248.9178,560.7072 L248.8241,564.2332 L248.7924,564.2307 L248.5682,571.8779 L247.6053,579.4671 L247.0782,587.0905 L246.5878,594.7168 L245.8333,602.3224 L246.0254,602.3375 L245.2334,609.9401 L244.7696,617.5685 L243.7747,625.1552 L243.572,632.8041 L242.8426,640.4116 L243.0953,640.4348 L242.7256,643.9354 L242.4813,647.4476 L241.654,650.9062 L241.2541,654.404 L241.2328,657.9367 L240.9469,657.9049 L240.8563,661.074 L240.4435,664.2073 L240.4981,667.3926 L239.7547,670.4891 L239.4857,673.6383 L239.3285,673.6155 L239.2042,676.3076 L238.4081,678.9021 L238.0897,681.566 L238.2388,684.2979 L237.5554,686.9088 L237.7528,686.9504 L237.4563,689.0253 L236.546,690.9706 L236.4046,693.0781 L236.0956,695.1504 L235.3963,697.1402 L235.2073,697.0302 L234.3204,698.9008 L233.3715,700.7353 L232.5443,702.6407 L231.2443,704.2708 L230.2083,706.0547 L230.2083,706.483 L228.125,705.5419 L226.0417,705.4276 L223.9583,706.521 L221.875,705.3909 L219.7917,706.0547 " fill="none" style="stroke:#333333;stroke-width:3.125;"/><polygon fill="#4169E1" points="35.4167,751.0488,35.4167,751.2677,46.0172,750.6172,56.6176,751.2501,67.2181,751.4651,77.8186,750.3057,88.4191,750.9678,99.0196,750.6045,109.6201,750.6493,120.2206,750.9778,130.8211,750.3286,141.4216,751.6255,152.0221,750.3922,162.6225,750.8428,173.223,751.4987,183.8235,750.9594,194.424,751.1199,205.0245,751.0155,215.625,751.0488,215.6487,751.1061,216.246,751.3696,216.8813,751.7248,217.4819,751.9963,218.0723,752.243,218.5713,752.2692,218.653,752.303,218.9641,752.92,219.2847,753.541,219.0722,753.9411,219.7652,754.7164,219.7917,755.2155,219.6887,755.2155,219.977,763.2131,219.6198,771.2107,219.7679,779.2084,220.0492,787.206,219.7917,795.2037,219.776,795.1972,219.5814,795.8069,219.4121,796.4272,219.193,797.0267,218.8141,797.5602,218.5713,798.1499,218.6094,798.2421,217.906,798.2104,217.4306,798.7293,216.8764,799.058,216.2733,799.2688,215.625,799.3703,215.625,800.0089,205.0245,798.8671,194.424,798.691,183.8235,798.723,173.223,799.309,162.6225,799.1656,152.0221,800.0801,141.4216,799.1884,130.8211,799.013,120.2206,799.6081,109.6201,798.6757,99.0196,798.8296,88.4191,800.0463,77.8186,799.8241,67.2181,800.1354,56.6176,799.0351,46.0172,799.7028,35.4167,799.3703,35.4951,799.5597,34.7646,798.9747,34.2254,798.8514,33.6656,798.6785,33.1462,798.6031,32.4704,798.1499,32.469,798.1494,32.3747,797.6221,31.8046,796.8978,31.5209,796.2922,31.6556,795.8598,31.25,795.2037,31.0011,795.2037,31.4267,787.206,31.3217,779.2084,31.157,771.2107,31.1272,763.2131,31.25,755.2155,31.3972,755.2764,31.3981,754.5864,31.928,754.1156,31.8049,753.3742,32.4244,752.9405,32.4704,752.2692,32.5347,752.4245,33.0922,752.1037,33.6552,751.7962,34.3347,751.77,34.9089,751.4897,35.4167,751.0488" style="stroke:#FFFFFF;stroke-width:1.0416666666666667;"/><text fill="#FFFFFF" font-family="&quot;Segoe Print&quot;" font-size="12.5" lengthAdjust="spacing" textLength="157.2917" x="46.875" y="780.9987">模板方法(Template Method)</text><path d="M271.875,498.5901 L271.875,498.7847 L269.7917,498.2065 L267.7083,498.7691 L265.625,498.9602 L263.5417,497.9295 L261.4583,498.5901 L261.4583,498.5901 L261.4254,498.5757 L260.2398,500.8883 L259.2204,503.2735 L258.3166,505.7091 L257.0146,507.9708 L256.2703,510.4761 L256.5235,510.5161 L255.5503,513.1588 L255.3163,515.9185 L255.1724,518.6925 L254.5038,521.3834 L254.1112,524.118 L254.1426,524.1214 L253.7105,527.6551 L253.4213,531.2045 L253.0631,534.7463 L252.8366,538.3025 L252.181,541.8119 L252.4906,541.8377 L252.1449,546.0251 L251.5996,550.1959 L251.3466,554.3911 L251.1073,558.5874 L250.4339,562.7474 L250.1008,562.7245 L250.4253,567.4424 L249.653,572.0847 L249.7145,576.7845 L248.9174,581.4251 L248.8241,586.1142 L248.7291,586.1086 L249.2541,596.3319 L247.5602,606.4245 L247.1756,616.5942 L246.901,626.7703 L245.8333,636.8998 L246.4104,636.9338 L245.2298,647.0566 L245.0353,657.2375 L243.2453,667.3244 L243.8351,677.5515 L242.8426,687.6854 L243.0958,687.7029 L242.726,692.3729 L242.4818,697.0516 L241.6536,701.6901 L241.2535,706.3581 L241.2328,711.0522 L240.9461,711.0283 L240.8562,715.2371 L240.4433,719.4189 L240.4989,723.6398 L239.7545,727.7939 L239.4857,731.9878 L239.3278,731.9705 L239.2047,735.538 L238.4067,739.0319 L238.0886,742.5781 L238.2402,746.1755 L237.5554,749.6817 L237.7547,749.7132 L237.4595,752.4632 L236.5446,755.1151 L236.4059,757.8899 L236.0981,760.6379 L235.3963,763.3236 L235.1959,763.2361 L234.3181,765.683 L233.3746,768.1013 L232.5601,770.5759 L231.2442,772.8316 L230.2083,775.2096 L230.2083,775.6379 L228.125,774.6968 L226.0417,774.5825 L223.9583,775.6759 L221.875,774.5457 L219.7917,775.2096 " fill="none" style="stroke:#333333;stroke-width:3.125;"/><polygon fill="#4169E1" points="111.4583,820.2037,111.4583,820.4226,121.875,819.7721,132.2917,820.405,142.7083,820.62,153.125,819.4605,163.5417,820.1227,173.9583,819.7594,184.375,819.8042,194.7917,820.1327,205.2083,819.4835,215.625,820.2037,215.6986,820.3813,216.1305,820.2455,216.7772,820.6284,217.4502,821.0745,217.9706,821.1524,218.5713,821.424,218.5932,821.4331,218.8051,822.0091,219.1167,822.6263,219.3802,823.2236,219.7355,823.8589,219.7917,824.3703,220.0247,824.3703,220.0275,832.368,219.8801,840.3656,219.9526,848.3632,220.0355,856.3609,219.7917,864.3585,219.5603,864.2627,219.7652,865.0379,219.2084,865.4976,219.2307,866.1972,218.6566,866.6498,218.5713,867.3048,218.5622,867.2828,218.0806,867.7868,217.3863,867.7773,216.8175,868.0708,216.2593,868.3897,215.625,868.5252,215.625,868.9588,205.2083,868.5211,194.7917,868.8244,184.375,867.9289,173.9583,868.8214,163.5417,869.0962,153.125,868.9882,142.7083,869.1638,132.2917,868.022,121.875,867.8458,111.4583,868.5252,111.3758,868.3258,110.8613,868.2622,110.2537,867.974,109.7811,868.0115,109.0781,867.4928,108.5121,867.3048,108.402,867.2592,108.3412,866.7459,107.81,866.0377,107.6133,865.4681,107.7439,865.034,107.2917,864.3585,107.4429,864.3585,107.5467,856.3609,107.1799,848.3632,107.4025,840.3656,107.4967,832.368,107.2917,824.3703,107.1401,824.3075,107.505,823.7683,107.8202,823.2085,108.233,822.6892,108.2666,822.0127,108.5121,821.424,108.5735,821.5724,109.0277,821.0023,109.6006,820.7186,110.3467,820.8534,110.7738,820.2177,111.4583,820.2037" style="stroke:#FFFFFF;stroke-width:1.0416666666666667;"/><text fill="#FFFFFF" font-family="&quot;Segoe Print&quot;" font-size="12.5" lengthAdjust="spacing" textLength="81.25" x="122.9167" y="850.1536">访问者(Visitor)</text><path d="M271.875,498.5901 L271.875,498.7847 L269.7917,498.2065 L267.7083,498.7691 L265.625,498.9602 L263.5417,497.9295 L261.4583,498.5901 L261.4583,498.5901 L261.4244,498.5782 L260.2343,501.4965 L259.2155,504.4746 L258.3158,507.4942 L257.0058,510.3706 L256.2703,513.4476 L256.5246,513.4798 L255.549,516.8214 L255.3159,520.257 L255.1733,523.7041 L254.5037,527.0845 L254.1112,530.4999 L254.1427,530.5027 L253.7104,534.9221 L253.4215,539.3541 L253.0634,543.78 L252.8372,548.2174 L252.181,552.6173 L252.491,552.638 L252.1453,557.8722 L251.5998,563.093 L251.3469,568.3333 L251.1077,573.5745 L250.4339,578.7868 L250.1005,578.7684 L250.4255,584.6458 L249.6529,590.4626 L249.7147,596.3255 L248.9172,602.1409 L248.8241,607.9952 L248.729,607.9908 L249.3545,618.6241 L247.7595,629.1527 L247.4748,639.7431 L247.3,650.3387 L246.9092,660.9241 L245.8333,671.4773 L245.8279,671.477 L245.7333,682.0764 L244.0423,692.6005 L244.7325,703.2368 L244.6001,713.8344 L243.9578,724.408 L242.8426,734.9593 L243.126,734.9749 L242.2973,740.7886 L241.8972,746.626 L241.5895,752.4685 L241.5276,758.3245 L241.2328,764.1677 L241.142,764.1617 L241.1981,769.4226 L240.4533,774.6301 L240.0261,779.8588 L239.9405,785.1103 L239.4857,790.3372 L239.1781,790.3103 L238.8602,794.7398 L239.0129,799.2103 L238.5285,803.6252 L238.2802,808.0607 L237.5554,812.4546 L237.4076,812.4359 L237.2702,815.8836 L236.963,819.3099 L236.043,822.6585 L235.7841,826.0909 L235.3963,829.5069 L235.4514,829.5262 L234.6436,832.5779 L233.3193,835.4493 L232.4857,838.492 L231.0039,841.3084 L230.2083,844.3644 L230.2083,843.7373 L228.125,844.8307 L226.0417,843.7006 L223.9583,844.8357 L221.875,844.5557 L219.7917,844.3644 " fill="none" style="stroke:#333333;stroke-width:3.125;"/><path d="M405.2083,498.5901 L405.2083,498.7847 L403.125,498.2065 L401.0417,498.7691 L398.9583,498.9602 L396.875,497.9295 L394.7917,498.5901 L394.7917,498.5901 L394.7917,498.5541 L388.5417,498.3926 L382.2917,498.4125 L376.0417,498.5585 L369.7917,498.27 L363.5417,498.5901 L363.5417,499.1027 L361.4583,498.0065 L359.375,498.407 L357.2917,498.99 L355.2083,498.5107 L353.125,498.5901 " fill="none" style="stroke:#333333;stroke-width:3.125;"/><!--MD5=[dc4d4171707730d789bb71a2a33bdb1b]
@startmindmap Spring Design Pattern
!theme sketchy
<style>
mindmapDiagram {
    :depth(0) {
        BackGroundColor red
    }
    node {
        BackgroundColor PowDerBlue
    }
    :depth(1) {
        BackGroundColor DarkSlateBlue
    }
    :depth(2) {
        BackGroundColor RoyalBlue
    }
}
</style>

title  设计模式
+[#SlateGray] 传统GoF 23
++ 创建模式
+++ 抽象工厂(Abstract Factory)
+++ 构建器(Builder)
+++ 工厂方法(Factory Method)
+++ 原型(Prototype)
+++ 单体(Singleton)

++[#CornflowerBlue] 结构模式
+++ 适配器(Adapter)
+++ 桥接(Bridge)
+++ 组合(Composite)
+++ 装饰器(Decorator)
+++ 门面(Facade)
+++ 轻量级(Flyweight)
+++ 代理(Proxy)

- -[#SteelBlue] 行为模式
- - - 责任链(Chain of Responsibility)
- - - 命令(Command)
- - - 拦截器(Interpreter)
- - - 迭代器(Iterator)
- - - 调节者(Mediator)
- - - 备忘(Memento)
- - - 观察者(Observer)
- - - 状态(State)
- - - 策略(Strategy)
- - - 模板方法(Template Method)
- - - 访问者(Visitor)


@endmindmap

@startmindmap Spring Design Pattern



skinparam backgroundColor transparent
skinparam useBetaStyle false
skinparam handwritten true
skinparam shadowing false






<style>
  root {
    BackgroundColor transparent
    FontColor #ffffff
    HyperLinkColor #fd7e14
    LineColor #2e2e2e
    LineThickness 1
    Margin 10
    Padding 6
    Shadowing 0.0
  }
  node {
   Padding 15
   roundcorner 20
   BackgroundColor #333333-#2e2e2e
  }
  caption {
    LineThickness 0
  }
  footer {
    LineThickness 0
  }
  groupHeader {
    BackgroundColor #555555
    FontColor #17a2b8
    FontStyle bold
  }
  header {
    LineThickness 0
  }
  referenceHeader {
    BackgroundColor transparent
    FontColor #555555
    FontStyle bold
  }
  separator {
    BackgroundColor #ffffff
    FontColor transparent
    FontStyle bold
  }
  title {
	FontSize 20
	BorderRoundCorner            8
	BorderThickness 	         1
	BackgroundColor  #666666-#555555
	FontColor #333333
	BorderColor #555555
  }
  nwdiagDiagram {
	network {
			FontColor #ffffff
	BorderColor #333333
	BackgroundColor #474747    
		LineColor #333333
		LineThickness 1.0
		FontColor #2e2e2e
	}
	server {
			FontColor #ffffff
	BorderColor #333333
	BackgroundColor #474747
	}
	arrow {
		FontColor #2e2e2e
		LineColor #2e2e2e
	}
	group {
		BackGroundColor #ffffff
		LineColor #e6e6e6
		LineThickness 2.0
		Margin 5
		Padding 5
	}
  }
  ganttDiagram {
	task {
			FontColor #ffffff
	BorderColor #333333
	BackgroundColor #474747
		LineColor #333333
		Margin 10
		Padding 6
	}
	note {
		FontColor #ffffff
		LineColor #1592a6
		BackGroundColor #17a2b8
	}
	separator {
		LineColor #555555
		BackGroundColor #555555-#4d4d4d
		FontColor #ffffff
	}
	milestone {
		FontColor #17a2b8
		FontSize 16
		FontStyle italic
		BackGroundColor #555555
		LineColor #4d4d4d
	}
	timeline {
		BackgroundColor #555555
		FontColor #ffffff
	}
	closed {
		BackgroundColor #e6ae06
		FontColor #ffffff
	}
  }
</style>
skinparam defaultFontName       "Segoe Print"
skinparam defaultFontSize       12
skinparam dpi                   100
skinparam shadowing             false
skinparam roundcorner           8
skinparam ParticipantPadding    40
skinparam BoxPadding            40
skinparam Padding               5
skinparam ArrowColor            #555555
skinparam stereotype {
    CBackgroundColor #666666
    CBorderColor #4d4d4d
    ABackgroundColor #3eb058
    ABorderColor #24963e
    IBackgroundColor #e04958
    IBorderColor #c6303e
    EBackgroundColor #ffc720
    EBorderColor #e6ae06
    NBackgroundColor #2eabbf
    NBorderColor #1592a6
}
skinparam title {
	FontColor	                 #ffffff
	BorderColor	                 #4d4d4d
	FontSize	    	         20
	BorderRoundCorner            8
	BorderThickness 	         1
	BackgroundColor              #666666-#555555
}

skinparam legend {
	BackgroundColor #555555
	BorderColor #4d4d4d
	FontColor #ffffff
}

skinparam swimlane {
	BorderColor #17a2b8
	BorderThickness 2
	TitleBackgroundColor  #666666-#555555
	TitleFontColor #ffffff
}


skinparam activity {
		FontColor #ffffff
	BorderColor #333333
	BackgroundColor #474747
	BarColor #28a745
	StartColor #17a2b8
	EndColor #17a2b8
	DiamondBackgroundColor #666666
  	DiamondBorderColor #4d4d4d
  	DiamondFontColor #ffffff
}


skinparam participant {
		FontColor #ffffff
	BorderColor #333333
	BackgroundColor #474747
	ParticipantBorderThickness 2
}


skinparam actor {
		FontColor #ffffff
	BorderColor #333333
	BackgroundColor #474747
}


skinparam arrow {
	Thickness 3
	Color #333333
	FontColor #ffffff
}


skinparam sequence {
	BorderColor #333333
	TitleFontColor #333333
	BackgroundColor transparent
	StartColor #333333
	EndColor #333333
	BoxBackgroundColor transparent
	BoxBorderColor #555555
	BoxFontColor #555555
	DelayFontColor #555555
	LifeLineBorderColor #555555
	LifeLineBorderThickness 2
	LifeLineBackgroundColor #4d4d4d
	GroupBorderColor #555555
	GroupFontColor #555555
	GroupHeaderFontColor #17a2b8
	GroupBackgroundColor #555555
	GroupHeaderBackgroundColor transparent
	DividerBackgroundColor #555555
    DividerBorderColor #555555
    DividerBorderThickness 2
    DividerFontColor #ffffff
	ReferenceBackgroundColor transparent
	ReferenceBorderColor #555555
	ReferenceFontColor #555555
	ReferenceHeaderFontColor #17a2b8
	ReferenceHeaderBackgroundColor #555555
	StereotypeFontColor #ffffff
}


skinparam partition {
	BorderColor #333333
	FontColor #333333
	BackgroundColor transparent
}


skinparam collections {
		FontColor #ffffff
	BorderColor #333333
	BackgroundColor #474747
}


skinparam control {
		FontColor #ffffff
	BorderColor #333333
	BackgroundColor #474747
}


skinparam entity {
		FontColor #ffffff
	BorderColor #333333
	BackgroundColor #474747
}


skinparam boundary {
		FontColor #ffffff
	BorderColor #333333
	BackgroundColor #474747
}


skinparam agent {
	BackgroundColor #ffc107
	BorderColor #ffc720
	FontColor #555555
}


skinparam note {
	BorderThickness 1
	BackgroundColor #17a2b8
	BorderColor #1592a6
	FontColor #ffffff
}


skinparam artifact {
	BackgroundColor #555555
	BorderColor #4d4d4d
	FontColor #ffffff
}


skinparam component {
		FontColor #ffffff
	BorderColor #333333
	BackgroundColor #474747
}


skinparam interface {
	BackgroundColor  #c6303e
	BorderColor  #dc3545
	FontColor #555555
}


skinparam storage {
	BackgroundColor #ffc107
  	BorderColor #e6ae06
	FontColor #ffffff
}


skinparam node {
	BackgroundColor  #555555
	BorderColor #ffffff
	FontColor #ffffff
}


skinparam cloud {
	BackgroundColor #F2FCFE-#eeeeee
	BorderColor #F2FCFE
	FontColor #555555
}


skinparam database {
		FontColor #ffffff
	BorderColor #333333
	BackgroundColor #474747
}


skinparam class {
		FontColor #ffffff
	BorderColor #333333
	BackgroundColor #474747
	FontColor #ffffff
	HeaderBackgroundColor #474747
	StereotypeFontColor #555555
	BorderThickness 1
	AttributeFontColor #ffffff
	AttributeFontSize 11
}


skinparam object {
		FontColor #ffffff
	BorderColor #333333
	BackgroundColor #474747
	StereotypeFontColor #555555
	BorderThickness 1
	AttributeFontColor #ffffff
	AttributeFontSize 11
}


skinparam usecase {
		FontColor #ffffff
	BorderColor #333333
	BackgroundColor #474747
	BorderThickness 2
	StereotypeFontColor #333333
}


skinparam rectangle {
		FontColor #ffffff
	BorderColor #333333
	BackgroundColor #474747
	BackgroundColor #666666
	BorderThickness 2
	StereotypeFontColor #333333
}


skinparam package {
	BackgroundColor #555555
  	BorderColor #333333
	FontColor #333333
	BorderThickness 2
}


skinparam folder {
	BackgroundColor #666666
  	BorderColor #ffc107
	FontColor #ffc107
	BorderThickness 2
}


skinparam frame {
	BackgroundColor #666666
  	BorderColor #17a2b8
	FontColor #17a2b8
	BorderThickness 2
}


skinparam state {
		FontColor #ffffff
	BorderColor #333333
	BackgroundColor #474747
	StartColor #17a2b8
	EndColor #17a2b8
	AttributeFontColor #ffffff
	AttributeFontSize 11
}


skinparam queue {
		FontColor #ffffff
	BorderColor #333333
	BackgroundColor #474747
}


skinparam card {
	BackgroundColor #17a2b8
	BorderColor #1592a6
	FontColor #ffffff
}


skinparam file {
	BackgroundColor #4d4d4d
	BorderColor #ffffff
	FontColor #ffffff
}


skinparam stack {
		FontColor #ffffff
	BorderColor #333333
	BackgroundColor #474747
}
<style>
mindmapDiagram {
    :depth(0) {
        BackGroundColor red
    }
    node {
        BackgroundColor PowDerBlue
    }
    :depth(1) {
        BackGroundColor DarkSlateBlue
    }
    :depth(2) {
        BackGroundColor RoyalBlue
    }
}
</style>

title  设计模式
+[#SlateGray] 传统GoF 23
++ 创建模式
+++ 抽象工厂(Abstract Factory)
+++ 构建器(Builder)
+++ 工厂方法(Factory Method)
+++ 原型(Prototype)
+++ 单体(Singleton)

++[#CornflowerBlue] 结构模式
+++ 适配器(Adapter)
+++ 桥接(Bridge)
+++ 组合(Composite)
+++ 装饰器(Decorator)
+++ 门面(Facade)
+++ 轻量级(Flyweight)
+++ 代理(Proxy)

- -[#SteelBlue] 行为模式
- - - 责任链(Chain of Responsibility)
- - - 命令(Command)
- - - 拦截器(Interpreter)
- - - 迭代器(Iterator)
- - - 调节者(Mediator)
- - - 备忘(Memento)
- - - 观察者(Observer)
- - - 状态(State)
- - - 策略(Strategy)
- - - 模板方法(Template Method)
- - - 访问者(Visitor)


@endmindmap

PlantUML version 1.2022.7(Tue Aug 23 01:01:30 CST 2022)
(GPL source distribution)
Java Runtime: OpenJDK Runtime Environment
JVM: OpenJDK 64-Bit Server VM
Default Encoding: GBK
Language: en
Country: US
--></g></svg>