<?xml version="1.0" encoding="UTF-8" standalone="no"?><svg xmlns="http://www.w3.org/2000/svg" xmlns:xlink="http://www.w3.org/1999/xlink" contentStyleType="text/css" height="769px" preserveAspectRatio="none" style="width:2652px;height:769px;background:#FFFFFF;" version="1.1" viewBox="0 0 2652 769" width="2652px" zoomAndPan="magnify"><defs/><g><rect fill="none" height="29.1201" id="_title" style="stroke:none;stroke-width:1.0;" width="296" x="1171.25" y="5"/><text fill="#000000" font-family="sans-serif" font-size="14" font-weight="bold" lengthAdjust="spacing" textLength="286" x="1176.25" y="26.0439">AutowiredAnnotationBeanPostProcessor</text><!--MD5=[744eef4a49c8b069162bf213a5459706]
class AutowiredAnnotationBeanPostProcessor--><g id="elem_AutowiredAnnotationBeanPostProcessor"><rect codeLine="26" fill="#F1F1F1" height="162.7207" id="AutowiredAnnotationBeanPostProcessor" rx="2.5" ry="2.5" style="stroke:#181818;stroke-width:0.5;" width="727" x="338" y="600.1201"/><ellipse cx="569.75" cy="616.1201" fill="#ADD1B2" rx="11" ry="11" style="stroke:#181818;stroke-width:1.0;"/><path d="M569.1719,621.4795 Q567.1406,621.4795 565.9531,619.9795 Q564.7813,618.4795 564.7813,615.3701 Q564.7813,612.7295 566.0313,610.9639 Q567.2813,609.1826 569.4375,609.1826 Q569.9531,609.1826 570.4844,609.3232 Q570.9219,609.5107 571.1719,609.5107 Q571.3594,609.5107 571.4531,609.4795 Q571.5469,609.4326 572.0938,608.7139 L572.9063,612.6826 L571.8594,612.9951 Q571.4063,611.4951 570.8125,610.917 Q570.2344,610.3232 569.3125,610.3232 Q568.1406,610.3232 567.4375,611.7295 Q566.7344,613.1201 566.7344,615.292 Q566.7344,617.6826 567.3281,618.9482 Q567.9375,620.1982 569.25,620.1982 Q570.1719,620.1982 570.8438,619.5264 Q571.5156,618.8389 571.8438,617.2607 L572.8906,617.7607 Q572.4844,619.5264 571.5,620.5107 Q570.5156,621.4795 569.1719,621.4795 Z " fill="#000000"/><text fill="#000000" font-family="sans-serif" font-size="14" lengthAdjust="spacing" textLength="255" x="590.25" y="622.604">AutowiredAnnotationBeanPostProcessor</text><line style="stroke:#181818;stroke-width:0.5;" x1="339" x2="1064" y1="632.1201" y2="632.1201"/><rect fill="none" height="6" style="stroke:#C82930;stroke-width:1.0;" width="6" x="346" y="644.1802"/><text fill="#000000" font-family="sans-serif" font-size="14" lengthAdjust="spacing" textLength="397" x="358" y="652.1641">Set&lt;Class&lt;? extends Annotation&gt;&gt; autowiredAnnotationTypes;</text><rect fill="none" height="6" style="stroke:#C82930;stroke-width:1.0;" width="6" x="346" y="663.3003"/><text fill="#000000" font-family="sans-serif" font-size="14" lengthAdjust="spacing" textLength="359" x="358" y="671.2842">Map&lt;String, InjectionMetadata&gt; injectionMetadataCache;</text><line style="stroke:#181818;stroke-width:0.5;" x1="339" x2="1064" y1="678.3604" y2="678.3604"/><rect fill="#F24D5C" height="6" style="stroke:#C82930;stroke-width:1.0;" width="6" x="346" y="690.4204"/><text fill="#000000" font-family="sans-serif" font-size="14" lengthAdjust="spacing" textLength="376" x="358" y="698.4043">InjectionMetadata buildAutowiringMetadata(Class&lt;?&gt; clazz);</text><rect fill="#F24D5C" height="6" style="stroke:#C82930;stroke-width:1.0;" width="6" x="346" y="709.5405"/><text fill="#000000" font-family="sans-serif" font-size="14" lengthAdjust="spacing" textLength="685" x="358" y="717.5244">InjectionMetadata findAutowiringMetadata(String beanName, Class&lt;?&gt; clazz, @Nullable PropertyValues pvs);</text><polygon fill="#FFFF44" points="349,726.6606,353,730.6606,349,734.6606,345,730.6606" style="stroke:#B38D22;stroke-width:1.0;"/><text fill="#000000" font-family="sans-serif" font-size="14" lengthAdjust="spacing" textLength="598" x="358" y="736.6445">protected void inject(Object bean, @Nullable String beanName, @Nullable PropertyValues pvs)</text><ellipse cx="349" cy="750.7808" fill="#84BE84" rx="3" ry="3" style="stroke:#038048;stroke-width:1.0;"/><text fill="#000000" font-family="sans-serif" font-size="14" lengthAdjust="spacing" textLength="701" x="358" y="755.7646">postProcessMergedBeanDefinition(RootBeanDefinition beanDefinition, Class&lt;?&gt; beanType, String beanName);</text></g><g id="elem_GMN3"><path d="M6,667.6201 L6,695.3745 A0,0 0 0 0 6,695.3745 L303,695.3745 A0,0 0 0 0 303,695.3745 L303,685.6201 L337.64,681.6201 L303,677.6201 L303,677.6201 L293,667.6201 L6,667.6201 A0,0 0 0 0 6,667.6201 " fill="#FEFFDD" style="stroke:#181818;stroke-width:0.5;"/><path d="M293,667.6201 L293,677.6201 L303,677.6201 L293,667.6201 " fill="#FEFFDD" style="stroke:#181818;stroke-width:0.5;"/><text fill="#000000" font-family="sans-serif" font-size="13" lengthAdjust="spacing" textLength="276" x="12" y="687.5181">处理 @Autowired @Value @Inject等注解的属性</text></g><!--MD5=[cac81e38b4704b9d826543c956ead899]
class BeanPostProcessor--><g id="elem_BeanPostProcessor"><rect codeLine="4" fill="#F1F1F1" height="86.2402" id="BeanPostProcessor" rx="2.5" ry="2.5" style="stroke:#181818;stroke-width:0.5;" width="277" x="519" y="76.1201"/><ellipse cx="590.75" cy="92.1201" fill="#B4A7E5" rx="11" ry="11" style="stroke:#181818;stroke-width:1.0;"/><path d="M587.3438,86.4014 L587.3438,85.3076 L593.3438,85.3076 L593.3438,86.4014 L591.4688,86.4014 Q591.3281,86.4014 591.2656,86.4482 Q591.2188,86.4795 591.2188,86.5889 L591.2188,96.0732 Q591.2188,96.1826 591.2656,96.2295 Q591.3281,96.2607 591.4688,96.2607 L593.3438,96.2607 L593.3438,97.3545 L587.3438,97.3545 L587.3438,96.2607 L589.2188,96.2607 Q589.4063,96.2607 589.4375,96.2295 Q589.4688,96.1982 589.4688,96.0732 L589.4688,86.5889 Q589.4688,86.4639 589.4375,86.4326 Q589.4063,86.4014 589.2188,86.4014 L587.3438,86.4014 Z " fill="#000000"/><text fill="#000000" font-family="sans-serif" font-size="14" font-style="italic" lengthAdjust="spacing" textLength="125" x="611.25" y="98.604">BeanPostProcessor</text><line style="stroke:#181818;stroke-width:0.5;" x1="520" x2="795" y1="108.1201" y2="108.1201"/><line style="stroke:#181818;stroke-width:0.5;" x1="520" x2="795" y1="116.1201" y2="116.1201"/><ellipse cx="530" cy="131.1802" fill="#84BE84" rx="3" ry="3" style="stroke:#038048;stroke-width:1.0;"/><text fill="#000000" font-family="sans-serif" font-size="14" lengthAdjust="spacing" textLength="251" x="539" y="136.1641">Object postProcessBeforeInitialization();</text><ellipse cx="530" cy="150.3003" fill="#84BE84" rx="3" ry="3" style="stroke:#038048;stroke-width:1.0;"/><text fill="#000000" font-family="sans-serif" font-size="14" lengthAdjust="spacing" textLength="239" x="539" y="155.2842">Object postProcessAfterInitialization();</text></g><!--MD5=[775da2d4690eeb33adce6c1fd47396c2]
class InstantiationAwareBeanPostProcessor--><g id="elem_InstantiationAwareBeanPostProcessor"><rect codeLine="9" fill="#F1F1F1" height="105.3604" id="InstantiationAwareBeanPostProcessor" rx="2.5" ry="2.5" style="stroke:#181818;stroke-width:0.5;" width="609" x="129" y="251.1201"/><ellipse cx="308.75" cy="267.1201" fill="#B4A7E5" rx="11" ry="11" style="stroke:#181818;stroke-width:1.0;"/><path d="M305.3438,261.4014 L305.3438,260.3076 L311.3438,260.3076 L311.3438,261.4014 L309.4688,261.4014 Q309.3281,261.4014 309.2656,261.4482 Q309.2188,261.4795 309.2188,261.5889 L309.2188,271.0732 Q309.2188,271.1826 309.2656,271.2295 Q309.3281,271.2607 309.4688,271.2607 L311.3438,271.2607 L311.3438,272.3545 L305.3438,272.3545 L305.3438,271.2607 L307.2188,271.2607 Q307.4063,271.2607 307.4375,271.2295 Q307.4688,271.1982 307.4688,271.0732 L307.4688,261.5889 Q307.4688,261.4639 307.4375,261.4326 Q307.4063,261.4014 307.2188,261.4014 L305.3438,261.4014 Z " fill="#000000"/><text fill="#000000" font-family="sans-serif" font-size="14" font-style="italic" lengthAdjust="spacing" textLength="241" x="329.25" y="273.604">InstantiationAwareBeanPostProcessor</text><line style="stroke:#181818;stroke-width:0.5;" x1="130" x2="737" y1="283.1201" y2="283.1201"/><line style="stroke:#181818;stroke-width:0.5;" x1="130" x2="737" y1="291.1201" y2="291.1201"/><ellipse cx="140" cy="306.1802" fill="#84BE84" rx="3" ry="3" style="stroke:#038048;stroke-width:1.0;"/><text fill="#000000" font-family="sans-serif" font-size="14" lengthAdjust="spacing" textLength="502" x="149" y="311.1641">Object postProcessBeforeInstantiation(Class&lt;?&gt; beanClass, String beanName);</text><ellipse cx="140" cy="325.3003" fill="#84BE84" rx="3" ry="3" style="stroke:#038048;stroke-width:1.0;"/><text fill="#000000" font-family="sans-serif" font-size="14" lengthAdjust="spacing" textLength="447" x="149" y="330.2842">boolean postProcessAfterInstantiation(Object bean, String beanName);</text><ellipse cx="140" cy="344.4204" fill="#84BE84" rx="3" ry="3" style="stroke:#038048;stroke-width:1.0;"/><text fill="#000000" font-family="sans-serif" font-size="14" lengthAdjust="spacing" textLength="583" x="149" y="349.4043">PropertyValues postProcessProperties(PropertyValues pvs, Object bean, String beanName);</text></g><!--MD5=[f4a64beb6f30a0c31c8c012d6baf867a]
class SmartInstantiationAwareBeanPostProcessor--><g id="elem_SmartInstantiationAwareBeanPostProcessor"><rect codeLine="15" fill="#F1F1F1" height="124.4805" id="SmartInstantiationAwareBeanPostProcessor" rx="2.5" ry="2.5" style="stroke:#181818;stroke-width:0.5;" width="606" x="40.5" y="416.1201"/><ellipse cx="200.25" cy="432.1201" fill="#B4A7E5" rx="11" ry="11" style="stroke:#181818;stroke-width:1.0;"/><path d="M196.8438,426.4014 L196.8438,425.3076 L202.8438,425.3076 L202.8438,426.4014 L200.9688,426.4014 Q200.8281,426.4014 200.7656,426.4482 Q200.7188,426.4795 200.7188,426.5889 L200.7188,436.0732 Q200.7188,436.1826 200.7656,436.2295 Q200.8281,436.2607 200.9688,436.2607 L202.8438,436.2607 L202.8438,437.3545 L196.8438,437.3545 L196.8438,436.2607 L198.7188,436.2607 Q198.9063,436.2607 198.9375,436.2295 Q198.9688,436.1982 198.9688,436.0732 L198.9688,426.5889 Q198.9688,426.4639 198.9375,426.4326 Q198.9063,426.4014 198.7188,426.4014 L196.8438,426.4014 Z " fill="#000000"/><text fill="#000000" font-family="sans-serif" font-size="14" font-style="italic" lengthAdjust="spacing" textLength="278" x="220.75" y="438.604">SmartInstantiationAwareBeanPostProcessor</text><line style="stroke:#181818;stroke-width:0.5;" x1="41.5" x2="645.5" y1="448.1201" y2="448.1201"/><line style="stroke:#181818;stroke-width:0.5;" x1="41.5" x2="645.5" y1="456.1201" y2="456.1201"/><ellipse cx="51.5" cy="471.1802" fill="#84BE84" rx="3" ry="3" style="stroke:#038048;stroke-width:1.0;"/><text fill="#000000" font-family="sans-serif" font-size="14" lengthAdjust="spacing" textLength="436" x="60.5" y="476.1641">Class&lt;?&gt; predictBeanType(Class&lt;?&gt; beanClass, String beanName) ;</text><ellipse cx="51.5" cy="490.3003" fill="#84BE84" rx="3" ry="3" style="stroke:#038048;stroke-width:1.0;"/><text fill="#000000" font-family="sans-serif" font-size="14" lengthAdjust="spacing" textLength="452" x="60.5" y="495.2842">Class&lt;?&gt; determineBeanType(Class&lt;?&gt; beanClass, String beanName);</text><ellipse cx="51.5" cy="509.4204" fill="#84BE84" rx="3" ry="3" style="stroke:#038048;stroke-width:1.0;"/><text fill="#000000" font-family="sans-serif" font-size="14" lengthAdjust="spacing" textLength="580" x="60.5" y="514.4043">Constructor&lt;?&gt;[] determineCandidateConstructors(Class&lt;?&gt; beanClass, String beanName);</text><ellipse cx="51.5" cy="528.5405" fill="#84BE84" rx="3" ry="3" style="stroke:#038048;stroke-width:1.0;"/><text fill="#000000" font-family="sans-serif" font-size="14" lengthAdjust="spacing" textLength="404" x="60.5" y="533.5244">Object getEarlyBeanReference(Object bean, String beanName);</text></g><!--MD5=[49372e26ca5015b5fd804e203acf6034]
class MergedBeanDefinitionPostProcessor--><g id="elem_MergedBeanDefinitionPostProcessor"><rect codeLine="22" fill="#F1F1F1" height="86.2402" id="MergedBeanDefinitionPostProcessor" rx="2.5" ry="2.5" style="stroke:#181818;stroke-width:0.5;" width="757" x="682" y="435.1201"/><ellipse cx="939.75" cy="451.1201" fill="#B4A7E5" rx="11" ry="11" style="stroke:#181818;stroke-width:1.0;"/><path d="M936.3438,445.4014 L936.3438,444.3076 L942.3438,444.3076 L942.3438,445.4014 L940.4688,445.4014 Q940.3281,445.4014 940.2656,445.4482 Q940.2188,445.4795 940.2188,445.5889 L940.2188,455.0732 Q940.2188,455.1826 940.2656,455.2295 Q940.3281,455.2607 940.4688,455.2607 L942.3438,455.2607 L942.3438,456.3545 L936.3438,456.3545 L936.3438,455.2607 L938.2188,455.2607 Q938.4063,455.2607 938.4375,455.2295 Q938.4688,455.1982 938.4688,455.0732 L938.4688,445.5889 Q938.4688,445.4639 938.4375,445.4326 Q938.4063,445.4014 938.2188,445.4014 L936.3438,445.4014 Z " fill="#000000"/><text fill="#000000" font-family="sans-serif" font-size="14" font-style="italic" lengthAdjust="spacing" textLength="233" x="960.25" y="457.604">MergedBeanDefinitionPostProcessor</text><line style="stroke:#181818;stroke-width:0.5;" x1="683" x2="1438" y1="467.1201" y2="467.1201"/><line style="stroke:#181818;stroke-width:0.5;" x1="683" x2="1438" y1="475.1201" y2="475.1201"/><ellipse cx="693" cy="490.1802" fill="#84BE84" rx="3" ry="3" style="stroke:#038048;stroke-width:1.0;"/><text fill="#000000" font-family="sans-serif" font-size="14" lengthAdjust="spacing" textLength="731" x="702" y="495.1641">void postProcessMergedBeanDefinition(RootBeanDefinition beanDefinition, Class&lt;?&gt; beanType, String beanName);</text><ellipse cx="693" cy="509.3003" fill="#84BE84" rx="3" ry="3" style="stroke:#038048;stroke-width:1.0;"/><text fill="#000000" font-family="sans-serif" font-size="14" lengthAdjust="spacing" textLength="277" x="702" y="514.2842">void resetBeanDefinition(String beanName);</text></g><!--MD5=[ba49ced68c60fbf73f528e6b58cfa555]
class InjectedElement--><g id="elem_InjectedElement"><rect codeLine="36" fill="#F1F1F1" height="143.6006" id="InjectedElement" rx="2.5" ry="2.5" style="stroke:#181818;stroke-width:0.5;" width="568" x="1775.5" y="47.1201"/><ellipse cx="2004.75" cy="63.1201" fill="#A9DCDF" rx="11" ry="11" style="stroke:#181818;stroke-width:1.0;"/><path d="M2005.1875,63.1045 L2002.75,63.1045 L2002.2344,65.3389 Q2002.1719,65.6514 2002.1719,65.8076 Q2002.1719,66.0107 2002.2188,66.1357 Q2002.2656,66.2607 2002.4844,66.2607 L2003.0313,66.2607 L2003.0313,67.3545 L1999.8906,67.3545 L1999.8906,66.2607 L2000.4219,66.2607 Q2000.5625,66.2607 2000.6719,66.1826 Q2000.7813,66.0889 2000.8125,65.8232 L2003.4688,55.4482 L2005,54.9482 L2007.5938,65.792 Q2007.7031,66.0732 2007.8125,66.167 Q2007.9219,66.2607 2008.0625,66.2607 L2008.6094,66.2607 L2008.6094,67.3545 L2005.0625,67.3545 L2005.0625,66.2607 L2005.6719,66.2607 Q2005.8438,66.2607 2005.8438,66.2451 Q2005.8594,66.2139 2005.8594,66.1514 Q2005.8594,65.9326 2005.8125,65.7764 L2005.1875,63.1045 Z M2000.6094,66.9482 L2000.6094,66.9482 Z M2001.2813,66.9482 L2001.2813,66.9482 Z M2006,66.9482 L2006,66.9482 Z M2007.125,66.9482 L2007.125,66.9482 Z M2004.0156,56.9326 L2004.0781,56.9326 L2003.0625,62.0107 L2004.9688,62.0107 L2004.0156,56.9326 Z " fill="#000000"/><text fill="#000000" font-family="sans-serif" font-size="14" font-style="italic" lengthAdjust="spacing" textLength="101" x="2025.25" y="69.604">InjectedElement</text><line style="stroke:#181818;stroke-width:0.5;" x1="1776.5" x2="2342.5" y1="79.1201" y2="79.1201"/><polygon fill="none" points="1786.5,89.1802,1790.5,93.1802,1786.5,97.1802,1782.5,93.1802" style="stroke:#B38D22;stroke-width:1.0;"/><text fill="#000000" font-family="sans-serif" font-size="14" lengthAdjust="spacing" textLength="110" x="1795.5" y="99.1641">Member member;</text><polygon fill="none" points="1786.5,108.3003,1790.5,112.3003,1786.5,116.3003,1782.5,112.3003" style="stroke:#B38D22;stroke-width:1.0;"/><text fill="#000000" font-family="sans-serif" font-size="14" lengthAdjust="spacing" textLength="100" x="1795.5" y="118.2842">boolean isField;</text><polygon fill="none" points="1786.5,127.4204,1790.5,131.4204,1786.5,135.4204,1782.5,131.4204" style="stroke:#B38D22;stroke-width:1.0;"/><text fill="#000000" font-family="sans-serif" font-size="14" lengthAdjust="spacing" textLength="143" x="1795.5" y="137.4043">PropertyDescriptor pd;</text><line style="stroke:#181818;stroke-width:0.5;" x1="1776.5" x2="2342.5" y1="144.4805" y2="144.4805"/><polygon fill="#FFFF44" points="1786.5,154.5405,1790.5,158.5405,1786.5,162.5405,1782.5,158.5405" style="stroke:#B38D22;stroke-width:1.0;"/><text fill="#000000" font-family="sans-serif" font-size="14" lengthAdjust="spacing" textLength="542" x="1795.5" y="164.5244">void inject(Object bean, @Nullable String beanName, @Nullable PropertyValues pvs) ;</text><polygon fill="#FFFF44" points="1786.5,173.6606,1790.5,177.6606,1786.5,181.6606,1782.5,177.6606" style="stroke:#B38D22;stroke-width:1.0;"/><text fill="#000000" font-family="sans-serif" font-size="14" lengthAdjust="spacing" textLength="503" x="1795.5" y="183.6445">Object resolveFieldValue(Field field, Object bean, @Nullable String beanName);</text></g><!--MD5=[b3fb16f0c2d351b521b01cabb4db534b]
class AutowiredElement--><g id="elem_AutowiredElement"><rect codeLine="44" fill="#F1F1F1" height="67.1201" id="AutowiredElement" rx="2.5" ry="2.5" style="stroke:#181818;stroke-width:0.5;" width="168" x="1975.5" y="270.1201"/><ellipse cx="2000.85" cy="286.1201" fill="#ADD1B2" rx="11" ry="11" style="stroke:#181818;stroke-width:1.0;"/><path d="M2000.2719,291.4795 Q1998.2406,291.4795 1997.0531,289.9795 Q1995.8813,288.4795 1995.8813,285.3701 Q1995.8813,282.7295 1997.1313,280.9639 Q1998.3813,279.1826 2000.5375,279.1826 Q2001.0531,279.1826 2001.5844,279.3232 Q2002.0219,279.5107 2002.2719,279.5107 Q2002.4594,279.5107 2002.5531,279.4795 Q2002.6469,279.4326 2003.1938,278.7139 L2004.0063,282.6826 L2002.9594,282.9951 Q2002.5063,281.4951 2001.9125,280.917 Q2001.3344,280.3232 2000.4125,280.3232 Q1999.2406,280.3232 1998.5375,281.7295 Q1997.8344,283.1201 1997.8344,285.292 Q1997.8344,287.6826 1998.4281,288.9482 Q1999.0375,290.1982 2000.35,290.1982 Q2001.2719,290.1982 2001.9438,289.5264 Q2002.6156,288.8389 2002.9438,287.2607 L2003.9906,287.7607 Q2003.5844,289.5264 2002.6,290.5107 Q2001.6156,291.4795 2000.2719,291.4795 Z " fill="#000000"/><text fill="#000000" font-family="sans-serif" font-size="14" lengthAdjust="spacing" textLength="113" x="2017.15" y="292.604">AutowiredElement</text><line style="stroke:#181818;stroke-width:0.5;" x1="1976.5" x2="2142.5" y1="302.1201" y2="302.1201"/><polygon fill="none" points="1986.5,312.1802,1990.5,316.1802,1986.5,320.1802,1982.5,316.1802" style="stroke:#B38D22;stroke-width:1.0;"/><text fill="#000000" font-family="sans-serif" font-size="14" lengthAdjust="spacing" textLength="142" x="1995.5" y="322.1641">final boolean required;</text><line style="stroke:#181818;stroke-width:0.5;" x1="1976.5" x2="2142.5" y1="329.2402" y2="329.2402"/></g><!--MD5=[8c7ce16e85134550d581fda171d5383d]
class AutowiredFieldElement--><g id="elem_AutowiredFieldElement"><rect codeLine="48" fill="#F1F1F1" height="86.2402" id="AutowiredFieldElement" rx="2.5" ry="2.5" style="stroke:#181818;stroke-width:0.5;" width="568" x="1474.5" y="435.1201"/><ellipse cx="1682.25" cy="451.1201" fill="#ADD1B2" rx="11" ry="11" style="stroke:#181818;stroke-width:1.0;"/><path d="M1681.6719,456.4795 Q1679.6406,456.4795 1678.4531,454.9795 Q1677.2813,453.4795 1677.2813,450.3701 Q1677.2813,447.7295 1678.5313,445.9639 Q1679.7813,444.1826 1681.9375,444.1826 Q1682.4531,444.1826 1682.9844,444.3232 Q1683.4219,444.5107 1683.6719,444.5107 Q1683.8594,444.5107 1683.9531,444.4795 Q1684.0469,444.4326 1684.5938,443.7139 L1685.4063,447.6826 L1684.3594,447.9951 Q1683.9063,446.4951 1683.3125,445.917 Q1682.7344,445.3232 1681.8125,445.3232 Q1680.6406,445.3232 1679.9375,446.7295 Q1679.2344,448.1201 1679.2344,450.292 Q1679.2344,452.6826 1679.8281,453.9482 Q1680.4375,455.1982 1681.75,455.1982 Q1682.6719,455.1982 1683.3438,454.5264 Q1684.0156,453.8389 1684.3438,452.2607 L1685.3906,452.7607 Q1684.9844,454.5264 1684,455.5107 Q1683.0156,456.4795 1681.6719,456.4795 Z " fill="#000000"/><text fill="#000000" font-family="sans-serif" font-size="14" lengthAdjust="spacing" textLength="144" x="1702.75" y="457.604">AutowiredFieldElement</text><line style="stroke:#181818;stroke-width:0.5;" x1="1475.5" x2="2041.5" y1="467.1201" y2="467.1201"/><line style="stroke:#181818;stroke-width:0.5;" x1="1475.5" x2="2041.5" y1="475.1201" y2="475.1201"/><polygon fill="#FFFF44" points="1485.5,485.1802,1489.5,489.1802,1485.5,493.1802,1481.5,489.1802" style="stroke:#B38D22;stroke-width:1.0;"/><text fill="#000000" font-family="sans-serif" font-size="14" lengthAdjust="spacing" textLength="542" x="1494.5" y="495.1641">void inject(Object bean, @Nullable String beanName, @Nullable PropertyValues pvs) ;</text><polygon fill="#FFFF44" points="1485.5,504.3003,1489.5,508.3003,1485.5,512.3003,1481.5,508.3003" style="stroke:#B38D22;stroke-width:1.0;"/><text fill="#000000" font-family="sans-serif" font-size="14" lengthAdjust="spacing" textLength="503" x="1494.5" y="514.2842">Object resolveFieldValue(Field field, Object bean, @Nullable String beanName);</text></g><!--MD5=[2df81994c2df0fc8566b058bba787004]
class AutowiredMethodElement--><g id="elem_AutowiredMethodElement"><rect codeLine="52" fill="#F1F1F1" height="86.2402" id="AutowiredMethodElement" rx="2.5" ry="2.5" style="stroke:#181818;stroke-width:0.5;" width="568" x="2077.5" y="435.1201"/><ellipse cx="2277.25" cy="451.1201" fill="#ADD1B2" rx="11" ry="11" style="stroke:#181818;stroke-width:1.0;"/><path d="M2276.6719,456.4795 Q2274.6406,456.4795 2273.4531,454.9795 Q2272.2813,453.4795 2272.2813,450.3701 Q2272.2813,447.7295 2273.5313,445.9639 Q2274.7813,444.1826 2276.9375,444.1826 Q2277.4531,444.1826 2277.9844,444.3232 Q2278.4219,444.5107 2278.6719,444.5107 Q2278.8594,444.5107 2278.9531,444.4795 Q2279.0469,444.4326 2279.5938,443.7139 L2280.4063,447.6826 L2279.3594,447.9951 Q2278.9063,446.4951 2278.3125,445.917 Q2277.7344,445.3232 2276.8125,445.3232 Q2275.6406,445.3232 2274.9375,446.7295 Q2274.2344,448.1201 2274.2344,450.292 Q2274.2344,452.6826 2274.8281,453.9482 Q2275.4375,455.1982 2276.75,455.1982 Q2277.6719,455.1982 2278.3438,454.5264 Q2279.0156,453.8389 2279.3438,452.2607 L2280.3906,452.7607 Q2279.9844,454.5264 2279,455.5107 Q2278.0156,456.4795 2276.6719,456.4795 Z " fill="#000000"/><text fill="#000000" font-family="sans-serif" font-size="14" lengthAdjust="spacing" textLength="160" x="2297.75" y="457.604">AutowiredMethodElement</text><line style="stroke:#181818;stroke-width:0.5;" x1="2078.5" x2="2644.5" y1="467.1201" y2="467.1201"/><line style="stroke:#181818;stroke-width:0.5;" x1="2078.5" x2="2644.5" y1="475.1201" y2="475.1201"/><polygon fill="#FFFF44" points="2088.5,485.1802,2092.5,489.1802,2088.5,493.1802,2084.5,489.1802" style="stroke:#B38D22;stroke-width:1.0;"/><text fill="#000000" font-family="sans-serif" font-size="14" lengthAdjust="spacing" textLength="542" x="2097.5" y="495.1641">void inject(Object bean, @Nullable String beanName, @Nullable PropertyValues pvs) ;</text><polygon fill="#FFFF44" points="2088.5,504.3003,2092.5,508.3003,2088.5,512.3003,2084.5,508.3003" style="stroke:#B38D22;stroke-width:1.0;"/><text fill="#000000" font-family="sans-serif" font-size="14" lengthAdjust="spacing" textLength="503" x="2097.5" y="514.2842">Object resolveFieldValue(Field field, Object bean, @Nullable String beanName);</text></g><!--MD5=[2b82ca89892dc36e1f66e5e1875c9d68]
reverse link BeanPostProcessor to InstantiationAwareBeanPostProcessor--><g id="link_BeanPostProcessor_InstantiationAwareBeanPostProcessor"><path codeLine="56" d="M589.99,175.1201 C560.44,199.1901 525.97,227.2801 496.91,250.9601 " fill="none" id="BeanPostProcessor-backto-InstantiationAwareBeanPostProcessor" style="stroke:#181818;stroke-width:1.0;"/><polygon fill="none" points="585.9,169.4201,605.83,162.2201,594.74,180.2801,585.9,169.4201" style="stroke:#181818;stroke-width:1.0;"/></g><!--MD5=[b1d276c7dc1efa3e8a7e6e65c678bac4]
reverse link BeanPostProcessor to MergedBeanDefinitionPostProcessor--><g id="link_BeanPostProcessor_MergedBeanDefinitionPostProcessor"><path codeLine="57" d="M720.04,175.5201 C800.95,247.2001 940.14,370.5001 1012.95,435.0001 " fill="none" id="BeanPostProcessor-backto-MergedBeanDefinitionPostProcessor" style="stroke:#181818;stroke-width:1.0;"/><polygon fill="none" points="715.24,180.6201,704.91,162.1201,724.53,170.1401,715.24,180.6201" style="stroke:#181818;stroke-width:1.0;"/></g><!--MD5=[420e45900255cd5132f75e8812ee4f01]
reverse link InstantiationAwareBeanPostProcessor to SmartInstantiationAwareBeanPostProcessor--><g id="link_InstantiationAwareBeanPostProcessor_SmartInstantiationAwareBeanPostProcessor"><path codeLine="58" d="M397.24,374.1201 C390.01,387.9801 382.47,402.4301 375.4,415.9801 " fill="none" id="InstantiationAwareBeanPostProcessor-backto-SmartInstantiationAwareBeanPostProcessor" style="stroke:#181818;stroke-width:1.0;"/><polygon fill="none" points="391.04,370.8701,406.5,356.3801,403.45,377.3501,391.04,370.8701" style="stroke:#181818;stroke-width:1.0;"/></g><!--MD5=[c96400e2d70fa5fafcbaca2fbbded128]
reverse link SmartInstantiationAwareBeanPostProcessor to AutowiredAnnotationBeanPostProcessor--><g id="link_SmartInstantiationAwareBeanPostProcessor_AutowiredAnnotationBeanPostProcessor"><path codeLine="59" d="M469.5,550.0401 C498.26,566.2201 529.02,583.5401 558.43,600.0901 " fill="none" id="SmartInstantiationAwareBeanPostProcessor-backto-AutowiredAnnotationBeanPostProcessor" style="stroke:#181818;stroke-width:1.0;stroke-dasharray:7.0,7.0;"/><polygon fill="none" points="465.88,556.0301,451.88,540.1201,472.75,543.8301,465.88,556.0301" style="stroke:#181818;stroke-width:1.0;"/></g><!--MD5=[5601d0fd1dbbacf3538b0ba41eda8453]
reverse link MergedBeanDefinitionPostProcessor to AutowiredAnnotationBeanPostProcessor--><g id="link_MergedBeanDefinitionPostProcessor_AutowiredAnnotationBeanPostProcessor"><path codeLine="60" d="M967.76,531.1701 C930.42,552.1301 886.49,576.7901 845.19,599.9701 " fill="none" id="MergedBeanDefinitionPostProcessor-backto-AutowiredAnnotationBeanPostProcessor" style="stroke:#181818;stroke-width:1.0;stroke-dasharray:7.0,7.0;"/><polygon fill="none" points="964.38,525.0501,985.24,521.3601,971.23,537.2501,964.38,525.0501" style="stroke:#181818;stroke-width:1.0;"/></g><!--MD5=[4c680307d9f100a012d53d20858c66dc]
reverse link InjectedElement to AutowiredElement--><g id="link_InjectedElement_AutowiredElement"><path codeLine="61" d="M2059.5,211.2801 C2059.5,232.3701 2059.5,253.4701 2059.5,270.0701 " fill="none" id="InjectedElement-backto-AutowiredElement" style="stroke:#181818;stroke-width:1.0;"/><polygon fill="none" points="2052.5,211.2001,2059.5,191.2001,2066.5,211.2001,2052.5,211.2001" style="stroke:#181818;stroke-width:1.0;"/></g><!--MD5=[4cc33257aeb7947555a5299eac009515]
reverse link AutowiredElement to AutowiredFieldElement--><g id="link_AutowiredElement_AutowiredFieldElement"><path codeLine="62" d="M1985.04,347.2901 C1938.39,374.0301 1878.53,408.3301 1832.06,434.9601 " fill="none" id="AutowiredElement-backto-AutowiredFieldElement" style="stroke:#181818;stroke-width:1.0;stroke-dasharray:7.0,7.0;"/><polygon fill="none" points="1981.7,341.1401,2002.53,337.2701,1988.66,353.2901,1981.7,341.1401" style="stroke:#181818;stroke-width:1.0;"/></g><!--MD5=[3688fa0f8beb722d582daf44afaf5667]
reverse link AutowiredElement to AutowiredMethodElement--><g id="link_AutowiredElement_AutowiredMethodElement"><path codeLine="63" d="M2134.21,347.2901 C2181.01,374.0301 2241.07,408.3301 2287.7,434.9601 " fill="none" id="AutowiredElement-backto-AutowiredMethodElement" style="stroke:#181818;stroke-width:1.0;stroke-dasharray:7.0,7.0;"/><polygon fill="none" points="2130.55,353.2701,2116.66,337.2701,2137.5,341.1101,2130.55,353.2701" style="stroke:#181818;stroke-width:1.0;"/></g><!--MD5=[f4a4c6567505cc58bcd8e73baeba8afd]
@startuml AutowiredAnnotationBeanPostProcessor class
title AutowiredAnnotationBeanPostProcessor
 note left of  AutowiredAnnotationBeanPostProcessor : 处理 @Autowired @Value @Inject等注解的属性

interface BeanPostProcessor {
  +Object postProcessBeforeInitialization();
  +Object postProcessAfterInitialization();
}

interface InstantiationAwareBeanPostProcessor{
	+Object postProcessBeforeInstantiation(Class<?> beanClass, String beanName);
	+boolean postProcessAfterInstantiation(Object bean, String beanName);
	+PropertyValues postProcessProperties(PropertyValues pvs, Object bean, String beanName);
}

interface SmartInstantiationAwareBeanPostProcessor{
	 + Class<?> predictBeanType(Class<?> beanClass, String beanName) ;
	 + Class<?> determineBeanType(Class<?> beanClass, String beanName);
	 +Constructor<?>[] determineCandidateConstructors(Class<?> beanClass, String beanName);
	 +Object getEarlyBeanReference(Object bean, String beanName);
}

interface MergedBeanDefinitionPostProcessor{
	+void postProcessMergedBeanDefinition(RootBeanDefinition beanDefinition, Class<?> beanType, String beanName);
	+void resetBeanDefinition(String beanName);
}
class AutowiredAnnotationBeanPostProcessor{
	-Set<Class<? extends Annotation>> autowiredAnnotationTypes;
	-Map<String, InjectionMetadata> injectionMetadataCache;
	-InjectionMetadata buildAutowiringMetadata(Class<?> clazz);
	-InjectionMetadata findAutowiringMetadata(String beanName, Class<?> clazz, @Nullable PropertyValues pvs);
	#protected void inject(Object bean, @Nullable String beanName, @Nullable PropertyValues pvs)
	+postProcessMergedBeanDefinition(RootBeanDefinition beanDefinition, Class<?> beanType, String beanName);

}

abstract class InjectedElement{
	#Member member;
	#boolean isField;
	#PropertyDescriptor pd;
	#void inject(Object bean, @Nullable String beanName, @Nullable PropertyValues pvs) ;
	#Object resolveFieldValue(Field field, Object bean, @Nullable String beanName);
}

class AutowiredElement{
	#final boolean required;
}

class AutowiredFieldElement{
	#void inject(Object bean, @Nullable String beanName, @Nullable PropertyValues pvs) ;
	#Object resolveFieldValue(Field field, Object bean, @Nullable String beanName);
}
class AutowiredMethodElement{
#void inject(Object bean, @Nullable String beanName, @Nullable PropertyValues pvs) ;
	#Object resolveFieldValue(Field field, Object bean, @Nullable String beanName);
}
BeanPostProcessor <|- - InstantiationAwareBeanPostProcessor
BeanPostProcessor <|- - MergedBeanDefinitionPostProcessor
InstantiationAwareBeanPostProcessor <|- - SmartInstantiationAwareBeanPostProcessor
SmartInstantiationAwareBeanPostProcessor <|.. AutowiredAnnotationBeanPostProcessor
MergedBeanDefinitionPostProcessor <|.. AutowiredAnnotationBeanPostProcessor
InjectedElement <|- - AutowiredElement
AutowiredElement <|.. AutowiredFieldElement
AutowiredElement <|.. AutowiredMethodElement

@enduml

PlantUML version 1.2022.7(Tue Aug 23 01:01:30 CST 2022)
(GPL source distribution)
Java Runtime: OpenJDK Runtime Environment
JVM: OpenJDK 64-Bit Server VM
Default Encoding: GBK
Language: en
Country: US
--></g></svg>