<?xml version="1.0" encoding="UTF-8" standalone="no"?><svg xmlns="http://www.w3.org/2000/svg" xmlns:xlink="http://www.w3.org/1999/xlink" contentStyleType="text/css" height="1871px" preserveAspectRatio="none" style="width:2262px;height:1871px;background:#FFFFFF;" version="1.1" viewBox="0 0 2262 1871" width="2262px" zoomAndPan="magnify"><defs/><g><rect fill="none" height="29.1201" id="_title" style="stroke:none;stroke-width:1.0;" width="199" x="1030" y="10"/><text fill="#000000" font-family="sans-serif" font-size="14" font-weight="bold" lengthAdjust="spacing" textLength="189" x="1035" y="31.0439">Autowired Inject Sequence</text><rect fill="#FFFFFF" height="1720.1934" style="stroke:#181818;stroke-width:1.0;" width="10" x="108.5" y="92.1201"/><rect fill="#FFFFFF" height="1696.439" style="stroke:#181818;stroke-width:1.0;" width="10" x="314.5" y="115.8745"/><rect fill="#FFFFFF" height="1624.9302" style="stroke:#181818;stroke-width:1.0;" width="10" x="319.5" y="155.6289"/><rect fill="#FFFFFF" height="1524.667" style="stroke:#181818;stroke-width:1.0;" width="10" x="527.5" y="192.3833"/><rect fill="#FFFFFF" height="1461.1582" style="stroke:#181818;stroke-width:1.0;" width="10" x="766" y="224.1377"/><rect fill="#FFFFFF" height="1397.6494" style="stroke:#181818;stroke-width:1.0;" width="10" x="1030" y="255.8921"/><rect fill="#FFFFFF" height="1319.1406" style="stroke:#181818;stroke-width:1.0;" width="10" x="1035" y="295.6465"/><rect fill="#FFFFFF" height="1274.3862" style="stroke:#181818;stroke-width:1.0;" width="10" x="1040" y="340.4009"/><rect fill="#FFFFFF" height="1229.6318" style="stroke:#181818;stroke-width:1.0;" width="10" x="1045" y="385.1553"/><rect fill="#FFFFFF" height="496.0527" style="stroke:#181818;stroke-width:1.0;" width="10" x="1050" y="969.2256"/><rect fill="#FFFFFF" height="28" style="stroke:#181818;stroke-width:1.0;" width="10" x="1055" y="1437.2783"/><rect fill="#FFFFFF" height="28" style="stroke:#181818;stroke-width:1.0;" width="10" x="1050" y="1512.0327"/><rect fill="#FFFFFF" height="28" style="stroke:#181818;stroke-width:1.0;" width="10" x="1050" y="1586.7871"/><rect fill="#FFFFFF" height="31.7544" style="stroke:#181818;stroke-width:1.0;" width="10" x="1030" y="1748.8047"/><rect fill="#FFFFFF" height="507.5615" style="stroke:#181818;stroke-width:1.0;" width="10" x="1332" y="421.9097"/><rect fill="#FFFFFF" height="436.0527" style="stroke:#181818;stroke-width:1.0;" width="10" x="1337" y="461.6641"/><rect fill="#FFFFFF" height="391.2983" style="stroke:#181818;stroke-width:1.0;" width="10" x="1342" y="506.4185"/><rect fill="#FFFFFF" height="308.7896" style="stroke:#181818;stroke-width:1.0;" width="10" x="1347" y="588.9272"/><rect fill="#FFFFFF" height="353.7896" style="stroke:#181818;stroke-width:1.0;" width="10" x="1332" y="1005.98"/><rect fill="#FFFFFF" height="262.2808" style="stroke:#181818;stroke-width:1.0;" width="10" x="1337" y="1083.4888"/><rect fill="#FFFFFF" height="69.5088" style="stroke:#181818;stroke-width:1.0;" width="10" x="1556" y="625.6816"/><rect fill="#FFFFFF" height="69.5088" style="stroke:#181818;stroke-width:1.0;" width="10" x="1556" y="726.9448"/><rect fill="#FFFFFF" height="69.5088" style="stroke:#181818;stroke-width:1.0;" width="10" x="1708" y="828.208"/><rect fill="#FFFFFF" height="225.5264" style="stroke:#181818;stroke-width:1.0;" width="10" x="1708" y="1120.2432"/><rect fill="#FFFFFF" height="179.772" style="stroke:#181818;stroke-width:1.0;" width="10" x="2001.5" y="1151.9976"/><rect fill="#FFFFFF" height="28" style="stroke:#181818;stroke-width:1.0;" width="10" x="2006.5" y="1191.752"/><line style="stroke:#181818;stroke-width:0.5;stroke-dasharray:5.0,5.0;" x1="113" x2="113" y1="82.1201" y2="1830.3135"/><line style="stroke:#181818;stroke-width:0.5;stroke-dasharray:5.0,5.0;" x1="319" x2="319" y1="82.1201" y2="1830.3135"/><line style="stroke:#181818;stroke-width:0.5;stroke-dasharray:5.0,5.0;" x1="532" x2="532" y1="82.1201" y2="1830.3135"/><line style="stroke:#181818;stroke-width:0.5;stroke-dasharray:5.0,5.0;" x1="771" x2="771" y1="82.1201" y2="1830.3135"/><line style="stroke:#181818;stroke-width:0.5;stroke-dasharray:5.0,5.0;" x1="1035" x2="1035" y1="82.1201" y2="1830.3135"/><line style="stroke:#181818;stroke-width:0.5;stroke-dasharray:5.0,5.0;" x1="1336.5" x2="1336.5" y1="82.1201" y2="1830.3135"/><line style="stroke:#181818;stroke-width:0.5;stroke-dasharray:5.0,5.0;" x1="1560.5" x2="1560.5" y1="82.1201" y2="1830.3135"/><line style="stroke:#181818;stroke-width:0.5;stroke-dasharray:5.0,5.0;" x1="1712.5" x2="1712.5" y1="82.1201" y2="1830.3135"/><line style="stroke:#181818;stroke-width:0.5;stroke-dasharray:5.0,5.0;" x1="2006.5" x2="2006.5" y1="82.1201" y2="1830.3135"/><rect fill="#E2E2F0" height="36" rx="2.5" ry="2.5" style="stroke:#181818;stroke-width:0.5;" width="217" x="5" y="45.1201"/><ellipse cx="23" cy="63.1201" fill="#ADD1B2" rx="11" ry="11" style="stroke:#181818;stroke-width:1.0;"/><path d="M22.4219,68.4795 Q20.3906,68.4795 19.2031,66.9795 Q18.0313,65.4795 18.0313,62.3701 Q18.0313,59.7295 19.2813,57.9639 Q20.5313,56.1826 22.6875,56.1826 Q23.2031,56.1826 23.7344,56.3232 Q24.1719,56.5107 24.4219,56.5107 Q24.6094,56.5107 24.7031,56.4795 Q24.7969,56.4326 25.3438,55.7139 L26.1563,59.6826 L25.1094,59.9951 Q24.6563,58.4951 24.0625,57.917 Q23.4844,57.3232 22.5625,57.3232 Q21.3906,57.3232 20.6875,58.7295 Q19.9844,60.1201 19.9844,62.292 Q19.9844,64.6826 20.5781,65.9482 Q21.1875,67.1982 22.5,67.1982 Q23.4219,67.1982 24.0938,66.5264 Q24.7656,65.8389 25.0938,64.2607 L26.1406,64.7607 Q25.7344,66.5264 24.75,67.5107 Q23.7656,68.4795 22.4219,68.4795 Z " fill="#000000"/><text fill="#000000" font-family="sans-serif" font-size="14" lengthAdjust="spacing" textLength="175" x="40" y="68.1641">DefaultListableBeanFactory</text><rect fill="#E2E2F0" height="36" rx="2.5" ry="2.5" style="stroke:#181818;stroke-width:0.5;" width="217" x="5" y="1829.3135"/><ellipse cx="23" cy="1847.3135" fill="#ADD1B2" rx="11" ry="11" style="stroke:#181818;stroke-width:1.0;"/><path d="M22.4219,1852.6729 Q20.3906,1852.6729 19.2031,1851.1729 Q18.0313,1849.6729 18.0313,1846.5635 Q18.0313,1843.9229 19.2813,1842.1572 Q20.5313,1840.376 22.6875,1840.376 Q23.2031,1840.376 23.7344,1840.5166 Q24.1719,1840.7041 24.4219,1840.7041 Q24.6094,1840.7041 24.7031,1840.6729 Q24.7969,1840.626 25.3438,1839.9072 L26.1563,1843.876 L25.1094,1844.1885 Q24.6563,1842.6885 24.0625,1842.1104 Q23.4844,1841.5166 22.5625,1841.5166 Q21.3906,1841.5166 20.6875,1842.9229 Q19.9844,1844.3135 19.9844,1846.4854 Q19.9844,1848.876 20.5781,1850.1416 Q21.1875,1851.3916 22.5,1851.3916 Q23.4219,1851.3916 24.0938,1850.7197 Q24.7656,1850.0322 25.0938,1848.4541 L26.1406,1848.9541 Q25.7344,1850.7197 24.75,1851.7041 Q23.7656,1852.6729 22.4219,1852.6729 Z " fill="#000000"/><text fill="#000000" font-family="sans-serif" font-size="14" lengthAdjust="spacing" textLength="175" x="40" y="1852.3574">DefaultListableBeanFactory</text><rect fill="#E2E2F0" height="36" rx="2.5" ry="2.5" style="stroke:#181818;stroke-width:0.5;" width="175" x="232" y="45.1201"/><ellipse cx="250" cy="63.1201" fill="#ADD1B2" rx="11" ry="11" style="stroke:#181818;stroke-width:1.0;"/><path d="M249.4219,68.4795 Q247.3906,68.4795 246.2031,66.9795 Q245.0313,65.4795 245.0313,62.3701 Q245.0313,59.7295 246.2813,57.9639 Q247.5313,56.1826 249.6875,56.1826 Q250.2031,56.1826 250.7344,56.3232 Q251.1719,56.5107 251.4219,56.5107 Q251.6094,56.5107 251.7031,56.4795 Q251.7969,56.4326 252.3438,55.7139 L253.1563,59.6826 L252.1094,59.9951 Q251.6563,58.4951 251.0625,57.917 Q250.4844,57.3232 249.5625,57.3232 Q248.3906,57.3232 247.6875,58.7295 Q246.9844,60.1201 246.9844,62.292 Q246.9844,64.6826 247.5781,65.9482 Q248.1875,67.1982 249.5,67.1982 Q250.4219,67.1982 251.0938,66.5264 Q251.7656,65.8389 252.0938,64.2607 L253.1406,64.7607 Q252.7344,66.5264 251.75,67.5107 Q250.7656,68.4795 249.4219,68.4795 Z " fill="#000000"/><text fill="#000000" font-family="sans-serif" font-size="14" lengthAdjust="spacing" textLength="133" x="267" y="68.1641">AbstractBeanFactory</text><rect fill="#E2E2F0" height="36" rx="2.5" ry="2.5" style="stroke:#181818;stroke-width:0.5;" width="175" x="232" y="1829.3135"/><ellipse cx="250" cy="1847.3135" fill="#ADD1B2" rx="11" ry="11" style="stroke:#181818;stroke-width:1.0;"/><path d="M249.4219,1852.6729 Q247.3906,1852.6729 246.2031,1851.1729 Q245.0313,1849.6729 245.0313,1846.5635 Q245.0313,1843.9229 246.2813,1842.1572 Q247.5313,1840.376 249.6875,1840.376 Q250.2031,1840.376 250.7344,1840.5166 Q251.1719,1840.7041 251.4219,1840.7041 Q251.6094,1840.7041 251.7031,1840.6729 Q251.7969,1840.626 252.3438,1839.9072 L253.1563,1843.876 L252.1094,1844.1885 Q251.6563,1842.6885 251.0625,1842.1104 Q250.4844,1841.5166 249.5625,1841.5166 Q248.3906,1841.5166 247.6875,1842.9229 Q246.9844,1844.3135 246.9844,1846.4854 Q246.9844,1848.876 247.5781,1850.1416 Q248.1875,1851.3916 249.5,1851.3916 Q250.4219,1851.3916 251.0938,1850.7197 Q251.7656,1850.0322 252.0938,1848.4541 L253.1406,1848.9541 Q252.7344,1850.7197 251.75,1851.7041 Q250.7656,1852.6729 249.4219,1852.6729 Z " fill="#000000"/><text fill="#000000" font-family="sans-serif" font-size="14" lengthAdjust="spacing" textLength="133" x="267" y="1852.3574">AbstractBeanFactory</text><rect fill="#E2E2F0" height="36" rx="2.5" ry="2.5" style="stroke:#181818;stroke-width:0.5;" width="231" x="417" y="45.1201"/><ellipse cx="435" cy="63.1201" fill="#ADD1B2" rx="11" ry="11" style="stroke:#181818;stroke-width:1.0;"/><path d="M434.4219,68.4795 Q432.3906,68.4795 431.2031,66.9795 Q430.0313,65.4795 430.0313,62.3701 Q430.0313,59.7295 431.2813,57.9639 Q432.5313,56.1826 434.6875,56.1826 Q435.2031,56.1826 435.7344,56.3232 Q436.1719,56.5107 436.4219,56.5107 Q436.6094,56.5107 436.7031,56.4795 Q436.7969,56.4326 437.3438,55.7139 L438.1563,59.6826 L437.1094,59.9951 Q436.6563,58.4951 436.0625,57.917 Q435.4844,57.3232 434.5625,57.3232 Q433.3906,57.3232 432.6875,58.7295 Q431.9844,60.1201 431.9844,62.292 Q431.9844,64.6826 432.5781,65.9482 Q433.1875,67.1982 434.5,67.1982 Q435.4219,67.1982 436.0938,66.5264 Q436.7656,65.8389 437.0938,64.2607 L438.1406,64.7607 Q437.7344,66.5264 436.75,67.5107 Q435.7656,68.4795 434.4219,68.4795 Z " fill="#000000"/><text fill="#000000" font-family="sans-serif" font-size="14" lengthAdjust="spacing" textLength="189" x="452" y="68.1641">DefaultSingletonBeanRegistry</text><rect fill="#E2E2F0" height="36" rx="2.5" ry="2.5" style="stroke:#181818;stroke-width:0.5;" width="231" x="417" y="1829.3135"/><ellipse cx="435" cy="1847.3135" fill="#ADD1B2" rx="11" ry="11" style="stroke:#181818;stroke-width:1.0;"/><path d="M434.4219,1852.6729 Q432.3906,1852.6729 431.2031,1851.1729 Q430.0313,1849.6729 430.0313,1846.5635 Q430.0313,1843.9229 431.2813,1842.1572 Q432.5313,1840.376 434.6875,1840.376 Q435.2031,1840.376 435.7344,1840.5166 Q436.1719,1840.7041 436.4219,1840.7041 Q436.6094,1840.7041 436.7031,1840.6729 Q436.7969,1840.626 437.3438,1839.9072 L438.1563,1843.876 L437.1094,1844.1885 Q436.6563,1842.6885 436.0625,1842.1104 Q435.4844,1841.5166 434.5625,1841.5166 Q433.3906,1841.5166 432.6875,1842.9229 Q431.9844,1844.3135 431.9844,1846.4854 Q431.9844,1848.876 432.5781,1850.1416 Q433.1875,1851.3916 434.5,1851.3916 Q435.4219,1851.3916 436.0938,1850.7197 Q436.7656,1850.0322 437.0938,1848.4541 L438.1406,1848.9541 Q437.7344,1850.7197 436.75,1851.7041 Q435.7656,1852.6729 434.4219,1852.6729 Z " fill="#000000"/><text fill="#000000" font-family="sans-serif" font-size="14" lengthAdjust="spacing" textLength="189" x="452" y="1852.3574">DefaultSingletonBeanRegistry</text><rect fill="#E2E2F0" height="36" rx="2.5" ry="2.5" style="stroke:#181818;stroke-width:0.5;" width="226" x="658" y="45.1201"/><ellipse cx="676" cy="63.1201" fill="#ADD1B2" rx="11" ry="11" style="stroke:#181818;stroke-width:1.0;"/><path d="M675.4219,68.4795 Q673.3906,68.4795 672.2031,66.9795 Q671.0313,65.4795 671.0313,62.3701 Q671.0313,59.7295 672.2813,57.9639 Q673.5313,56.1826 675.6875,56.1826 Q676.2031,56.1826 676.7344,56.3232 Q677.1719,56.5107 677.4219,56.5107 Q677.6094,56.5107 677.7031,56.4795 Q677.7969,56.4326 678.3438,55.7139 L679.1563,59.6826 L678.1094,59.9951 Q677.6563,58.4951 677.0625,57.917 Q676.4844,57.3232 675.5625,57.3232 Q674.3906,57.3232 673.6875,58.7295 Q672.9844,60.1201 672.9844,62.292 Q672.9844,64.6826 673.5781,65.9482 Q674.1875,67.1982 675.5,67.1982 Q676.4219,67.1982 677.0938,66.5264 Q677.7656,65.8389 678.0938,64.2607 L679.1406,64.7607 Q678.7344,66.5264 677.75,67.5107 Q676.7656,68.4795 675.4219,68.4795 Z " fill="#000000"/><text fill="#000000" font-family="sans-serif" font-size="14" lengthAdjust="spacing" textLength="184" x="693" y="68.1641">AbstractBeanFactoryLambda</text><rect fill="#E2E2F0" height="36" rx="2.5" ry="2.5" style="stroke:#181818;stroke-width:0.5;" width="226" x="658" y="1829.3135"/><ellipse cx="676" cy="1847.3135" fill="#ADD1B2" rx="11" ry="11" style="stroke:#181818;stroke-width:1.0;"/><path d="M675.4219,1852.6729 Q673.3906,1852.6729 672.2031,1851.1729 Q671.0313,1849.6729 671.0313,1846.5635 Q671.0313,1843.9229 672.2813,1842.1572 Q673.5313,1840.376 675.6875,1840.376 Q676.2031,1840.376 676.7344,1840.5166 Q677.1719,1840.7041 677.4219,1840.7041 Q677.6094,1840.7041 677.7031,1840.6729 Q677.7969,1840.626 678.3438,1839.9072 L679.1563,1843.876 L678.1094,1844.1885 Q677.6563,1842.6885 677.0625,1842.1104 Q676.4844,1841.5166 675.5625,1841.5166 Q674.3906,1841.5166 673.6875,1842.9229 Q672.9844,1844.3135 672.9844,1846.4854 Q672.9844,1848.876 673.5781,1850.1416 Q674.1875,1851.3916 675.5,1851.3916 Q676.4219,1851.3916 677.0938,1850.7197 Q677.7656,1850.0322 678.0938,1848.4541 L679.1406,1848.9541 Q678.7344,1850.7197 677.75,1851.7041 Q676.7656,1852.6729 675.4219,1852.6729 Z " fill="#000000"/><text fill="#000000" font-family="sans-serif" font-size="14" lengthAdjust="spacing" textLength="184" x="693" y="1852.3574">AbstractBeanFactoryLambda</text><rect fill="#E2E2F0" height="36" rx="2.5" ry="2.5" style="stroke:#181818;stroke-width:0.5;" width="282" x="894" y="45.1201"/><ellipse cx="912" cy="63.1201" fill="#ADD1B2" rx="11" ry="11" style="stroke:#181818;stroke-width:1.0;"/><path d="M911.4219,68.4795 Q909.3906,68.4795 908.2031,66.9795 Q907.0313,65.4795 907.0313,62.3701 Q907.0313,59.7295 908.2813,57.9639 Q909.5313,56.1826 911.6875,56.1826 Q912.2031,56.1826 912.7344,56.3232 Q913.1719,56.5107 913.4219,56.5107 Q913.6094,56.5107 913.7031,56.4795 Q913.7969,56.4326 914.3438,55.7139 L915.1563,59.6826 L914.1094,59.9951 Q913.6563,58.4951 913.0625,57.917 Q912.4844,57.3232 911.5625,57.3232 Q910.3906,57.3232 909.6875,58.7295 Q908.9844,60.1201 908.9844,62.292 Q908.9844,64.6826 909.5781,65.9482 Q910.1875,67.1982 911.5,67.1982 Q912.4219,67.1982 913.0938,66.5264 Q913.7656,65.8389 914.0938,64.2607 L915.1406,64.7607 Q914.7344,66.5264 913.75,67.5107 Q912.7656,68.4795 911.4219,68.4795 Z " fill="#000000"/><text fill="#000000" font-family="sans-serif" font-size="14" lengthAdjust="spacing" textLength="240" x="929" y="68.1641">AbstractAutowireCapableBeanFactory</text><rect fill="#E2E2F0" height="36" rx="2.5" ry="2.5" style="stroke:#181818;stroke-width:0.5;" width="282" x="894" y="1829.3135"/><ellipse cx="912" cy="1847.3135" fill="#ADD1B2" rx="11" ry="11" style="stroke:#181818;stroke-width:1.0;"/><path d="M911.4219,1852.6729 Q909.3906,1852.6729 908.2031,1851.1729 Q907.0313,1849.6729 907.0313,1846.5635 Q907.0313,1843.9229 908.2813,1842.1572 Q909.5313,1840.376 911.6875,1840.376 Q912.2031,1840.376 912.7344,1840.5166 Q913.1719,1840.7041 913.4219,1840.7041 Q913.6094,1840.7041 913.7031,1840.6729 Q913.7969,1840.626 914.3438,1839.9072 L915.1563,1843.876 L914.1094,1844.1885 Q913.6563,1842.6885 913.0625,1842.1104 Q912.4844,1841.5166 911.5625,1841.5166 Q910.3906,1841.5166 909.6875,1842.9229 Q908.9844,1844.3135 908.9844,1846.4854 Q908.9844,1848.876 909.5781,1850.1416 Q910.1875,1851.3916 911.5,1851.3916 Q912.4219,1851.3916 913.0938,1850.7197 Q913.7656,1850.0322 914.0938,1848.4541 L915.1406,1848.9541 Q914.7344,1850.7197 913.75,1851.7041 Q912.7656,1852.6729 911.4219,1852.6729 Z " fill="#000000"/><text fill="#000000" font-family="sans-serif" font-size="14" lengthAdjust="spacing" textLength="240" x="929" y="1852.3574">AbstractAutowireCapableBeanFactory</text><rect fill="#E2E2F0" height="36" rx="2.5" ry="2.5" style="stroke:#181818;stroke-width:0.5;" width="297" x="1188.5" y="45.1201"/><ellipse cx="1206.5" cy="63.1201" fill="#ADD1B2" rx="11" ry="11" style="stroke:#181818;stroke-width:1.0;"/><path d="M1205.9219,68.4795 Q1203.8906,68.4795 1202.7031,66.9795 Q1201.5313,65.4795 1201.5313,62.3701 Q1201.5313,59.7295 1202.7813,57.9639 Q1204.0313,56.1826 1206.1875,56.1826 Q1206.7031,56.1826 1207.2344,56.3232 Q1207.6719,56.5107 1207.9219,56.5107 Q1208.1094,56.5107 1208.2031,56.4795 Q1208.2969,56.4326 1208.8438,55.7139 L1209.6563,59.6826 L1208.6094,59.9951 Q1208.1563,58.4951 1207.5625,57.917 Q1206.9844,57.3232 1206.0625,57.3232 Q1204.8906,57.3232 1204.1875,58.7295 Q1203.4844,60.1201 1203.4844,62.292 Q1203.4844,64.6826 1204.0781,65.9482 Q1204.6875,67.1982 1206,67.1982 Q1206.9219,67.1982 1207.5938,66.5264 Q1208.2656,65.8389 1208.5938,64.2607 L1209.6406,64.7607 Q1209.2344,66.5264 1208.25,67.5107 Q1207.2656,68.4795 1205.9219,68.4795 Z " fill="#000000"/><text fill="#000000" font-family="sans-serif" font-size="14" lengthAdjust="spacing" textLength="255" x="1223.5" y="68.1641">AutowiredAnnotationBeanPostProcessor</text><rect fill="#E2E2F0" height="36" rx="2.5" ry="2.5" style="stroke:#181818;stroke-width:0.5;" width="297" x="1188.5" y="1829.3135"/><ellipse cx="1206.5" cy="1847.3135" fill="#ADD1B2" rx="11" ry="11" style="stroke:#181818;stroke-width:1.0;"/><path d="M1205.9219,1852.6729 Q1203.8906,1852.6729 1202.7031,1851.1729 Q1201.5313,1849.6729 1201.5313,1846.5635 Q1201.5313,1843.9229 1202.7813,1842.1572 Q1204.0313,1840.376 1206.1875,1840.376 Q1206.7031,1840.376 1207.2344,1840.5166 Q1207.6719,1840.7041 1207.9219,1840.7041 Q1208.1094,1840.7041 1208.2031,1840.6729 Q1208.2969,1840.626 1208.8438,1839.9072 L1209.6563,1843.876 L1208.6094,1844.1885 Q1208.1563,1842.6885 1207.5625,1842.1104 Q1206.9844,1841.5166 1206.0625,1841.5166 Q1204.8906,1841.5166 1204.1875,1842.9229 Q1203.4844,1844.3135 1203.4844,1846.4854 Q1203.4844,1848.876 1204.0781,1850.1416 Q1204.6875,1851.3916 1206,1851.3916 Q1206.9219,1851.3916 1207.5938,1850.7197 Q1208.2656,1850.0322 1208.5938,1848.4541 L1209.6406,1848.9541 Q1209.2344,1850.7197 1208.25,1851.7041 Q1207.2656,1852.6729 1205.9219,1852.6729 Z " fill="#000000"/><text fill="#000000" font-family="sans-serif" font-size="14" lengthAdjust="spacing" textLength="255" x="1223.5" y="1852.3574">AutowiredAnnotationBeanPostProcessor</text><rect fill="#E2E2F0" height="36" rx="2.5" ry="2.5" style="stroke:#181818;stroke-width:0.5;" width="131" x="1495.5" y="45.1201"/><ellipse cx="1513.5" cy="63.1201" fill="#ADD1B2" rx="11" ry="11" style="stroke:#181818;stroke-width:1.0;"/><path d="M1512.9219,68.4795 Q1510.8906,68.4795 1509.7031,66.9795 Q1508.5313,65.4795 1508.5313,62.3701 Q1508.5313,59.7295 1509.7813,57.9639 Q1511.0313,56.1826 1513.1875,56.1826 Q1513.7031,56.1826 1514.2344,56.3232 Q1514.6719,56.5107 1514.9219,56.5107 Q1515.1094,56.5107 1515.2031,56.4795 Q1515.2969,56.4326 1515.8438,55.7139 L1516.6563,59.6826 L1515.6094,59.9951 Q1515.1563,58.4951 1514.5625,57.917 Q1513.9844,57.3232 1513.0625,57.3232 Q1511.8906,57.3232 1511.1875,58.7295 Q1510.4844,60.1201 1510.4844,62.292 Q1510.4844,64.6826 1511.0781,65.9482 Q1511.6875,67.1982 1513,67.1982 Q1513.9219,67.1982 1514.5938,66.5264 Q1515.2656,65.8389 1515.5938,64.2607 L1516.6406,64.7607 Q1516.2344,66.5264 1515.25,67.5107 Q1514.2656,68.4795 1512.9219,68.4795 Z " fill="#000000"/><text fill="#000000" font-family="sans-serif" font-size="14" lengthAdjust="spacing" textLength="89" x="1530.5" y="68.1641">ReflectionUtils</text><rect fill="#E2E2F0" height="36" rx="2.5" ry="2.5" style="stroke:#181818;stroke-width:0.5;" width="131" x="1495.5" y="1829.3135"/><ellipse cx="1513.5" cy="1847.3135" fill="#ADD1B2" rx="11" ry="11" style="stroke:#181818;stroke-width:1.0;"/><path d="M1512.9219,1852.6729 Q1510.8906,1852.6729 1509.7031,1851.1729 Q1508.5313,1849.6729 1508.5313,1846.5635 Q1508.5313,1843.9229 1509.7813,1842.1572 Q1511.0313,1840.376 1513.1875,1840.376 Q1513.7031,1840.376 1514.2344,1840.5166 Q1514.6719,1840.7041 1514.9219,1840.7041 Q1515.1094,1840.7041 1515.2031,1840.6729 Q1515.2969,1840.626 1515.8438,1839.9072 L1516.6563,1843.876 L1515.6094,1844.1885 Q1515.1563,1842.6885 1514.5625,1842.1104 Q1513.9844,1841.5166 1513.0625,1841.5166 Q1511.8906,1841.5166 1511.1875,1842.9229 Q1510.4844,1844.3135 1510.4844,1846.4854 Q1510.4844,1848.876 1511.0781,1850.1416 Q1511.6875,1851.3916 1513,1851.3916 Q1513.9219,1851.3916 1514.5938,1850.7197 Q1515.2656,1850.0322 1515.5938,1848.4541 L1516.6406,1848.9541 Q1516.2344,1850.7197 1515.25,1851.7041 Q1514.2656,1852.6729 1512.9219,1852.6729 Z " fill="#000000"/><text fill="#000000" font-family="sans-serif" font-size="14" lengthAdjust="spacing" textLength="89" x="1530.5" y="1852.3574">ReflectionUtils</text><rect fill="#E2E2F0" height="36" rx="2.5" ry="2.5" style="stroke:#181818;stroke-width:0.5;" width="153" x="1636.5" y="45.1201"/><ellipse cx="1654.5" cy="63.1201" fill="#ADD1B2" rx="11" ry="11" style="stroke:#181818;stroke-width:1.0;"/><path d="M1653.9219,68.4795 Q1651.8906,68.4795 1650.7031,66.9795 Q1649.5313,65.4795 1649.5313,62.3701 Q1649.5313,59.7295 1650.7813,57.9639 Q1652.0313,56.1826 1654.1875,56.1826 Q1654.7031,56.1826 1655.2344,56.3232 Q1655.6719,56.5107 1655.9219,56.5107 Q1656.1094,56.5107 1656.2031,56.4795 Q1656.2969,56.4326 1656.8438,55.7139 L1657.6563,59.6826 L1656.6094,59.9951 Q1656.1563,58.4951 1655.5625,57.917 Q1654.9844,57.3232 1654.0625,57.3232 Q1652.8906,57.3232 1652.1875,58.7295 Q1651.4844,60.1201 1651.4844,62.292 Q1651.4844,64.6826 1652.0781,65.9482 Q1652.6875,67.1982 1654,67.1982 Q1654.9219,67.1982 1655.5938,66.5264 Q1656.2656,65.8389 1656.5938,64.2607 L1657.6406,64.7607 Q1657.2344,66.5264 1656.25,67.5107 Q1655.2656,68.4795 1653.9219,68.4795 Z " fill="#000000"/><text fill="#000000" font-family="sans-serif" font-size="14" lengthAdjust="spacing" textLength="111" x="1671.5" y="68.1641">InjectionMetadata</text><rect fill="#E2E2F0" height="36" rx="2.5" ry="2.5" style="stroke:#181818;stroke-width:0.5;" width="153" x="1636.5" y="1829.3135"/><ellipse cx="1654.5" cy="1847.3135" fill="#ADD1B2" rx="11" ry="11" style="stroke:#181818;stroke-width:1.0;"/><path d="M1653.9219,1852.6729 Q1651.8906,1852.6729 1650.7031,1851.1729 Q1649.5313,1849.6729 1649.5313,1846.5635 Q1649.5313,1843.9229 1650.7813,1842.1572 Q1652.0313,1840.376 1654.1875,1840.376 Q1654.7031,1840.376 1655.2344,1840.5166 Q1655.6719,1840.7041 1655.9219,1840.7041 Q1656.1094,1840.7041 1656.2031,1840.6729 Q1656.2969,1840.626 1656.8438,1839.9072 L1657.6563,1843.876 L1656.6094,1844.1885 Q1656.1563,1842.6885 1655.5625,1842.1104 Q1654.9844,1841.5166 1654.0625,1841.5166 Q1652.8906,1841.5166 1652.1875,1842.9229 Q1651.4844,1844.3135 1651.4844,1846.4854 Q1651.4844,1848.876 1652.0781,1850.1416 Q1652.6875,1851.3916 1654,1851.3916 Q1654.9219,1851.3916 1655.5938,1850.7197 Q1656.2656,1850.0322 1656.5938,1848.4541 L1657.6406,1848.9541 Q1657.2344,1850.7197 1656.25,1851.7041 Q1655.2656,1852.6729 1653.9219,1852.6729 Z " fill="#000000"/><text fill="#000000" font-family="sans-serif" font-size="14" lengthAdjust="spacing" textLength="111" x="1671.5" y="1852.3574">InjectionMetadata</text><rect fill="#E2E2F0" height="36" rx="2.5" ry="2.5" style="stroke:#181818;stroke-width:0.5;" width="414" x="1799.5" y="45.1201"/><ellipse cx="1817.5" cy="63.1201" fill="#ADD1B2" rx="11" ry="11" style="stroke:#181818;stroke-width:1.0;"/><path d="M1816.9219,68.4795 Q1814.8906,68.4795 1813.7031,66.9795 Q1812.5313,65.4795 1812.5313,62.3701 Q1812.5313,59.7295 1813.7813,57.9639 Q1815.0313,56.1826 1817.1875,56.1826 Q1817.7031,56.1826 1818.2344,56.3232 Q1818.6719,56.5107 1818.9219,56.5107 Q1819.1094,56.5107 1819.2031,56.4795 Q1819.2969,56.4326 1819.8438,55.7139 L1820.6563,59.6826 L1819.6094,59.9951 Q1819.1563,58.4951 1818.5625,57.917 Q1817.9844,57.3232 1817.0625,57.3232 Q1815.8906,57.3232 1815.1875,58.7295 Q1814.4844,60.1201 1814.4844,62.292 Q1814.4844,64.6826 1815.0781,65.9482 Q1815.6875,67.1982 1817,67.1982 Q1817.9219,67.1982 1818.5938,66.5264 Q1819.2656,65.8389 1819.5938,64.2607 L1820.6406,64.7607 Q1820.2344,66.5264 1819.25,67.5107 Q1818.2656,68.4795 1816.9219,68.4795 Z " fill="#000000"/><text fill="#000000" font-family="sans-serif" font-size="14" lengthAdjust="spacing" textLength="372" x="1834.5" y="68.1641">AutowiredAnnotationBeanPostProcessor.AutowiredElement</text><rect fill="#E2E2F0" height="36" rx="2.5" ry="2.5" style="stroke:#181818;stroke-width:0.5;" width="414" x="1799.5" y="1829.3135"/><ellipse cx="1817.5" cy="1847.3135" fill="#ADD1B2" rx="11" ry="11" style="stroke:#181818;stroke-width:1.0;"/><path d="M1816.9219,1852.6729 Q1814.8906,1852.6729 1813.7031,1851.1729 Q1812.5313,1849.6729 1812.5313,1846.5635 Q1812.5313,1843.9229 1813.7813,1842.1572 Q1815.0313,1840.376 1817.1875,1840.376 Q1817.7031,1840.376 1818.2344,1840.5166 Q1818.6719,1840.7041 1818.9219,1840.7041 Q1819.1094,1840.7041 1819.2031,1840.6729 Q1819.2969,1840.626 1819.8438,1839.9072 L1820.6563,1843.876 L1819.6094,1844.1885 Q1819.1563,1842.6885 1818.5625,1842.1104 Q1817.9844,1841.5166 1817.0625,1841.5166 Q1815.8906,1841.5166 1815.1875,1842.9229 Q1814.4844,1844.3135 1814.4844,1846.4854 Q1814.4844,1848.876 1815.0781,1850.1416 Q1815.6875,1851.3916 1817,1851.3916 Q1817.9219,1851.3916 1818.5938,1850.7197 Q1819.2656,1850.0322 1819.5938,1848.4541 L1820.6406,1848.9541 Q1820.2344,1850.7197 1819.25,1851.7041 Q1818.2656,1852.6729 1816.9219,1852.6729 Z " fill="#000000"/><text fill="#000000" font-family="sans-serif" font-size="14" lengthAdjust="spacing" textLength="372" x="1834.5" y="1852.3574">AutowiredAnnotationBeanPostProcessor.AutowiredElement</text><rect fill="#FFFFFF" height="1720.1934" style="stroke:#181818;stroke-width:1.0;" width="10" x="108.5" y="92.1201"/><rect fill="#FFFFFF" height="1696.439" style="stroke:#181818;stroke-width:1.0;" width="10" x="314.5" y="115.8745"/><rect fill="#FFFFFF" height="1624.9302" style="stroke:#181818;stroke-width:1.0;" width="10" x="319.5" y="155.6289"/><rect fill="#FFFFFF" height="1524.667" style="stroke:#181818;stroke-width:1.0;" width="10" x="527.5" y="192.3833"/><rect fill="#FFFFFF" height="1461.1582" style="stroke:#181818;stroke-width:1.0;" width="10" x="766" y="224.1377"/><rect fill="#FFFFFF" height="1397.6494" style="stroke:#181818;stroke-width:1.0;" width="10" x="1030" y="255.8921"/><rect fill="#FFFFFF" height="1319.1406" style="stroke:#181818;stroke-width:1.0;" width="10" x="1035" y="295.6465"/><rect fill="#FFFFFF" height="1274.3862" style="stroke:#181818;stroke-width:1.0;" width="10" x="1040" y="340.4009"/><rect fill="#FFFFFF" height="1229.6318" style="stroke:#181818;stroke-width:1.0;" width="10" x="1045" y="385.1553"/><rect fill="#FFFFFF" height="496.0527" style="stroke:#181818;stroke-width:1.0;" width="10" x="1050" y="969.2256"/><rect fill="#FFFFFF" height="28" style="stroke:#181818;stroke-width:1.0;" width="10" x="1055" y="1437.2783"/><rect fill="#FFFFFF" height="28" style="stroke:#181818;stroke-width:1.0;" width="10" x="1050" y="1512.0327"/><rect fill="#FFFFFF" height="28" style="stroke:#181818;stroke-width:1.0;" width="10" x="1050" y="1586.7871"/><rect fill="#FFFFFF" height="31.7544" style="stroke:#181818;stroke-width:1.0;" width="10" x="1030" y="1748.8047"/><rect fill="#FFFFFF" height="507.5615" style="stroke:#181818;stroke-width:1.0;" width="10" x="1332" y="421.9097"/><rect fill="#FFFFFF" height="436.0527" style="stroke:#181818;stroke-width:1.0;" width="10" x="1337" y="461.6641"/><rect fill="#FFFFFF" height="391.2983" style="stroke:#181818;stroke-width:1.0;" width="10" x="1342" y="506.4185"/><rect fill="#FFFFFF" height="308.7896" style="stroke:#181818;stroke-width:1.0;" width="10" x="1347" y="588.9272"/><rect fill="#FFFFFF" height="353.7896" style="stroke:#181818;stroke-width:1.0;" width="10" x="1332" y="1005.98"/><rect fill="#FFFFFF" height="262.2808" style="stroke:#181818;stroke-width:1.0;" width="10" x="1337" y="1083.4888"/><rect fill="#FFFFFF" height="69.5088" style="stroke:#181818;stroke-width:1.0;" width="10" x="1556" y="625.6816"/><rect fill="#FFFFFF" height="69.5088" style="stroke:#181818;stroke-width:1.0;" width="10" x="1556" y="726.9448"/><rect fill="#FFFFFF" height="69.5088" style="stroke:#181818;stroke-width:1.0;" width="10" x="1708" y="828.208"/><rect fill="#FFFFFF" height="225.5264" style="stroke:#181818;stroke-width:1.0;" width="10" x="1708" y="1120.2432"/><rect fill="#FFFFFF" height="179.772" style="stroke:#181818;stroke-width:1.0;" width="10" x="2001.5" y="1151.9976"/><rect fill="#FFFFFF" height="28" style="stroke:#181818;stroke-width:1.0;" width="10" x="2006.5" y="1191.752"/><polygon fill="#181818" points="302.5,111.8745,312.5,115.8745,302.5,119.8745,306.5,115.8745" style="stroke:#181818;stroke-width:1.0;"/><line style="stroke:#181818;stroke-width:1.0;" x1="118.5" x2="308.5" y1="115.8745" y2="115.8745"/><text fill="#000000" font-family="sans-serif" font-size="13" lengthAdjust="spacing" textLength="56" x="125.5" y="111.0181">getBean()</text><line style="stroke:#181818;stroke-width:1.0;" x1="324.5" x2="371.5" y1="142.6289" y2="142.6289"/><line style="stroke:#181818;stroke-width:1.0;" x1="371.5" x2="371.5" y1="142.6289" y2="155.6289"/><line style="stroke:#181818;stroke-width:1.0;" x1="330.5" x2="371.5" y1="155.6289" y2="155.6289"/><polygon fill="#181818" points="340.5,151.6289,330.5,155.6289,340.5,159.6289,336.5,155.6289" style="stroke:#181818;stroke-width:1.0;"/><text fill="#000000" font-family="sans-serif" font-size="13" lengthAdjust="spacing" textLength="73" x="336.5" y="137.7725">doGetBean()</text><polygon fill="#181818" points="515.5,188.3833,525.5,192.3833,515.5,196.3833,519.5,192.3833" style="stroke:#181818;stroke-width:1.0;"/><line style="stroke:#181818;stroke-width:1.0;" x1="329.5" x2="521.5" y1="192.3833" y2="192.3833"/><text fill="#000000" font-family="sans-serif" font-size="13" lengthAdjust="spacing" textLength="80" x="336.5" y="187.5269">getSingleton()</text><polygon fill="#181818" points="754,220.1377,764,224.1377,754,228.1377,758,224.1377" style="stroke:#181818;stroke-width:1.0;"/><line style="stroke:#181818;stroke-width:1.0;" x1="537.5" x2="760" y1="224.1377" y2="224.1377"/><text fill="#000000" font-family="sans-serif" font-size="13" lengthAdjust="spacing" textLength="64" x="544.5" y="219.2813">getObject()</text><polygon fill="#181818" points="1018,251.8921,1028,255.8921,1018,259.8921,1022,255.8921" style="stroke:#181818;stroke-width:1.0;"/><line style="stroke:#181818;stroke-width:1.0;" x1="776" x2="1024" y1="255.8921" y2="255.8921"/><text fill="#000000" font-family="sans-serif" font-size="13" lengthAdjust="spacing" textLength="74" x="783" y="251.0356">createBean()</text><line style="stroke:#181818;stroke-width:1.0;" x1="1040" x2="1087" y1="282.6465" y2="282.6465"/><line style="stroke:#181818;stroke-width:1.0;" x1="1087" x2="1087" y1="282.6465" y2="295.6465"/><line style="stroke:#181818;stroke-width:1.0;" x1="1046" x2="1087" y1="295.6465" y2="295.6465"/><polygon fill="#181818" points="1056,291.6465,1046,295.6465,1056,299.6465,1052,295.6465" style="stroke:#181818;stroke-width:1.0;"/><text fill="#000000" font-family="sans-serif" font-size="13" lengthAdjust="spacing" textLength="90" x="1052" y="277.79">doCreateBean()</text><line style="stroke:#181818;stroke-width:1.0;" x1="1045" x2="1092" y1="327.4009" y2="327.4009"/><line style="stroke:#181818;stroke-width:1.0;" x1="1092" x2="1092" y1="327.4009" y2="340.4009"/><line style="stroke:#181818;stroke-width:1.0;" x1="1051" x2="1092" y1="340.4009" y2="340.4009"/><polygon fill="#181818" points="1061,336.4009,1051,340.4009,1061,344.4009,1057,340.4009" style="stroke:#181818;stroke-width:1.0;"/><text fill="#000000" font-family="sans-serif" font-size="13" lengthAdjust="spacing" textLength="123" x="1057" y="322.5444">createBeanInstance()</text><line style="stroke:#181818;stroke-width:1.0;" x1="1050" x2="1097" y1="372.1553" y2="372.1553"/><line style="stroke:#181818;stroke-width:1.0;" x1="1097" x2="1097" y1="372.1553" y2="385.1553"/><line style="stroke:#181818;stroke-width:1.0;" x1="1056" x2="1097" y1="385.1553" y2="385.1553"/><polygon fill="#181818" points="1066,381.1553,1056,385.1553,1066,389.1553,1062,385.1553" style="stroke:#181818;stroke-width:1.0;"/><text fill="#000000" font-family="sans-serif" font-size="13" lengthAdjust="spacing" textLength="258" x="1062" y="367.2988">applyMergedBeanDefinitionPostProcessors()</text><polygon fill="#181818" points="1320,417.9097,1330,421.9097,1320,425.9097,1324,421.9097" style="stroke:#181818;stroke-width:1.0;"/><line style="stroke:#181818;stroke-width:1.0;" x1="1055" x2="1326" y1="421.9097" y2="421.9097"/><text fill="#000000" font-family="sans-serif" font-size="13" lengthAdjust="spacing" textLength="258" x="1062" y="417.0532">applyMergedBeanDefinitionPostProcessors()</text><line style="stroke:#181818;stroke-width:1.0;" x1="1342" x2="1389" y1="448.6641" y2="448.6641"/><line style="stroke:#181818;stroke-width:1.0;" x1="1389" x2="1389" y1="448.6641" y2="461.6641"/><line style="stroke:#181818;stroke-width:1.0;" x1="1348" x2="1389" y1="461.6641" y2="461.6641"/><polygon fill="#181818" points="1358,457.6641,1348,461.6641,1358,465.6641,1354,461.6641" style="stroke:#181818;stroke-width:1.0;"/><text fill="#000000" font-family="sans-serif" font-size="13" lengthAdjust="spacing" textLength="130" x="1354" y="443.8076">findInjectionMetadata()</text><line style="stroke:#181818;stroke-width:1.0;" x1="1347" x2="1394" y1="493.4185" y2="493.4185"/><line style="stroke:#181818;stroke-width:1.0;" x1="1394" x2="1394" y1="493.4185" y2="506.4185"/><line style="stroke:#181818;stroke-width:1.0;" x1="1353" x2="1394" y1="506.4185" y2="506.4185"/><polygon fill="#181818" points="1363,502.4185,1353,506.4185,1363,510.4185,1359,506.4185" style="stroke:#181818;stroke-width:1.0;"/><text fill="#000000" font-family="sans-serif" font-size="13" lengthAdjust="spacing" textLength="142" x="1359" y="488.562">findAutowiringMetadata()</text><path d="M1357,524.4185 L1357,551.4185 L1744,551.4185 L1744,534.4185 L1734,524.4185 L1357,524.4185 " fill="#FEFFDD" style="stroke:#181818;stroke-width:0.5;"/><path d="M1734,524.4185 L1734,534.4185 L1744,534.4185 L1734,524.4185 " fill="#FEFFDD" style="stroke:#181818;stroke-width:0.5;"/><text fill="#000000" font-family="sans-serif" font-size="13" lengthAdjust="spacing" textLength="366" x="1363" y="544.3164">findAutowiringMetadata结束后会把InjectionMetadata放入缓存中</text><line style="stroke:#181818;stroke-width:1.0;" x1="1352" x2="1399" y1="575.9272" y2="575.9272"/><line style="stroke:#181818;stroke-width:1.0;" x1="1399" x2="1399" y1="575.9272" y2="588.9272"/><line style="stroke:#181818;stroke-width:1.0;" x1="1358" x2="1399" y1="588.9272" y2="588.9272"/><polygon fill="#181818" points="1368,584.9272,1358,588.9272,1368,592.9272,1364,588.9272" style="stroke:#181818;stroke-width:1.0;"/><text fill="#000000" font-family="sans-serif" font-size="13" lengthAdjust="spacing" textLength="149" x="1364" y="571.0708">buildAutowiringMetadata()</text><polygon fill="#181818" points="1544,621.6816,1554,625.6816,1544,629.6816,1548,625.6816" style="stroke:#181818;stroke-width:1.0;"/><line style="stroke:#181818;stroke-width:1.0;" x1="1357" x2="1550" y1="625.6816" y2="625.6816"/><text fill="#000000" font-family="sans-serif" font-size="13" lengthAdjust="spacing" textLength="115" x="1364" y="620.8252">doWithLocalFields()</text><path d="M1571,638.6816 L1571,683.6816 L1947,683.6816 L1947,648.6816 L1937,638.6816 L1571,638.6816 " fill="#FEFFDD" style="stroke:#181818;stroke-width:0.5;"/><path d="M1937,638.6816 L1937,648.6816 L1947,648.6816 L1937,638.6816 " fill="#FEFFDD" style="stroke:#181818;stroke-width:0.5;"/><text fill="#000000" font-family="sans-serif" font-size="13" lengthAdjust="spacing" textLength="355" x="1577" y="658.5796">通过反射查询带有 @Autowired 等注解的字段,找到后掉用回调</text><text fill="#000000" font-family="sans-serif" font-size="13" lengthAdjust="spacing" textLength="279" x="1577" y="676.334">创建AutowiredFieldElement 放入currElements中</text><polygon fill="#181818" points="1368,691.1904,1358,695.1904,1368,699.1904,1364,695.1904" style="stroke:#181818;stroke-width:1.0;"/><line style="stroke:#181818;stroke-width:1.0;stroke-dasharray:2.0,2.0;" x1="1362" x2="1560" y1="695.1904" y2="695.1904"/><polygon fill="#181818" points="1544,722.9448,1554,726.9448,1544,730.9448,1548,726.9448" style="stroke:#181818;stroke-width:1.0;"/><line style="stroke:#181818;stroke-width:1.0;" x1="1357" x2="1550" y1="726.9448" y2="726.9448"/><text fill="#000000" font-family="sans-serif" font-size="13" lengthAdjust="spacing" textLength="130" x="1364" y="722.0884">doWithLocalMethods()</text><path d="M1571,739.9448 L1571,784.9448 L1947,784.9448 L1947,749.9448 L1937,739.9448 L1571,739.9448 " fill="#FEFFDD" style="stroke:#181818;stroke-width:0.5;"/><path d="M1937,739.9448 L1937,749.9448 L1947,749.9448 L1937,739.9448 " fill="#FEFFDD" style="stroke:#181818;stroke-width:0.5;"/><text fill="#000000" font-family="sans-serif" font-size="13" lengthAdjust="spacing" textLength="355" x="1577" y="759.8428">通过反射查询带有 @Autowired 等注解的方法,找到后掉用回调</text><text fill="#000000" font-family="sans-serif" font-size="13" lengthAdjust="spacing" textLength="294" x="1577" y="777.5972">创建AutowiredMethodElement 放入currElements中</text><polygon fill="#181818" points="1368,792.4536,1358,796.4536,1368,800.4536,1364,796.4536" style="stroke:#181818;stroke-width:1.0;"/><line style="stroke:#181818;stroke-width:1.0;stroke-dasharray:2.0,2.0;" x1="1362" x2="1560" y1="796.4536" y2="796.4536"/><polygon fill="#181818" points="1696,824.208,1706,828.208,1696,832.208,1700,828.208" style="stroke:#181818;stroke-width:1.0;"/><line style="stroke:#181818;stroke-width:1.0;" x1="1357" x2="1702" y1="828.208" y2="828.208"/><text fill="#000000" font-family="sans-serif" font-size="13" lengthAdjust="spacing" textLength="77" x="1364" y="823.3516">forElements()</text><path d="M1435,841.208 L1435,868.208 L1703,868.208 L1703,851.208 L1693,841.208 L1435,841.208 " fill="#FEFFDD" style="stroke:#181818;stroke-width:0.5;"/><path d="M1693,841.208 L1693,851.208 L1703,851.208 L1693,841.208 " fill="#FEFFDD" style="stroke:#181818;stroke-width:0.5;"/><text fill="#000000" font-family="sans-serif" font-size="13" lengthAdjust="spacing" textLength="247" x="1441" y="861.106">这里把所有命中的字段封装成一个对象返回</text><polygon fill="#181818" points="1353,893.7168,1343,897.7168,1353,901.7168,1349,897.7168" style="stroke:#181818;stroke-width:1.0;"/><line style="stroke:#181818;stroke-width:1.0;stroke-dasharray:2.0,2.0;" x1="1347" x2="1712" y1="897.7168" y2="897.7168"/><text fill="#000000" font-family="sans-serif" font-size="13" lengthAdjust="spacing" textLength="106" x="1359" y="892.8604">:InjectionMetadata</text><polygon fill="#181818" points="1066,925.4712,1056,929.4712,1066,933.4712,1062,929.4712" style="stroke:#181818;stroke-width:1.0;"/><line style="stroke:#181818;stroke-width:1.0;stroke-dasharray:2.0,2.0;" x1="1060" x2="1336" y1="929.4712" y2="929.4712"/><text fill="#000000" font-family="sans-serif" font-size="13" lengthAdjust="spacing" textLength="110" x="1072" y="924.6147">: InjectionMetadata</text><line style="stroke:#181818;stroke-width:1.0;" x1="1055" x2="1102" y1="956.2256" y2="956.2256"/><line style="stroke:#181818;stroke-width:1.0;" x1="1102" x2="1102" y1="956.2256" y2="969.2256"/><line style="stroke:#181818;stroke-width:1.0;" x1="1061" x2="1102" y1="969.2256" y2="969.2256"/><polygon fill="#181818" points="1071,965.2256,1061,969.2256,1071,973.2256,1067,969.2256" style="stroke:#181818;stroke-width:1.0;"/><text fill="#000000" font-family="sans-serif" font-size="13" lengthAdjust="spacing" textLength="87" x="1067" y="951.3691">populateBean()</text><polygon fill="#181818" points="1320,1001.98,1330,1005.98,1320,1009.98,1324,1005.98" style="stroke:#181818;stroke-width:1.0;"/><line style="stroke:#181818;stroke-width:1.0;" x1="1060" x2="1326" y1="1005.98" y2="1005.98"/><text fill="#000000" font-family="sans-serif" font-size="13" lengthAdjust="spacing" textLength="140" x="1067" y="1001.1235">postProcessProperties()</text><path d="M1347,1018.98 L1347,1045.98 L1904,1045.98 L1904,1028.98 L1894,1018.98 L1347,1018.98 " fill="#FEFFDD" style="stroke:#181818;stroke-width:0.5;"/><path d="M1894,1018.98 L1894,1028.98 L1904,1028.98 L1894,1018.98 " fill="#FEFFDD" style="stroke:#181818;stroke-width:0.5;"/><text fill="#000000" font-family="sans-serif" font-size="13" lengthAdjust="spacing" textLength="536" x="1353" y="1038.8779">这里是把InstantiationAwareBeanPostProcessor的实现类循环调用postProcessProperties方法</text><line style="stroke:#181818;stroke-width:1.0;" x1="1342" x2="1389" y1="1070.4888" y2="1070.4888"/><line style="stroke:#181818;stroke-width:1.0;" x1="1389" x2="1389" y1="1070.4888" y2="1083.4888"/><line style="stroke:#181818;stroke-width:1.0;" x1="1348" x2="1389" y1="1083.4888" y2="1083.4888"/><polygon fill="#181818" points="1358,1079.4888,1348,1083.4888,1358,1087.4888,1354,1083.4888" style="stroke:#181818;stroke-width:1.0;"/><text fill="#000000" font-family="sans-serif" font-size="13" lengthAdjust="spacing" textLength="142" x="1354" y="1065.6323">findAutowiringMetadata()</text><polygon fill="#181818" points="1696,1116.2432,1706,1120.2432,1696,1124.2432,1700,1120.2432" style="stroke:#181818;stroke-width:1.0;"/><line style="stroke:#181818;stroke-width:1.0;" x1="1347" x2="1702" y1="1120.2432" y2="1120.2432"/><text fill="#000000" font-family="sans-serif" font-size="13" lengthAdjust="spacing" textLength="39" x="1354" y="1115.3867">inject()</text><polygon fill="#181818" points="1989.5,1147.9976,1999.5,1151.9976,1989.5,1155.9976,1993.5,1151.9976" style="stroke:#181818;stroke-width:1.0;"/><line style="stroke:#181818;stroke-width:1.0;" x1="1718" x2="1995.5" y1="1151.9976" y2="1151.9976"/><text fill="#000000" font-family="sans-serif" font-size="13" lengthAdjust="spacing" textLength="39" x="1725" y="1147.1411">inject()</text><line style="stroke:#181818;stroke-width:1.0;" x1="2016.5" x2="2058.5" y1="1183.752" y2="1183.752"/><line style="stroke:#181818;stroke-width:1.0;" x1="2058.5" x2="2058.5" y1="1183.752" y2="1196.752"/><line style="stroke:#181818;stroke-width:1.0;" x1="2017.5" x2="2058.5" y1="1196.752" y2="1196.752"/><polygon fill="#181818" points="2027.5,1192.752,2017.5,1196.752,2027.5,1200.752,2023.5,1196.752" style="stroke:#181818;stroke-width:1.0;"/><text fill="#000000" font-family="sans-serif" font-size="13" lengthAdjust="spacing" textLength="109" x="2023.5" y="1178.8955">resolveFieldValue()</text><path d="M2016,1239.752 L2016,1320.752 L2255,1320.752 L2255,1249.752 L2245,1239.752 L2016,1239.752 " fill="#FEFFDD" style="stroke:#181818;stroke-width:0.5;"/><path d="M2245,1239.752 L2245,1249.752 L2255,1249.752 L2245,1239.752 " fill="#FEFFDD" style="stroke:#181818;stroke-width:0.5;"/><text fill="#000000" font-family="sans-serif" font-size="13" lengthAdjust="spacing" textLength="182" x="2022" y="1259.6499">这里开始就是依赖解决的逻辑了</text><text fill="#000000" font-family="sans-serif" font-size="13" lengthAdjust="spacing" textLength="212" x="2022" y="1277.4043">之后通过反射 设置自动装配字段的值</text><text fill="#000000" font-family="sans-serif" font-size="13" lengthAdjust="spacing" textLength="218" x="2022" y="1295.1587">ReflectionUtils.makeAccessible(field);</text><text fill="#000000" font-family="sans-serif" font-size="13" lengthAdjust="spacing" textLength="122" x="2022" y="1312.9131">field.set(bean, value);</text><polygon fill="#181818" points="1729,1327.7695,1719,1331.7695,1729,1335.7695,1725,1331.7695" style="stroke:#181818;stroke-width:1.0;"/><line style="stroke:#181818;stroke-width:1.0;stroke-dasharray:2.0,2.0;" x1="1723" x2="2005.5" y1="1331.7695" y2="1331.7695"/><polygon fill="#181818" points="1353,1341.7695,1343,1345.7695,1353,1349.7695,1349,1345.7695" style="stroke:#181818;stroke-width:1.0;"/><line style="stroke:#181818;stroke-width:1.0;stroke-dasharray:2.0,2.0;" x1="1347" x2="1712" y1="1345.7695" y2="1345.7695"/><polygon fill="#181818" points="1071,1355.7695,1061,1359.7695,1071,1363.7695,1067,1359.7695" style="stroke:#181818;stroke-width:1.0;"/><line style="stroke:#181818;stroke-width:1.0;stroke-dasharray:2.0,2.0;" x1="1065" x2="1336" y1="1359.7695" y2="1359.7695"/><path d="M1065,1372.7695 L1065,1399.7695 L1229,1399.7695 L1229,1382.7695 L1219,1372.7695 L1065,1372.7695 " fill="#FEFFDD" style="stroke:#181818;stroke-width:0.5;"/><path d="M1219,1372.7695 L1219,1382.7695 L1229,1382.7695 L1219,1372.7695 " fill="#FEFFDD" style="stroke:#181818;stroke-width:0.5;"/><text fill="#000000" font-family="sans-serif" font-size="13" lengthAdjust="spacing" textLength="143" x="1071" y="1392.6675">这里是属性类型转换的活</text><line style="stroke:#181818;stroke-width:1.0;" x1="1065" x2="1107" y1="1429.2783" y2="1429.2783"/><line style="stroke:#181818;stroke-width:1.0;" x1="1107" x2="1107" y1="1429.2783" y2="1442.2783"/><line style="stroke:#181818;stroke-width:1.0;" x1="1066" x2="1107" y1="1442.2783" y2="1442.2783"/><polygon fill="#181818" points="1076,1438.2783,1066,1442.2783,1076,1446.2783,1072,1442.2783" style="stroke:#181818;stroke-width:1.0;"/><text fill="#000000" font-family="sans-serif" font-size="13" lengthAdjust="spacing" textLength="128" x="1072" y="1424.4219">applyPropertyValues()</text><line style="stroke:#181818;stroke-width:1.0;" x1="1060" x2="1102" y1="1504.0327" y2="1504.0327"/><line style="stroke:#181818;stroke-width:1.0;" x1="1102" x2="1102" y1="1504.0327" y2="1517.0327"/><line style="stroke:#181818;stroke-width:1.0;" x1="1061" x2="1102" y1="1517.0327" y2="1517.0327"/><polygon fill="#181818" points="1071,1513.0327,1061,1517.0327,1071,1521.0327,1067,1517.0327" style="stroke:#181818;stroke-width:1.0;"/><text fill="#000000" font-family="sans-serif" font-size="13" lengthAdjust="spacing" textLength="85" x="1067" y="1499.1763">initializeBean()</text><line style="stroke:#181818;stroke-width:1.0;" x1="1060" x2="1102" y1="1578.7871" y2="1578.7871"/><line style="stroke:#181818;stroke-width:1.0;" x1="1102" x2="1102" y1="1578.7871" y2="1591.7871"/><line style="stroke:#181818;stroke-width:1.0;" x1="1061" x2="1102" y1="1591.7871" y2="1591.7871"/><polygon fill="#181818" points="1071,1587.7871,1061,1591.7871,1071,1595.7871,1067,1591.7871" style="stroke:#181818;stroke-width:1.0;"/><text fill="#000000" font-family="sans-serif" font-size="13" lengthAdjust="spacing" textLength="213" x="1067" y="1573.9307">registerDisposableBeanIfNecessary()</text><polygon fill="#181818" points="787,1649.5415,777,1653.5415,787,1657.5415,783,1653.5415" style="stroke:#181818;stroke-width:1.0;"/><line style="stroke:#181818;stroke-width:1.0;stroke-dasharray:2.0,2.0;" x1="781" x2="1034" y1="1653.5415" y2="1653.5415"/><text fill="#000000" font-family="sans-serif" font-size="13" lengthAdjust="spacing" textLength="42" x="793" y="1648.6851">:Object</text><polygon fill="#181818" points="548.5,1681.2959,538.5,1685.2959,548.5,1689.2959,544.5,1685.2959" style="stroke:#181818;stroke-width:1.0;"/><line style="stroke:#181818;stroke-width:1.0;stroke-dasharray:2.0,2.0;" x1="542.5" x2="770" y1="1685.2959" y2="1685.2959"/><text fill="#000000" font-family="sans-serif" font-size="13" lengthAdjust="spacing" textLength="42" x="554.5" y="1680.4395">:Object</text><polygon fill="#181818" points="340.5,1713.0503,330.5,1717.0503,340.5,1721.0503,336.5,1717.0503" style="stroke:#181818;stroke-width:1.0;"/><line style="stroke:#181818;stroke-width:1.0;stroke-dasharray:2.0,2.0;" x1="334.5" x2="531.5" y1="1717.0503" y2="1717.0503"/><text fill="#000000" font-family="sans-serif" font-size="13" lengthAdjust="spacing" textLength="42" x="346.5" y="1712.1938">:Object</text><polygon fill="#181818" points="1018,1744.8047,1028,1748.8047,1018,1752.8047,1022,1748.8047" style="stroke:#181818;stroke-width:1.0;"/><line style="stroke:#181818;stroke-width:1.0;" x1="329.5" x2="1024" y1="1748.8047" y2="1748.8047"/><text fill="#000000" font-family="sans-serif" font-size="13" lengthAdjust="spacing" textLength="162" x="336.5" y="1743.9482">getObjectForBeanInstance()</text><polygon fill="#181818" points="335.5,1776.5591,325.5,1780.5591,335.5,1784.5591,331.5,1780.5591" style="stroke:#181818;stroke-width:1.0;"/><line style="stroke:#181818;stroke-width:1.0;stroke-dasharray:2.0,2.0;" x1="329.5" x2="1034" y1="1780.5591" y2="1780.5591"/><text fill="#000000" font-family="sans-serif" font-size="13" lengthAdjust="spacing" textLength="38" x="341.5" y="1775.7026">Object</text><polygon fill="#181818" points="124.5,1808.3135,114.5,1812.3135,124.5,1816.3135,120.5,1812.3135" style="stroke:#181818;stroke-width:1.0;"/><line style="stroke:#181818;stroke-width:1.0;stroke-dasharray:2.0,2.0;" x1="118.5" x2="318.5" y1="1812.3135" y2="1812.3135"/><text fill="#000000" font-family="sans-serif" font-size="13" lengthAdjust="spacing" textLength="38" x="130.5" y="1807.457">Object</text><!--MD5=[8e22c791f6f389d3df874f9ad33234f4]
@startuml Autowired-Inject-Sequence
title Autowired Inject Sequence
' !theme crt-amber
participant DefaultListableBeanFactory  as dlbf  <<(C,#ADD1B2)>>
participant AbstractBeanFactory as abf <<(C,#ADD1B2)>> 
participant DefaultSingletonBeanRegistry as dsbr <<(C,#ADD1B2)>> 
participant AbstractBeanFactoryLambda as abflambda <<(C,#ADD1B2)>> 
participant AbstractAutowireCapableBeanFactory as aacbf <<(C,#ADD1B2)>> 
participant AutowiredAnnotationBeanPostProcessor as aabpp <<(C,#ADD1B2)>> 
participant ReflectionUtils as rutils <<(C,#ADD1B2)>> 
participant InjectionMetadata as imdata <<(C,#ADD1B2)>> 
participant AutowiredAnnotationBeanPostProcessor.AutowiredElement as ielement <<(C,#ADD1B2)>> 




activate dlbf
dlbf->abf ++:getBean()
abf->abf ++:doGetBean()
abf->dsbr ++:getSingleton()
dsbr-> abflambda ++:getObject()
abflambda ->aacbf ++:createBean()
aacbf ->aacbf ++:doCreateBean()
aacbf ->aacbf ++:createBeanInstance()
aacbf ->aacbf ++:applyMergedBeanDefinitionPostProcessors()
aacbf ->aabpp ++:applyMergedBeanDefinitionPostProcessors()
aabpp ->aabpp ++:findInjectionMetadata()
aabpp ->aabpp ++: findAutowiringMetadata()
note right aabpp
 findAutowiringMetadata结束后会把InjectionMetadata放入缓存中
end note
aabpp ->aabpp ++: buildAutowiringMetadata()
aabpp ->rutils ++:doWithLocalFields()
note right of rutils
    通过反射查询带有 @Autowired 等注解的字段,找到后掉用回调
    创建AutowiredFieldElement 放入currElements中
end note
return 
aabpp ->rutils ++:doWithLocalMethods()
note right of rutils
    通过反射查询带有 @Autowired 等注解的方法,找到后掉用回调
    创建AutowiredMethodElement 放入currElements中
end note
return 
aabpp ->imdata ++:forElements()
note left of imdata
    这里把所有命中的字段封装成一个对象返回
end note
return:InjectionMetadata
deactivate aabpp
deactivate aabpp
deactivate aabpp
return: InjectionMetadata

aacbf->aacbf ++:populateBean()
aacbf-> aabpp ++:postProcessProperties()
note right aabpp
这里是把InstantiationAwareBeanPostProcessor的实现类循环调用postProcessProperties方法
end note
aabpp -> aabpp ++:findAutowiringMetadata()
aabpp -> imdata ++:inject()
imdata -> ielement ++:inject()
ielement -> ielement ++:resolveFieldValue()
note right ielement
这里开始就是依赖解决的逻辑了
之后通过反射 设置自动装配字段的值
ReflectionUtils.makeAccessible(field);
field.set(bean, value);
end note
deactivate ielement
return
return
deactivate aabpp
return
note right aacbf
 这里是属性类型转换的活
end note
aacbf -> aacbf ++:applyPropertyValues()
deactivate aacbf
deactivate aacbf
aacbf -> aacbf ++:initializeBean()
deactivate aacbf
aacbf -> aacbf ++: registerDisposableBeanIfNecessary()
deactivate aacbf
deactivate aacbf
deactivate aacbf
deactivate aacbf
return:Object
return:Object
return:Object
abf -> aacbf ++:getObjectForBeanInstance()
return Object
deactivate abf
return Object
deactivate dlbf
@enduml

@startuml Autowired-Inject-Sequence
title Autowired Inject Sequence
participant DefaultListableBeanFactory  as dlbf  <<(C,#ADD1B2)>>
participant AbstractBeanFactory as abf <<(C,#ADD1B2)>> 
participant DefaultSingletonBeanRegistry as dsbr <<(C,#ADD1B2)>> 
participant AbstractBeanFactoryLambda as abflambda <<(C,#ADD1B2)>> 
participant AbstractAutowireCapableBeanFactory as aacbf <<(C,#ADD1B2)>> 
participant AutowiredAnnotationBeanPostProcessor as aabpp <<(C,#ADD1B2)>> 
participant ReflectionUtils as rutils <<(C,#ADD1B2)>> 
participant InjectionMetadata as imdata <<(C,#ADD1B2)>> 
participant AutowiredAnnotationBeanPostProcessor.AutowiredElement as ielement <<(C,#ADD1B2)>> 




activate dlbf
dlbf->abf ++:getBean()
abf->abf ++:doGetBean()
abf->dsbr ++:getSingleton()
dsbr-> abflambda ++:getObject()
abflambda ->aacbf ++:createBean()
aacbf ->aacbf ++:doCreateBean()
aacbf ->aacbf ++:createBeanInstance()
aacbf ->aacbf ++:applyMergedBeanDefinitionPostProcessors()
aacbf ->aabpp ++:applyMergedBeanDefinitionPostProcessors()
aabpp ->aabpp ++:findInjectionMetadata()
aabpp ->aabpp ++: findAutowiringMetadata()
note right aabpp
 findAutowiringMetadata结束后会把InjectionMetadata放入缓存中
end note
aabpp ->aabpp ++: buildAutowiringMetadata()
aabpp ->rutils ++:doWithLocalFields()
note right of rutils
    通过反射查询带有 @Autowired 等注解的字段,找到后掉用回调
    创建AutowiredFieldElement 放入currElements中
end note
return 
aabpp ->rutils ++:doWithLocalMethods()
note right of rutils
    通过反射查询带有 @Autowired 等注解的方法,找到后掉用回调
    创建AutowiredMethodElement 放入currElements中
end note
return 
aabpp ->imdata ++:forElements()
note left of imdata
    这里把所有命中的字段封装成一个对象返回
end note
return:InjectionMetadata
deactivate aabpp
deactivate aabpp
deactivate aabpp
return: InjectionMetadata

aacbf->aacbf ++:populateBean()
aacbf-> aabpp ++:postProcessProperties()
note right aabpp
这里是把InstantiationAwareBeanPostProcessor的实现类循环调用postProcessProperties方法
end note
aabpp -> aabpp ++:findAutowiringMetadata()
aabpp -> imdata ++:inject()
imdata -> ielement ++:inject()
ielement -> ielement ++:resolveFieldValue()
note right ielement
这里开始就是依赖解决的逻辑了
之后通过反射 设置自动装配字段的值
ReflectionUtils.makeAccessible(field);
field.set(bean, value);
end note
deactivate ielement
return
return
deactivate aabpp
return
note right aacbf
 这里是属性类型转换的活
end note
aacbf -> aacbf ++:applyPropertyValues()
deactivate aacbf
deactivate aacbf
aacbf -> aacbf ++:initializeBean()
deactivate aacbf
aacbf -> aacbf ++: registerDisposableBeanIfNecessary()
deactivate aacbf
deactivate aacbf
deactivate aacbf
deactivate aacbf
return:Object
return:Object
return:Object
abf -> aacbf ++:getObjectForBeanInstance()
return Object
deactivate abf
return Object
deactivate dlbf
@enduml

PlantUML version 1.2022.7(Tue Aug 23 01:01:30 CST 2022)
(GPL source distribution)
Java Runtime: OpenJDK Runtime Environment
JVM: OpenJDK 64-Bit Server VM
Default Encoding: GBK
Language: en
Country: US
--></g></svg>